<svg id="Layer_1" data-name="Layer 1" xmlns="http://www.w3.org/2000/svg" viewBox="0 0 1000 1000"><defs><style>.cls-1{fill:#ebf3fa;}.cls-2{fill:#d3d7ea;opacity:0.3;}.cls-3{fill:#d5e5fb;}.cls-4{fill:#fff;}.cls-5{fill:#c6dcf7;}.cls-6{fill:#c8d9ed;}.cls-7{fill:#091821;}.cls-8{fill:#e2915a;}.cls-9{fill:#27a9e0;}.cls-10{fill:#1f739c;}.cls-11{fill:#ffb27d;}.cls-12{fill:#0e2331;}.cls-13{fill:#ed975d;}.cls-14{fill:#173644;}.cls-15{fill:#132f3f;}.cls-16{fill:#e9f3fe;}.cls-17{fill:#d9e9f9;}.cls-18{fill:#e9ebfb;}.cls-19{fill:#3abbe8;}.cls-20{fill:#e6fbff;}.cls-21{fill:#196989;}.cls-22{fill:#a2dded;}.cls-23{fill:#b9e5ef;}.cls-24{fill:#afcdfb;}</style></defs><title>contact-pic1</title><path class="cls-1" d="M-123.37,1809.56s-127.49-161.57,1.82-362.37C-1.64,1261,184,1350.32,301,1179.39c296.49-433.06,929.37-100.15,834.42,267.91-46,178.12,139.85,184.59,45.17,362.64Z"/><path class="cls-2" d="M945.91,828.57c-7.83,21.39-17.09,43.08-33.57,58.79a88.88,88.88,0,0,1-11.25,9.06c-2.08,1.42-4.22,2.75-6.4,4H76.24q-2.08-2-4.13-4C38.54,863.15,15,820.24,10.18,773.5c-5-48.91,10.21-98.19,34.23-141.1S100.87,552,133.09,514.88c29.18-33.65,58.74-67.64,95.06-93.44s80.6-43,124.93-38.63c34,3.33,65.37,18.86,98.33,27.71S523,420.31,549,398.16c28.53-24.33,31.46-66.54,46.86-100.72,28.37-62.94,103.69-97.1,172.1-87.8s128,56.1,164.31,114.82,51.61,128.27,56.63,197.13A740.4,740.4,0,0,1,945.91,828.57Z"/><path class="cls-2" d="M948.05,759.08C936.83,807,918,855.84,879.76,886.78a142.53,142.53,0,0,1-13.44,9.64c-2.2,1.4-4.42,2.73-6.68,4H258.8q-10.62-1.8-21.09-4c-49.53-10.42-96.46-28-135.64-59.58C18,769-8.66,639.36,41.86,543.83S214.51,397.35,317.94,428.65c27.68,8.38,54.31,22,83.18,23.62,29.58,1.7,58.81-11.34,79.37-32.28,18.08-18.4,24.32-41.54,37.07-63,29.8-50.16,86-86.47,142.5-98.15,65.88-13.64,137.6,4.51,189.07,47.84,52.57,44.26,82,110.54,98.1,177.35A597.77,597.77,0,0,1,948.05,759.08Z"/><circle class="cls-3" cx="200.03" cy="249.16" r="21.99" transform="translate(-61.07 433.32) rotate(-86.44)"/><path class="cls-4" d="M207.09,240.33a7.06,7.06,0,1,0-7.06,7.06A7.06,7.06,0,0,0,207.09,240.33Z"/><path class="cls-4" d="M200,247.39a12.35,12.35,0,0,1,12.35,12.35h-24.7A12.35,12.35,0,0,1,200,247.39Z"/><circle class="cls-5" cx="362.58" cy="190.65" r="14.84" transform="translate(-34.1 88.4) rotate(-13.28)"/><path class="cls-4" d="M367.34,184.7a4.76,4.76,0,1,0-4.76,4.76A4.76,4.76,0,0,0,367.34,184.7Z"/><path class="cls-4" d="M362.58,189.46a8.33,8.33,0,0,1,8.33,8.33H354.24A8.33,8.33,0,0,1,362.58,189.46Z"/><path class="cls-3" d="M256.79,116.16a1.29,1.29,0,1,0-.85,1.62A1.29,1.29,0,0,0,256.79,116.16Z"/><path class="cls-3" d="M251.08,117.92a1.29,1.29,0,0,0-2.47.76,1.29,1.29,0,1,0,2.47-.76Z"/><path class="cls-3" d="M244.44,121.32a1.29,1.29,0,1,0-.76-2.47,1.29,1.29,0,0,0,.76,2.47Z"/><path class="cls-3" d="M239.51,121.48a1.29,1.29,0,1,0-.86,1.62A1.29,1.29,0,0,0,239.51,121.48Z"/><path class="cls-3" d="M233.8,123.24a1.29,1.29,0,1,0-.86,1.61A1.3,1.3,0,0,0,233.8,123.24Z"/><path class="cls-3" d="M227.15,126.63a1.29,1.29,0,1,0-1.61-.85A1.28,1.28,0,0,0,227.15,126.63Z"/><path class="cls-3" d="M222.45,126.73a1.29,1.29,0,1,0-.85,1.61A1.29,1.29,0,0,0,222.45,126.73Z"/><path class="cls-3" d="M216.74,128.49a1.29,1.29,0,1,0-.85,1.61A1.29,1.29,0,0,0,216.74,128.49Z"/><path class="cls-3" d="M210.1,131.88a1.29,1.29,0,1,0-1.61-.85A1.29,1.29,0,0,0,210.1,131.88Z"/><path class="cls-3" d="M205.17,132.05a1.29,1.29,0,1,0-2.47.76,1.29,1.29,0,0,0,2.47-.76Z"/><path class="cls-3" d="M199.46,133.81a1.29,1.29,0,1,0-.86,1.61A1.29,1.29,0,0,0,199.46,133.81Z"/><path class="cls-3" d="M192.81,137.2a1.29,1.29,0,1,0-1.61-.85A1.28,1.28,0,0,0,192.81,137.2Z"/><path class="cls-3" d="M187.87,137.37A1.29,1.29,0,1,0,187,139,1.3,1.3,0,0,0,187.87,137.37Z"/><path class="cls-3" d="M182.15,139.13a1.29,1.29,0,1,0-.85,1.61A1.29,1.29,0,0,0,182.15,139.13Z"/><path class="cls-3" d="M175.51,142.52a1.29,1.29,0,1,0-1.61-.85A1.29,1.29,0,0,0,175.51,142.52Z"/><path class="cls-3" d="M170.58,142.69a1.29,1.29,0,1,0-.85,1.61A1.29,1.29,0,0,0,170.58,142.69Z"/><path class="cls-3" d="M164.87,144.45a1.29,1.29,0,1,0-.86,1.61A1.28,1.28,0,0,0,164.87,144.45Z"/><path class="cls-3" d="M158.23,147.84a1.29,1.29,0,0,0-.76-2.47,1.29,1.29,0,1,0,.76,2.47Z"/><path class="cls-3" d="M153.53,147.94a1.29,1.29,0,1,0-2.47.76,1.29,1.29,0,0,0,2.47-.76Z"/><path class="cls-3" d="M147.81,149.7a1.28,1.28,0,0,0-1.61-.86,1.29,1.29,0,1,0,.76,2.47A1.29,1.29,0,0,0,147.81,149.7Z"/><path class="cls-3" d="M141.17,153.09a1.29,1.29,0,1,0-1.61-.85A1.29,1.29,0,0,0,141.17,153.09Z"/><path class="cls-3" d="M136.24,153.26a1.29,1.29,0,1,0-.86,1.61A1.28,1.28,0,0,0,136.24,153.26Z"/><path class="cls-3" d="M130.53,155a1.29,1.29,0,0,0-2.47.76,1.28,1.28,0,0,0,1.61.86A1.3,1.3,0,0,0,130.53,155Z"/><path class="cls-3" d="M123.89,158.41a1.29,1.29,0,1,0-1.62-.86A1.29,1.29,0,0,0,123.89,158.41Z"/><path class="cls-3" d="M184.62,226.66a1.3,1.3,0,1,0-1.8-.28A1.3,1.3,0,0,0,184.62,226.66Z"/><path class="cls-3" d="M181.09,221.84a1.3,1.3,0,1,0-1.81-.28A1.3,1.3,0,0,0,181.09,221.84Z"/><path class="cls-3" d="M175.71,216.67a1.29,1.29,0,1,0,.27-1.8A1.28,1.28,0,0,0,175.71,216.67Z"/><path class="cls-3" d="M173.93,212.07a1.29,1.29,0,1,0-1.8-.28A1.3,1.3,0,0,0,173.93,212.07Z"/><path class="cls-3" d="M170.4,207.24a1.29,1.29,0,1,0-1.8-.27A1.28,1.28,0,0,0,170.4,207.24Z"/><path class="cls-3" d="M165,202.08a1.29,1.29,0,1,0,.28-1.8A1.28,1.28,0,0,0,165,202.08Z"/><path class="cls-3" d="M163.24,197.46a1.29,1.29,0,1,0-1.81-.28A1.28,1.28,0,0,0,163.24,197.46Z"/><path class="cls-3" d="M159.7,192.64a1.29,1.29,0,1,0-1.8-.28A1.28,1.28,0,0,0,159.7,192.64Z"/><path class="cls-3" d="M154.32,187.48a1.29,1.29,0,1,0,.28-1.81A1.3,1.3,0,0,0,154.32,187.48Z"/><path class="cls-3" d="M152.55,182.87a1.29,1.29,0,1,0-1.81-.28A1.29,1.29,0,0,0,152.55,182.87Z"/><path class="cls-3" d="M149,178.05a1.29,1.29,0,1,0-1.81-.28A1.28,1.28,0,0,0,149,178.05Z"/><path class="cls-3" d="M143.63,172.89a1.3,1.3,0,1,0,.28-1.81A1.3,1.3,0,0,0,143.63,172.89Z"/><path class="cls-3" d="M142,168.48a1.29,1.29,0,1,0-1.8-.28A1.29,1.29,0,0,0,142,168.48Z"/><path class="cls-3" d="M138.47,163.66a1.3,1.3,0,1,0-1.8-.28A1.29,1.29,0,0,0,138.47,163.66Z"/><path class="cls-3" d="M133.09,158.49a1.29,1.29,0,1,0,.28-1.8A1.27,1.27,0,0,0,133.09,158.49Z"/><path class="cls-3" d="M131.32,153.89a1.29,1.29,0,1,0-1.81-.28A1.29,1.29,0,0,0,131.32,153.89Z"/><path class="cls-3" d="M127.78,149.07a1.29,1.29,0,1,0-1.8-.28A1.29,1.29,0,0,0,127.78,149.07Z"/><path class="cls-3" d="M122.4,143.9a1.29,1.29,0,1,0,.28-1.8A1.29,1.29,0,0,0,122.4,143.9Z"/><path class="cls-3" d="M173.93,246.9a1.29,1.29,0,1,0-1.48,1.06A1.29,1.29,0,0,0,173.93,246.9Z"/><path class="cls-3" d="M168,245.93a1.29,1.29,0,1,0-2.55-.42,1.29,1.29,0,0,0,2.55.42Z"/><path class="cls-3" d="M160.58,246a1.29,1.29,0,1,0-1.07-1.48A1.29,1.29,0,0,0,160.58,246Z"/><path class="cls-3" d="M156.08,244A1.29,1.29,0,1,0,154.6,245,1.28,1.28,0,0,0,156.08,244Z"/><path class="cls-3" d="M150.19,243a1.29,1.29,0,1,0-1.49,1.07A1.29,1.29,0,0,0,150.19,243Z"/><path class="cls-3" d="M142.73,243.09a1.29,1.29,0,1,0-1.07-1.48A1.29,1.29,0,0,0,142.73,243.09Z"/><path class="cls-3" d="M138.22,241a1.29,1.29,0,0,0-2.55-.42,1.29,1.29,0,1,0,2.55.42Z"/><path class="cls-3" d="M132.32,240.07a1.29,1.29,0,1,0-1.48,1.07A1.29,1.29,0,0,0,132.32,240.07Z"/><path class="cls-3" d="M124.87,240.16a1.29,1.29,0,1,0-1.07-1.48A1.29,1.29,0,0,0,124.87,240.16Z"/><path class="cls-3" d="M120.37,238.12a1.29,1.29,0,1,0-1.48,1.06A1.29,1.29,0,0,0,120.37,238.12Z"/><path class="cls-3" d="M114.48,237.15a1.29,1.29,0,1,0-1.49,1.06A1.29,1.29,0,0,0,114.48,237.15Z"/><path class="cls-3" d="M107,237.23a1.29,1.29,0,1,0-1.07-1.48A1.28,1.28,0,0,0,107,237.23Z"/><path class="cls-3" d="M102.77,235.23a1.3,1.3,0,0,0-1.07-1.48,1.29,1.29,0,1,0,1.07,1.48Z"/><path class="cls-3" d="M96.87,234.26a1.29,1.29,0,1,0-1.49,1.07A1.29,1.29,0,0,0,96.87,234.26Z"/><path class="cls-3" d="M89.41,234.35a1.29,1.29,0,1,0-1.07-1.48A1.29,1.29,0,0,0,89.41,234.35Z"/><path class="cls-3" d="M84.92,232.3a1.29,1.29,0,1,0-1.49,1.07A1.3,1.3,0,0,0,84.92,232.3Z"/><path class="cls-3" d="M79,231.34a1.29,1.29,0,1,0-1.48,1.06A1.29,1.29,0,0,0,79,231.34Z"/><path class="cls-3" d="M71.56,231.42A1.28,1.28,0,0,0,73,230.36a1.29,1.29,0,1,0-1.48,1.06Z"/><path class="cls-3" d="M207.88,223.34a1.29,1.29,0,1,0-.84-1.63A1.3,1.3,0,0,0,207.88,223.34Z"/><path class="cls-3" d="M209.7,217.64a1.28,1.28,0,0,0,1.62-.83,1.29,1.29,0,1,0-2.46-.79A1.28,1.28,0,0,0,209.7,217.64Z"/><path class="cls-3" d="M210.7,210.25a1.3,1.3,0,1,0,2.47.79,1.3,1.3,0,0,0-2.47-.79Z"/><path class="cls-3" d="M213.39,206.11a1.29,1.29,0,1,0-.84-1.62A1.29,1.29,0,0,0,213.39,206.11Z"/><path class="cls-3" d="M215.21,200.42a1.3,1.3,0,0,0,1.62-.84,1.29,1.29,0,0,0-2.46-.79A1.3,1.3,0,0,0,215.21,200.42Z"/><path class="cls-3" d="M216.21,193a1.29,1.29,0,1,0,1.63-.84A1.29,1.29,0,0,0,216.21,193Z"/><path class="cls-3" d="M218.9,188.87a1.29,1.29,0,1,0-.84-1.63A1.29,1.29,0,0,0,218.9,188.87Z"/><path class="cls-3" d="M220.72,183.18a1.29,1.29,0,0,0,.78-2.46,1.28,1.28,0,0,0-1.62.83A1.3,1.3,0,0,0,220.72,183.18Z"/><path class="cls-3" d="M221.72,175.79a1.3,1.3,0,0,0,.84,1.62,1.29,1.29,0,0,0,.79-2.46A1.3,1.3,0,0,0,221.72,175.79Z"/><path class="cls-3" d="M224.4,171.64a1.29,1.29,0,1,0-.83-1.62A1.3,1.3,0,0,0,224.4,171.64Z"/><path class="cls-3" d="M226.22,166a1.29,1.29,0,1,0,.79-2.46,1.29,1.29,0,0,0-.79,2.46Z"/><path class="cls-3" d="M227.23,158.56a1.29,1.29,0,1,0,1.62-.84A1.29,1.29,0,0,0,227.23,158.56Z"/><path class="cls-3" d="M229.84,154.65A1.3,1.3,0,1,0,229,153,1.3,1.3,0,0,0,229.84,154.65Z"/><path class="cls-3" d="M231.66,149a1.28,1.28,0,0,0,1.62-.83,1.29,1.29,0,1,0-2.46-.79A1.28,1.28,0,0,0,231.66,149Z"/><path class="cls-3" d="M232.67,141.56a1.29,1.29,0,0,0,.83,1.63,1.3,1.3,0,1,0,.79-2.47A1.29,1.29,0,0,0,232.67,141.56Z"/><path class="cls-3" d="M235.35,137.42a1.29,1.29,0,1,0-.84-1.63A1.3,1.3,0,0,0,235.35,137.42Z"/><path class="cls-3" d="M237.17,131.73a1.3,1.3,0,0,0,1.62-.84,1.29,1.29,0,0,0-2.46-.79A1.3,1.3,0,0,0,237.17,131.73Z"/><path class="cls-3" d="M238.17,124.33A1.31,1.31,0,0,0,239,126a1.29,1.29,0,0,0,.79-2.46A1.3,1.3,0,0,0,238.17,124.33Z"/><path class="cls-3" d="M354.31,183.41a1.29,1.29,0,1,0-1.79.33A1.3,1.3,0,0,0,354.31,183.41Z"/><path class="cls-3" d="M349.4,180a1.29,1.29,0,1,0-1.8.33A1.29,1.29,0,0,0,349.4,180Z"/><path class="cls-3" d="M342.62,176.9a1.29,1.29,0,1,0-.33-1.79A1.28,1.28,0,0,0,342.62,176.9Z"/><path class="cls-3" d="M339.43,173.13a1.29,1.29,0,0,0-2.13-1.46,1.29,1.29,0,0,0,2.13,1.46Z"/><path class="cls-3" d="M334.51,169.74a1.29,1.29,0,1,0-1.79.33A1.29,1.29,0,0,0,334.51,169.74Z"/><path class="cls-3" d="M327.73,166.63a1.29,1.29,0,1,0-.33-1.8A1.3,1.3,0,0,0,327.73,166.63Z"/><path class="cls-3" d="M324.53,162.85a1.29,1.29,0,1,0-1.79.33A1.29,1.29,0,0,0,324.53,162.85Z"/><path class="cls-3" d="M319.61,159.46a1.29,1.29,0,1,0-1.79.33A1.29,1.29,0,0,0,319.61,159.46Z"/><path class="cls-3" d="M312.83,156.35a1.31,1.31,0,0,0,1.8-.33,1.29,1.29,0,0,0-.33-1.8,1.28,1.28,0,0,0-1.79.33A1.3,1.3,0,0,0,312.83,156.35Z"/><path class="cls-3" d="M309.65,152.58a1.29,1.29,0,1,0-1.8.33A1.3,1.3,0,0,0,309.65,152.58Z"/><path class="cls-3" d="M304.73,149.18a1.29,1.29,0,0,0-2.13-1.47,1.31,1.31,0,0,0,.33,1.8A1.29,1.29,0,0,0,304.73,149.18Z"/><path class="cls-3" d="M298,146.07a1.29,1.29,0,1,0-.33-1.79A1.29,1.29,0,0,0,298,146.07Z"/><path class="cls-3" d="M295,142.44a1.29,1.29,0,1,0-1.79.33A1.29,1.29,0,0,0,295,142.44Z"/><path class="cls-3" d="M290,139.05a1.29,1.29,0,1,0-1.79.33A1.29,1.29,0,0,0,290,139.05Z"/><path class="cls-3" d="M283.26,135.94a1.31,1.31,0,0,0,1.8-.33,1.29,1.29,0,1,0-1.8.33Z"/><path class="cls-3" d="M280.08,132.17a1.29,1.29,0,1,0-1.8.33A1.3,1.3,0,0,0,280.08,132.17Z"/><path class="cls-3" d="M275.16,128.77a1.29,1.29,0,1,0-1.8.33A1.29,1.29,0,0,0,275.16,128.77Z"/><path class="cls-3" d="M268.38,125.66a1.29,1.29,0,1,0-.33-1.79A1.29,1.29,0,0,0,268.38,125.66Z"/><path class="cls-3" d="M107.39,165.74a1.29,1.29,0,1,0,0,1.83A1.3,1.3,0,0,0,107.39,165.74Z"/><path class="cls-3" d="M103.25,170.06a1.29,1.29,0,1,0,0,1.83A1.28,1.28,0,0,0,103.25,170.06Z"/><path class="cls-3" d="M99.1,176.26a1.29,1.29,0,1,0-1.82,0A1.29,1.29,0,0,0,99.1,176.26Z"/><path class="cls-3" d="M94.88,178.8a1.29,1.29,0,0,0-1.79,1.87,1.29,1.29,0,0,0,1.79-1.87Z"/><path class="cls-3" d="M90.74,183.12a1.29,1.29,0,1,0,0,1.83A1.3,1.3,0,0,0,90.74,183.12Z"/><path class="cls-3" d="M86.59,189.32a1.29,1.29,0,1,0-1.83,0A1.29,1.29,0,0,0,86.59,189.32Z"/><path class="cls-3" d="M82.35,191.87a1.29,1.29,0,1,0,0,1.83A1.29,1.29,0,0,0,82.35,191.87Z"/><path class="cls-3" d="M78.22,196.19a1.29,1.29,0,1,0,0,1.83A1.29,1.29,0,0,0,78.22,196.19Z"/><path class="cls-3" d="M74.07,202.39a1.29,1.29,0,1,0-1.83,0A1.3,1.3,0,0,0,74.07,202.39Z"/><path class="cls-3" d="M69.84,204.93a1.29,1.29,0,1,0,0,1.83A1.3,1.3,0,0,0,69.84,204.93Z"/><path class="cls-3" d="M65.71,209.25a1.29,1.29,0,1,0,0,1.83A1.29,1.29,0,0,0,65.71,209.25Z"/><path class="cls-3" d="M61.56,215.45a1.29,1.29,0,1,0-1.83,0A1.3,1.3,0,0,0,61.56,215.45Z"/><circle class="cls-3" cx="246.34" cy="117.84" r="18.28" transform="translate(-15.69 40.98) rotate(-9.22)"/><path class="cls-4" d="M252.21,110.5a5.87,5.87,0,1,0-5.87,5.87A5.86,5.86,0,0,0,252.21,110.5Z"/><path class="cls-4" d="M246.34,116.37a10.26,10.26,0,0,1,10.27,10.26H236.08A10.26,10.26,0,0,1,246.34,116.37Z"/><circle class="cls-5" cx="119.71" cy="150.08" r="28.16" transform="translate(-19.17 17.54) rotate(-7.76)"/><circle class="cls-4" cx="119.71" cy="138.78" r="9.04"/><path class="cls-4" d="M119.71,147.82a15.82,15.82,0,0,1,15.82,15.81H103.89A15.81,15.81,0,0,1,119.71,147.82Z"/><circle class="cls-3" cx="49.2" cy="227.25" r="19.01" transform="translate(-22.15 5.95) rotate(-5.66)"/><path class="cls-4" d="M47.14,232.72a2.15,2.15,0,0,0,.55.75,2.59,2.59,0,0,0,.9.49,3.86,3.86,0,0,0,1.23.16,4.17,4.17,0,0,0,1.21-.18,2.59,2.59,0,0,0,1-.57,2.67,2.67,0,0,0,.73-1.06,4.28,4.28,0,0,0,.25-1.65l4.32-.07a7,7,0,0,1-.49,2.87,5.65,5.65,0,0,1-1.41,2,6.24,6.24,0,0,1-2,1.24,10.28,10.28,0,0,1-2.39.57l0,2.75-2.38,0,0-2.77a8.72,8.72,0,0,1-2.45-.52,5.84,5.84,0,0,1-1.9-1.11A5.06,5.06,0,0,1,43.08,234a5.67,5.67,0,0,1-.46-2.19,5.46,5.46,0,0,1,.44-2.34,5.41,5.41,0,0,1,1.3-1.75,9.21,9.21,0,0,1,2-1.34c.79-.39,1.66-.78,2.63-1.15a14.82,14.82,0,0,0,1.49-.67,4.24,4.24,0,0,0,1-.68,2.11,2.11,0,0,0,.51-.78,2.75,2.75,0,0,0,.13-.93,2.93,2.93,0,0,0-.16-1,1.92,1.92,0,0,0-.47-.76,2.24,2.24,0,0,0-.81-.51,3.42,3.42,0,0,0-1.16-.17,2.51,2.51,0,0,0-2,.86,3.64,3.64,0,0,0-.71,2.5l-4.32.07a7.68,7.68,0,0,1,.36-2.52,5.63,5.63,0,0,1,2.86-3.31,7.68,7.68,0,0,1,2.32-.72l0-3,2.39,0,0,3a8.39,8.39,0,0,1,2.44.54,6.25,6.25,0,0,1,1.87,1.14A5.07,5.07,0,0,1,56,219.94a5.73,5.73,0,0,1,.45,2.15,5.48,5.48,0,0,1-.44,2.35,5.3,5.3,0,0,1-1.3,1.75,8.68,8.68,0,0,1-2,1.32A27.12,27.12,0,0,1,50,228.63a10.5,10.5,0,0,0-1.43.62,4.38,4.38,0,0,0-1,.68,2.16,2.16,0,0,0-.52.81,2.76,2.76,0,0,0-.15,1A2.44,2.44,0,0,0,47.14,232.72Z"/><path class="cls-6" d="M183,607.83,455.25,861.1,595.43,728.34C621.68,754,662.21,793.69,703,833.48c27.87,27.2,50.43,49.18,68.71,67L899,900.29c-35.32-33.43-177.51-172.35-273.31-266.24l-29.29-28.71L454.72,739.55,246.68,546Z"/><polygon class="cls-6" points="280.41 515.57 152.08 650.6 126.42 496.49 280.41 515.57"/><g id="man"><path class="cls-7" d="M708,388l-24.18,45.87-12.39-4.51,4,12.24-24.24,73S637.83,421.82,708,388Z"/><path class="cls-7" d="M667.69,428.54S641,527.09,638.38,621.13c0,0,22.17,7.73,57,1.61C730.4,616.59,667.69,428.54,667.69,428.54Z"/><path class="cls-8" d="M539.69,565.19c7.17-.13,17.27.75,20.61-2.9a10.07,10.07,0,0,1,8.24-3.53l-.9-4.73-1.08-5.65s-.41-.51-1.88-.5c0,0-5.2.23-7.68-.66-6-2.16-30.08,12.24-29.27,16.24C528,565,536.63,565.25,539.69,565.19Z"/><path class="cls-7" d="M670.71,426.6s-40.61,83.88-53.18,92.88S560.17,548,560.17,548a11.4,11.4,0,0,0-.09,6.88c1.13,4.25,3.37,5.45,3.37,5.45s62.63-5.59,77.19-14.65,46.67-45.2,46.67-45.2Z"/><path class="cls-7" d="M789.56,896.88h24c3-1.64,5.72-5.4,6.57-11,1.18-7.74,9.85-12,11.73-18.3s-7.74-15.24-7.74-15.24l-1.61-2.08-1.67-2.15-16,3.76s-.39,3.8-.63,8.64a107.29,107.29,0,0,0-.07,11.06c.47,8.44-2.36,17.54-9.87,19.18C788.81,892,789.05,895.25,789.56,896.88Z"/><path class="cls-7" d="M650.08,896.88h55c2.64-3.22,1.66-15.13,1.26-19-.08-.79-.13-1.24-.13-1.24s-18.77-15-21.35-3.52c-.08.36-.18.71-.28,1.06-3.25,10.75-17.82,15.64-26.23,17C652.85,892.06,650.83,894.9,650.08,896.88Z"/><path class="cls-9" d="M660.55,590.08s2.85,35.56,6.2,78.3c4.56,58.06,10,129.38,10.57,142.89.94,23.46,4.7,61,4.7,61s8.91,8.92,26.74,5.16c0,0,15.89-53.57,20.43-110.25l.21-2.8c4.22-57.71,10.78-179.21,10.78-179.21Z"/><path class="cls-10" d="M660.55,590.08s2.85,35.56,6.2,78.3l62.44,98.79.21-2.8c4.22-57.71,10.78-179.21,10.78-179.21Z"/><path class="cls-9" d="M673.57,594.31s51.37,128.77,85.15,189.29S803.05,861,803.05,861s19.35-7.74,21.11-13c0,0-12.92-116.84-35.54-145.32-12.78-16.09-27.79-64.38-28.5-81.27s-4.57-50.32-4.57-50.32Z"/><path class="cls-11" d="M686.36,406.58c20.07,6.33,54.8-10.76,54.8-10.76s-18.5-13.89-17.53-42.77L708.1,365.56l-10.54,8.49a124.82,124.82,0,0,0,1.2,13.79c.21,1.6.45,3.33.74,5.17a3.71,3.71,0,0,1-1.68,3.75A47.23,47.23,0,0,0,686.36,406.58Z"/><path class="cls-4" d="M658.34,593.05a3.25,3.25,0,0,0,2.11.8c7.54-.1,29.52,4.08,48.12,2.17,15.68-1.5,29.56-6.15,44.46-12.83,2-.88,6.54-3.32,6.43-5.53-.06-2.42-.3-5.93-.61-10.36-1.05-15.38-2.89-41.84-1.1-72.37.33-5.68.49-11.32.52-16.87.15-41.37-8-77.76-24.54-90.08,0,0-11.49,6.45-19.45,9-7.79,2.49-11.81,2-15.85-.69,0,0-7.87,3.91-11.24,7.58-7.79,8.49-13.87,19.76-17.89,35.95-3.42,13.77-6.62,33.85-7.73,59.58C661.07,511.05,657.84,592.64,658.34,593.05Z"/><path class="cls-12" d="M755.83,456.34,733.73,388s-53.05,20-55.51,94.92c-1,17.07-5.06,87,2.35,145,0,0,41.33,16.1,92-15.67Z"/><path class="cls-13" d="M697.56,374.05a124.82,124.82,0,0,0,1.2,13.79c11.68-2,24.93-20.89,24.93-20.89a37,37,0,0,0-15.59-1.39Z"/><path class="cls-11" d="M688.87,373.51s36.15,6,39.55-16.56,10.34-37-12.6-41.79-28.73,3.15-31.7,10.4S679.55,371.37,688.87,373.51Z"/><path class="cls-7" d="M847.52,665.54,773.7,676.06a17.7,17.7,0,0,1-20-15l-4.56-32a17.7,17.7,0,0,1,15-20L838,598.61a17.7,17.7,0,0,1,20,15l4.56,32A17.7,17.7,0,0,1,847.52,665.54Z"/><path class="cls-12" d="M758.91,627.68,763.52,660A17.76,17.76,0,0,0,774,673.75a17.44,17.44,0,0,0,5.75,1.45h0a17.69,17.69,0,0,0,3.84-.12l73.69-10.51a17.76,17.76,0,0,0,15-20l-4.61-32.36a17.76,17.76,0,0,0-20-15l-25.38,3.61-1-6.9a5.85,5.85,0,0,0-6.61-5l-2.78.39-15.44,2.2-3.83.55a5.84,5.84,0,0,0-5,6.61l1,6.9-14.7,2.1a15.48,15.48,0,0,0-1.7.33h0A17.76,17.76,0,0,0,760,618.66h0A17.5,17.5,0,0,0,758.91,627.68Zm59.73-26.4L792.27,605l-1-6.91a2.2,2.2,0,0,1,1.86-2.46l6.62-.95L811.91,593l3.27-.47a2.42,2.42,0,0,1,.66,0,2.19,2.19,0,0,1,1.81,1.85Z"/><path class="cls-11" d="M791.38,570.28s3.88,5.17,4,7.23c1,14-5.35,15.92,11.2,23.69,0,0,7.06,2.69,7.18-2.79s-4.9-5.57-4-13.25c1.06-8.86,1-8.94-4.86-13.56l-3.85-6.36Z"/><path class="cls-12" d="M801.24,574.24a57,57,0,0,1-13,.72s-18.5-57.16-20.89-62.38-55-67-55-67L733.73,388s12.51,7.32,25.74,30.14c16.33,28.19,34.29,73.58,37.48,81,9.55,22.06,12.86,71.52,12.86,71.52A23.93,23.93,0,0,1,801.24,574.24Z"/><path class="cls-12" d="M728.45,354.78s-3.71-.63-3.12-5.74.6-11.79-3.56-10.54-4.36,4.57-6.07,2.63S714,331,701.6,330.43s-17.39,3.73-23.14,1.21-6.05-11.23-6.05-11.23,1.64,3.1,4.11,4.09c0,0-9.6-13.12,1.51-22.11s22.43-3.11,28.85-2.72c14.16.86,23.31,1.71,27.93,11S737.53,345.82,728.45,354.78Z"/><path class="cls-11" d="M797.5,576.43s-3.74,3.89-4,5.51c-.76,5.2-2.49,7.44-1.62,8,1.8,1.17,4.2-2.67,5.34-6.13A15.84,15.84,0,0,0,797.5,576.43Z"/><path class="cls-7" d="M733.73,388l-24.17,45.87-12.4-4.51,4,12.24-24.23,73S663.54,421.82,733.73,388Z"/></g><path class="cls-4" d="M686.36,360.7s1.41,3.73,4.93,3.83,6.23-3.32,6.23-3.32S689.88,359.44,686.36,360.7Z"/><path class="cls-9" d="M497.7,706.76l73.41-17a17.88,17.88,0,0,0,13.35-21.39l-7.37-31.82a17.88,17.88,0,0,0-21.4-13.34l-73.41,17a17.89,17.89,0,0,0-13.35,21.39l7.38,31.82A17.87,17.87,0,0,0,497.7,706.76Z"/><path class="cls-10" d="M563.1,630.66h0a18,18,0,0,0-15.42-5.61h0a15,15,0,0,0-1.73.31l-14.62,3.39-1.59-6.87a5.9,5.9,0,0,0-7.08-4.42l-3.82.88-15.35,3.56-2.76.64a5.91,5.91,0,0,0-4.42,7.09l1.59,6.86-25.23,5.85a18,18,0,0,0-13.4,21.47L466.71,696a18,18,0,0,0,21.47,13.39l73.29-17a17.24,17.24,0,0,0,3.66-1.28h0a17.92,17.92,0,0,0,9.72-20.19l-7.45-32.18A17.77,17.77,0,0,0,563.1,630.66Zm-63.2-1.86a2.2,2.2,0,0,1,1-2.4,2.11,2.11,0,0,1,.62-.24l3.26-.76,12.08-2.8,6.58-1.52a2.2,2.2,0,0,1,2.65,1.65l1.59,6.86-26.22,6.07Z"/><path class="cls-11" d="M515,589.26s-2.22,7.86-1.46,10.37c5.16,17,14.08,28.08-9.89,25.22,0,0,1-1-3.6-9.62-5.29-10-5.21-10.11-.46-18.22l1.64-9.27Z"/><path class="cls-11" d="M545.12,569c-7.24-.44-16.06-2.33-19.27-6.16a17.79,17.79,0,0,0-7.29-5.5l1.11-4.74L521,547s.44-.5,1.92-.42c0,0,5.68,1.28,7.79-.34s6-.64,8.33.93c3,2,7.09,1.69,7,2.67,0,0-6,2.94-5.43,3.43,5.48,4.87,19.91,6.8,19,10.6C559.2,565.35,548.2,569.23,545.12,569Z"/><path class="cls-11" d="M444.26,384.15l0,3.93s1.07,12.3-14.08,14.1-27.57,1.57-27.16-7.93c1.36-7.35,3.81-18.76,3.91-24.84a42.72,42.72,0,0,0-.54-7.37l29.36-.59,8.64,1.42Z"/><path class="cls-8" d="M444.37,362.87l-.11,21.28a24.8,24.8,0,0,1-10.58,2.33c-13.49,0-22.21-9.89-26.77-17.07a42.72,42.72,0,0,0-.54-7.37l29.36-.59Z"/><path class="cls-11" d="M404.12,357.32c3.41,18.33,27.06,17.73,37.28,16.57,2.88-.32,4.69-.68,4.69-.68,3.24-.87,5.05-6,5.89-12.67,1.67-13.25-.44-32.69-2.67-37.66-3.37-7.48-9.71-15.57-33.53-9.73S399.75,333.83,404.12,357.32Z"/><path class="cls-7" d="M384.77,900.05h33.52a82.12,82.12,0,0,0-2.68-12,33.74,33.74,0,0,0-1.9-4.83c-3.26-6.51-24-2.37-24-2.37s-1.92,1.65-3.43,7.94A66.78,66.78,0,0,0,384.77,900.05Z"/><path class="cls-7" d="M486.05,889.47c.09,4.56.67,8.88,2.32,10.58h66.3c-.84-2.4-3.23-6-10-7.11-7.73-1.25-19.79-5-26.82-12.42a20,20,0,0,1-5.2-9.4c-3.12-13.89-25.79,4.25-25.79,4.25A113.58,113.58,0,0,0,486.05,889.47Z"/><path class="cls-14" d="M442,739.36a103.74,103.74,0,0,1,1.66,12.24c2.11,41.11,34.61,135.11,40.42,137.3,9,3.4,23.16-3.82,30.57-6.18a6.34,6.34,0,0,0,4.45-7.22c-16.09-74-22-180.52-24.16-243.59-1.08-31.77-6.54-53.72-6.54-53.72s-79.26-21.14-79.73,5.61C408.22,607.47,434.89,700.31,442,739.36Z"/><path class="cls-15" d="M442,739.36,494.9,631.91c-1.08-31.77-6.54-53.72-6.54-53.72s-79.26-21.14-79.73,5.61C408.22,607.47,434.89,700.31,442,739.36Z"/><path class="cls-14" d="M459.59,583.89l-41.9,303.68s-18.4,4.44-32.71.89c0,0-12.27-161.51-11.24-200.56S364.93,583.42,376,576.2,459.59,583.89,459.59,583.89Z"/><path class="cls-7" d="M450.23,325.75c-6.55,2.06-20.39,0-26.18,4.64s-.27,12.4-6.88,15.15h0a3.26,3.26,0,0,1-3.8-.95c-1.83-2.29-4.36-4.56-6.68-3.62-1.9.78-2,3.23-1.16,5.62a6.61,6.61,0,0,1-.71,6,3.32,3.32,0,0,0-.72,2.42c.55,3,2.05,7,2.6,9l.16,2.11s-11.08-12-15.75-22.08c-3.2-6.92-3.13-32.8,12.53-40.37a.4.4,0,0,1-.15-.17c-.34-.6-1.28-.46-1.28-.46a7,7,0,0,1,3.43-.23s0-.13.23-.27a5.51,5.51,0,0,1,2.12-3.14,6.1,6.1,0,0,0-1,2.48c4.12-2.17,16.78-7,26.82-2.61A83.07,83.07,0,0,0,451,304.59a7.2,7.2,0,0,1,5.82,7.33C456.65,316.89,454.91,324,450.23,325.75Z"/><path class="cls-16" d="M399.43,399.53l9.64,207s80.52,1.32,78.22-16.9-29-183.74-29-183.74"/><path class="cls-12" d="M426,529.19s-4.09,55.28-11.94,90c0,0-47,2.49-58.14-15.65,0,0,8.83-74.68,8.83-89.83,0-5.33-.41-12.56-1.06-20.66-1-12.25-2.49-26.45-3.93-38.82-2-17.22-3.84-30.91-3.84-30.91l38.74-31.48Z"/><path class="cls-12" d="M519.2,594.6s-8.77,5.48-22.57,3.64c-5,12.32-16.88,16.51-16.88,15.4,0-.14-2.66-23.28-5.8-50.54q-.46-4.1-.95-8.27c0-.24-.06-.48-.08-.72-.53-4.56-1.06-9.18-1.59-13.78-3.78-32.84-7.42-64.32-7.42-64.32-8.24-50.43-15.21-83.76-15.21-83.76,17.58,1.82,29.43,8.09,34.17,16.28,14,24.32,24.19,85.14,30.14,130.67,0,.11,0,.23,0,.34,1,7.86,1.93,15.26,2.7,21.93,0,.42.09.83.14,1.24C518.08,581.78,519.2,594.6,519.2,594.6Z"/><path class="cls-4" d="M437.69,360.33s.76,2.37,6.73,1.5c0,0,5-.72,4.64-3.36C449.06,358.47,444,357,437.69,360.33Z"/><path class="cls-17" d="M397.14,391.58c-.09-2,9.26-4.7,9.26-4.7s10.71,14.85,28.36,15.1c0,0-5,9.79-11,12.32C423.8,414.3,397.73,403.31,397.14,391.58Z"/><path class="cls-17" d="M434.76,401.64s9.34-5.55,9.37-11.55c0,0,6-.76,8.68,2.17,0,0,2.21,10.29-.73,16.27C452.08,408.53,438.62,406.48,434.76,401.64Z"/><path class="cls-9" d="M428.41,400.74l12.67-3a1.93,1.93,0,0,1,1.62,2.21c-.05,2.06-3.57,8.09-5.14,8.57S425.41,404.92,428.41,400.74Z"/><path class="cls-16" d="M398.62,390.56c-.1-2,6.23-6,6.23-6s12.26,14.32,29.91,14.58c0,0-5,9.79-11,12.32C423.8,411.42,399.2,402.29,398.62,390.56Z"/><path class="cls-16" d="M434.76,399.1s9.45-5,9.48-11c0,0,5.71,2.51,8.34,5.44,0,0,2.44,6.5-.5,12.48C452.08,406,438.62,404,434.76,399.1Z"/><path class="cls-9" d="M457.93,572.66a26.93,26.93,0,0,1-6.38,15.57l-5.68,6.41a2.9,2.9,0,0,1-4.81-.42l-6.85-10.75a16.5,16.5,0,0,1-2.36-10.23c.73-8.21,2.09-24,3.21-39.27.91-12.36,1.66-24.37,1.78-31.67.38-23.31-2.68-97.59-2.68-97.59l4.56.24s11,28.72,16.59,67.9c1.37,9.65,2.4,19.92,2.85,30.56C458.16,503.41,460.13,545.84,457.93,572.66Z"/><path class="cls-9" d="M457.93,572.66a26.93,26.93,0,0,1-6.38,15.57l-5.68,6.41a2.9,2.9,0,0,1-4.81-.42l-6.85-10.75a16.5,16.5,0,0,1-2.36-10.23c.73-8.21,2.09-24,3.21-39.27,12.77-17.5,18.1-41.53,20.25-61.12,1.37,9.65,2.4,19.92,2.85,30.56C458.16,503.41,460.13,545.84,457.93,572.66Z"/><path class="cls-7" d="M404.85,384.52S430,489.62,426,529.21c0,0-9.23-42.31-31.43-77,0,0,8.1-7.13,7.66-9.76a27.79,27.79,0,0,0-11.85-.58s.64-45.3,4.28-50.09S404.85,384.52,404.85,384.52Z"/><path class="cls-7" d="M444.24,388.08c-3.76.31,24.87,102.7,27,135.53,0,0-2.51-58.57-2.27-75.46,0,0-10.42-5.51-10.42-7.45s11.12-7.17,11.12-7.17-7-36.07-10.88-40S444.24,388.08,444.24,388.08Z"/><path class="cls-11" d="M496.65,602.41s-1.74,2.35-.64,8.26.5,9.17,2,8.15,4.68-8.11,4.68-8.11Z"/><path class="cls-7" d="M422.9,545.38C393.69,541,374.15,513.72,363.66,493c-1-12.25-2.49-26.45-3.93-38.82l6.83-19.5Z"/><path class="cls-7" d="M515.89,562.71c-5.82,1.34-23.47,4.64-41.94.39q-.46-4.1-.95-8.27c0-.24-.06-.48-.08-.72q.9-3.55,1.82-7.11c10.45,3.74,33.82,11.94,41,14.47C515.8,561.89,515.84,562.3,515.89,562.71Z"/><path class="cls-12" d="M394.62,391.82s-25.67,3.24-37.39,19.6,13.45,105.43,65.67,134c25.12,13.72,97.61,16.81,97.61,16.81s4,.4,5.56-7.62a32.18,32.18,0,0,0,0-7.57s-82.51-30.94-89.76-36.89S394.62,391.82,394.62,391.82Z"/><path class="cls-9" d="M883.41,237.42a31,31,0,0,1-31,31h-51l-18,18V266.77a31,31,0,0,1,10-60.35h59A31,31,0,0,1,883.41,237.42Z"/><circle class="cls-4" cx="795.91" cy="236.42" r="7"/><circle class="cls-4" cx="849.91" cy="236.42" r="7"/><circle class="cls-4" cx="822.91" cy="236.42" r="7"/><path class="cls-9" d="M214.41,311.21a28.82,28.82,0,0,0,28.8,28.8h47.37l16.71,16.71V338.47A28.79,28.79,0,0,0,298,282.42h-54.8A28.79,28.79,0,0,0,214.41,311.21Z"/><circle class="cls-4" cx="295.68" cy="310.28" r="6.5"/><circle class="cls-4" cx="245.53" cy="310.28" r="6.5"/><circle class="cls-4" cx="270.61" cy="310.28" r="6.5"/><path class="cls-18" d="M240.49,378.42H57C59.27,370.71,68,365,78.41,365A25.65,25.65,0,0,1,92,368.71c8.66-19.4,32-33.29,59.39-33.29,26.86,0,49.79,13.34,58.85,32.13a26.59,26.59,0,0,1,9.15-1.59C229.37,366,237.78,371.21,240.49,378.42Z"/><path class="cls-19" d="M264.42,889.24v6a2.08,2.08,0,0,1-.47,1.29,2.75,2.75,0,0,1-1.29.86,3.66,3.66,0,0,1-.5.12,3.75,3.75,0,0,1-.48,0H148.54a2.58,2.58,0,0,1-2.73-2.18v-6.2a2.58,2.58,0,0,1,2.73-2.18H261.68a2.52,2.52,0,0,1,.48,0,2,2,0,0,1,.5.12A2.68,2.68,0,0,1,264,888,2,2,0,0,1,264.42,889.24Z"/><path class="cls-9" d="M208.86,897.5H148.25a2.39,2.39,0,0,1-2.44-2.18v-6.2a2.39,2.39,0,0,1,2.44-2.18h53.17A18.53,18.53,0,0,0,208.86,897.5Z"/><rect class="cls-9" x="249.36" y="886.94" width="1.29" height="10.56"/><rect class="cls-9" x="245.01" y="886.94" width="1.29" height="10.56"/><rect class="cls-9" x="239.79" y="886.94" width="1.29" height="10.56"/><rect class="cls-9" x="231.79" y="886.94" width="1.29" height="10.56"/><rect class="cls-9" x="223.33" y="886.94" width="1.29" height="10.56"/><rect class="cls-9" x="210.36" y="886.94" width="1.29" height="10.56"/><rect class="cls-9" x="198.22" y="886.94" width="1.29" height="10.56"/><rect class="cls-9" x="187.37" y="886.94" width="1.29" height="10.56"/><rect class="cls-9" x="253.51" y="886.94" width="1.29" height="10.56"/><rect class="cls-9" x="256.24" y="886.94" width="1.29" height="10.56"/><rect class="cls-9" x="258.89" y="886.94" width="1.29" height="10.56"/><path class="cls-9" d="M262.16,887v10.49a3.75,3.75,0,0,1-.48,0h-.8V886.94h.8A2.52,2.52,0,0,1,262.16,887Z"/><path class="cls-9" d="M264,888v8.53a2.75,2.75,0,0,1-1.29.86V887.1A2.68,2.68,0,0,1,264,888Z"/><path class="cls-19" d="M252.32,878.68v6a2,2,0,0,1-.47,1.29,2.77,2.77,0,0,1-1.78,1,2.63,2.63,0,0,1-.49,0H136.45a2.59,2.59,0,0,1-2.74-2.18v-6.2a2.59,2.59,0,0,1,2.74-2.18H249.89l.1,0h.08a2.78,2.78,0,0,1,.5.11l.07,0,.07,0,.14.06.07,0,.07,0,.13.07.14.09.11.07h0l.06.06.2.17.06.05.05.06.1.11A2,2,0,0,1,252.32,878.68Z"/><path class="cls-9" d="M196.76,886.94H136.15a2.39,2.39,0,0,1-2.44-2.18v-6.2a2.39,2.39,0,0,1,2.44-2.18h53.17c0,.09.05.17.07.26A18.53,18.53,0,0,0,196.76,886.94Z"/><rect class="cls-9" x="237.27" y="876.38" width="1.29" height="10.56"/><rect class="cls-9" x="232.92" y="876.38" width="1.29" height="10.56"/><rect class="cls-9" x="227.7" y="876.38" width="1.29" height="10.56"/><rect class="cls-9" x="219.7" y="876.38" width="1.29" height="10.56"/><rect class="cls-9" x="211.24" y="876.38" width="1.29" height="10.56"/><rect class="cls-9" x="198.26" y="876.38" width="1.29" height="10.56"/><rect class="cls-9" x="186.12" y="876.38" width="1.29" height="10.56"/><rect class="cls-9" x="175.28" y="876.38" width="1.29" height="10.56"/><rect class="cls-9" x="241.41" y="876.38" width="1.29" height="10.56"/><rect class="cls-9" x="244.15" y="876.38" width="1.29" height="10.56"/><rect class="cls-9" x="246.79" y="876.38" width="1.29" height="10.56"/><path class="cls-9" d="M250.07,876.42V886.9a2.63,2.63,0,0,1-.49,0h-.8V876.38h.8A2.63,2.63,0,0,1,250.07,876.42Z"/><path class="cls-9" d="M251.85,877.39v8.54a2.77,2.77,0,0,1-1.28.86V876.53A2.77,2.77,0,0,1,251.85,877.39Z"/><path class="cls-19" d="M258.17,868.38v6a2,2,0,0,1-.47,1.28,2.68,2.68,0,0,1-1.29.86,2.15,2.15,0,0,1-.5.12,2.59,2.59,0,0,1-.48,0H142.29a3.26,3.26,0,0,1-1.26-.26,2.34,2.34,0,0,1-1.46-1.82.34.34,0,0,1,0-.1s0-.08,0-.12v-6s0-.08,0-.12a2.58,2.58,0,0,1,2.73-2.18H255.43l.48,0a4.05,4.05,0,0,1,.5.12,2.75,2.75,0,0,1,1.29.86A2.08,2.08,0,0,1,258.17,868.38Z"/><path class="cls-9" d="M202.61,876.64H142a2.64,2.64,0,0,1-1.13-.26,2.31,2.31,0,0,1-1.3-1.82.34.34,0,0,1,0-.1s0-.08,0-.12v-6s0-.08,0-.12a2.39,2.39,0,0,1,2.44-2.18h53.17a18.53,18.53,0,0,0,7.07,10.3Z"/><rect class="cls-9" x="243.11" y="866.08" width="1.29" height="10.56"/><rect class="cls-9" x="238.76" y="866.08" width="1.29" height="10.56"/><rect class="cls-9" x="233.54" y="866.08" width="1.29" height="10.56"/><rect class="cls-9" x="225.54" y="866.08" width="1.29" height="10.56"/><rect class="cls-9" x="217.08" y="866.08" width="1.29" height="10.56"/><rect class="cls-9" x="204.11" y="866.08" width="1.29" height="10.56"/><rect class="cls-9" x="191.97" y="866.08" width="1.29" height="10.56"/><rect class="cls-9" x="181.12" y="866.08" width="1.29" height="10.56"/><rect class="cls-9" x="247.26" y="866.08" width="1.29" height="10.56"/><rect class="cls-9" x="249.99" y="866.08" width="1.29" height="10.56"/><rect class="cls-9" x="252.64" y="866.08" width="1.29" height="10.56"/><path class="cls-9" d="M255.91,866.11V876.6a2.59,2.59,0,0,1-.48,0h-.8V866.08h.8Z"/><path class="cls-9" d="M257.7,867.09v8.53a2.68,2.68,0,0,1-1.29.86V866.23A2.75,2.75,0,0,1,257.7,867.09Z"/><path class="cls-19" d="M260.88,857.81v6a2.08,2.08,0,0,1-.47,1.28,2.68,2.68,0,0,1-1.29.86,2.8,2.8,0,0,1-.5.12,3.88,3.88,0,0,1-.48,0H145a2.58,2.58,0,0,1-2.73-2.18s0-.08,0-.12v-6s0-.07,0-.11a2.53,2.53,0,0,1,2.41-2.17H258.14l.48,0a4.05,4.05,0,0,1,.5.12,2.68,2.68,0,0,1,1.29.86A2.08,2.08,0,0,1,260.88,857.81Z"/><path class="cls-9" d="M205.32,866.08H144.71a2.39,2.39,0,0,1-2.44-2.18s0-.08,0-.12v-6s0-.07,0-.11a2.37,2.37,0,0,1,2.15-2.17h53.46A18.51,18.51,0,0,0,205.32,866.08Z"/><rect class="cls-9" x="245.82" y="855.51" width="1.29" height="10.56"/><rect class="cls-9" x="241.47" y="855.51" width="1.29" height="10.56"/><rect class="cls-9" x="236.25" y="855.51" width="1.29" height="10.56"/><rect class="cls-9" x="228.25" y="855.51" width="1.29" height="10.56"/><rect class="cls-9" x="219.79" y="855.51" width="1.29" height="10.56"/><rect class="cls-9" x="206.82" y="855.51" width="1.29" height="10.56"/><rect class="cls-9" x="194.68" y="855.51" width="1.29" height="10.56"/><rect class="cls-9" x="183.83" y="855.51" width="1.29" height="10.56"/><rect class="cls-9" x="249.97" y="855.51" width="1.29" height="10.56"/><rect class="cls-9" x="252.7" y="855.51" width="1.29" height="10.56"/><rect class="cls-9" x="255.35" y="855.51" width="1.29" height="10.56"/><path class="cls-9" d="M258.62,855.55V866a3.88,3.88,0,0,1-.48,0h-.8V855.51h.8A3.88,3.88,0,0,1,258.62,855.55Z"/><path class="cls-9" d="M260.41,856.53v8.53a2.68,2.68,0,0,1-1.29.86V855.67A2.68,2.68,0,0,1,260.41,856.53Z"/><path class="cls-19" d="M252.56,847.27v6a2,2,0,0,1-.47,1.29,2.75,2.75,0,0,1-1.29.86,2.61,2.61,0,0,1-.5.11l-.15,0H136.68a2.58,2.58,0,0,1-2.73-2.18v-6.2a.38.38,0,0,1,0-.1,2.49,2.49,0,0,1,2-2l.08,0a3.81,3.81,0,0,1,.59,0h113.5l.12,0a2.61,2.61,0,0,1,.5.11,2.75,2.75,0,0,1,1.29.86A2,2,0,0,1,252.56,847.27Z"/><path class="cls-9" d="M197,855.53H136.39a2.39,2.39,0,0,1-2.44-2.18v-6.2a.38.38,0,0,1,0-.1,2.35,2.35,0,0,1,1.89-2l.11,0a2,2,0,0,1,.43,0h53.17a.19.19,0,0,0,0,.07,18.55,18.55,0,0,0,7.4,10.48Z"/><rect class="cls-9" x="237.51" y="844.97" width="1.29" height="10.56"/><rect class="cls-9" x="233.15" y="844.97" width="1.29" height="10.56"/><rect class="cls-9" x="227.93" y="844.97" width="1.29" height="10.56"/><rect class="cls-9" x="219.93" y="844.97" width="1.29" height="10.56"/><rect class="cls-9" x="211.47" y="844.97" width="1.29" height="10.56"/><rect class="cls-9" x="198.5" y="844.97" width="1.29" height="10.56"/><rect class="cls-9" x="186.36" y="844.97" width="1.29" height="10.56"/><rect class="cls-9" x="175.52" y="844.97" width="1.29" height="10.56"/><rect class="cls-9" x="241.65" y="844.97" width="1.29" height="10.56"/><rect class="cls-9" x="244.39" y="844.97" width="1.29" height="10.56"/><rect class="cls-9" x="247.03" y="844.97" width="1.29" height="10.56"/><path class="cls-9" d="M250.3,845v10.48a2.45,2.45,0,0,1-.48,0H249V845h.8A2.45,2.45,0,0,1,250.3,845Z"/><path class="cls-9" d="M252.09,846v8.54a2.75,2.75,0,0,1-1.29.86V845.12A2.75,2.75,0,0,1,252.09,846Z"/><path class="cls-19" d="M252.32,836.78v6a2,2,0,0,1-.47,1.28,2.7,2.7,0,0,1-1.28.86l-.39.1h0l-.1,0a3.91,3.91,0,0,1-.49,0H136.45a2.17,2.17,0,0,1-.36,0H136a2.5,2.5,0,0,1-2.25-2.15v-6.2a2.59,2.59,0,0,1,2.74-2.18H250.07a2.15,2.15,0,0,1,.5.12l.07,0,.07,0,.14,0,.14.07.13.07.14.09.11.07h0l.06.05.2.17.06.06.05,0,.1.12A2,2,0,0,1,252.32,836.78Z"/><path class="cls-9" d="M196.76,845H135.85a2.38,2.38,0,0,1-2.14-2.17v-6.2a2.39,2.39,0,0,1,2.44-2.18h53.17c0,.09.05.18.07.26A18.48,18.48,0,0,0,196.66,845Z"/><rect class="cls-9" x="237.27" y="834.48" width="1.29" height="10.56"/><rect class="cls-9" x="232.92" y="834.48" width="1.29" height="10.56"/><rect class="cls-9" x="227.7" y="834.48" width="1.29" height="10.56"/><rect class="cls-9" x="219.7" y="834.48" width="1.29" height="10.56"/><rect class="cls-9" x="211.24" y="834.48" width="1.29" height="10.56"/><rect class="cls-9" x="198.26" y="834.48" width="1.29" height="10.56"/><rect class="cls-9" x="186.12" y="834.48" width="1.29" height="10.56"/><rect class="cls-9" x="175.28" y="834.48" width="1.29" height="10.56"/><rect class="cls-9" x="241.41" y="834.48" width="1.29" height="10.56"/><rect class="cls-9" x="244.15" y="834.48" width="1.29" height="10.56"/><rect class="cls-9" x="246.79" y="834.48" width="1.29" height="10.56"/><path class="cls-9" d="M250.07,834.52V845a3.91,3.91,0,0,1-.49,0h-.8V834.48h.8A3.89,3.89,0,0,1,250.07,834.52Z"/><path class="cls-9" d="M251.85,835.5V844a2.7,2.7,0,0,1-1.28.86V834.64A2.7,2.7,0,0,1,251.85,835.5Z"/><path class="cls-19" d="M258.17,826.48v6a2.08,2.08,0,0,1-.47,1.29,2.75,2.75,0,0,1-1.29.86,4.05,4.05,0,0,1-.5.12l-.48,0H142.29a3.09,3.09,0,0,1-1.26-.26,2.34,2.34,0,0,1-1.46-1.81.41.41,0,0,1,0-.11s0-.08,0-.12v-6s0-.08,0-.12a2.58,2.58,0,0,1,2.73-2.18H255.43a2.59,2.59,0,0,1,.48,0,2.15,2.15,0,0,1,.5.12,2.68,2.68,0,0,1,1.29.86A2,2,0,0,1,258.17,826.48Z"/><path class="cls-9" d="M202.61,834.74H142a2.5,2.5,0,0,1-1.13-.26,2.31,2.31,0,0,1-1.3-1.81.41.41,0,0,1,0-.11s0-.08,0-.12v-6s0-.08,0-.12a2.39,2.39,0,0,1,2.44-2.18h53.17a18.47,18.47,0,0,0,7.07,10.3C202.36,834.57,202.48,834.66,202.61,834.74Z"/><rect class="cls-9" x="243.11" y="824.18" width="1.29" height="10.56"/><rect class="cls-9" x="238.76" y="824.18" width="1.29" height="10.56"/><rect class="cls-9" x="233.54" y="824.18" width="1.29" height="10.56"/><rect class="cls-9" x="225.54" y="824.18" width="1.29" height="10.56"/><rect class="cls-9" x="217.08" y="824.18" width="1.29" height="10.56"/><rect class="cls-9" x="204.11" y="824.18" width="1.29" height="10.56"/><rect class="cls-9" x="191.97" y="824.18" width="1.29" height="10.56"/><rect class="cls-9" x="181.12" y="824.18" width="1.29" height="10.56"/><rect class="cls-9" x="247.26" y="824.18" width="1.29" height="10.56"/><rect class="cls-9" x="249.99" y="824.18" width="1.29" height="10.56"/><rect class="cls-9" x="252.64" y="824.18" width="1.29" height="10.56"/><path class="cls-9" d="M255.91,824.22v10.49l-.48,0h-.8V824.18h.8A2.59,2.59,0,0,1,255.91,824.22Z"/><path class="cls-9" d="M257.7,825.2v8.53a2.75,2.75,0,0,1-1.29.86V824.34A2.68,2.68,0,0,1,257.7,825.2Z"/><path class="cls-19" d="M267.41,815.92v6a2,2,0,0,1-.47,1.29,2.77,2.77,0,0,1-1.78,1,2.63,2.63,0,0,1-.49,0H151.54A2.59,2.59,0,0,1,148.8,822v-6.2a2.52,2.52,0,0,1,2.41-2.16,1.83,1.83,0,0,1,.33,0H264.67a2.63,2.63,0,0,1,.49,0,2.77,2.77,0,0,1,1.78,1A2,2,0,0,1,267.41,815.92Z"/><path class="cls-9" d="M211.86,824.18H151.24A2.39,2.39,0,0,1,148.8,822v-6.2a2.37,2.37,0,0,1,2.15-2.16,1.46,1.46,0,0,1,.29,0h53.17v0A18.52,18.52,0,0,0,211.86,824.18Z"/><rect class="cls-9" x="252.36" y="813.62" width="1.29" height="10.56"/><rect class="cls-9" x="248.01" y="813.62" width="1.29" height="10.56"/><rect class="cls-9" x="242.79" y="813.62" width="1.29" height="10.56"/><rect class="cls-9" x="234.79" y="813.62" width="1.29" height="10.56"/><rect class="cls-9" x="226.33" y="813.62" width="1.29" height="10.56"/><rect class="cls-9" x="213.36" y="813.62" width="1.29" height="10.56"/><rect class="cls-9" x="201.21" y="813.62" width="1.29" height="10.56"/><rect class="cls-9" x="190.37" y="813.62" width="1.29" height="10.56"/><rect class="cls-9" x="256.5" y="813.62" width="1.29" height="10.56"/><rect class="cls-9" x="259.24" y="813.62" width="1.29" height="10.56"/><rect class="cls-9" x="261.88" y="813.62" width="1.29" height="10.56"/><path class="cls-9" d="M265.16,813.66v10.48a2.59,2.59,0,0,1-.48,0h-.81V813.62h.81A2.59,2.59,0,0,1,265.16,813.66Z"/><path class="cls-9" d="M266.94,814.63v8.54a2.77,2.77,0,0,1-1.28.86V813.77A2.77,2.77,0,0,1,266.94,814.63Z"/><path class="cls-19" d="M252.56,805.37v6a2,2,0,0,1-.47,1.28,2.68,2.68,0,0,1-1.29.86,3.66,3.66,0,0,1-.5.12l-.15,0H136.68a2.59,2.59,0,0,1-2.73-2.19v-6.2a2.58,2.58,0,0,1,2.73-2.18H250l.33,0a3.66,3.66,0,0,1,.5.12,1.34,1.34,0,0,1,.24.09l.14.06h0l.14.07h0l.12.08a1.89,1.89,0,0,1,.27.2.27.27,0,0,1,.08.07h0l0,0h0l.08.08.11.13A2,2,0,0,1,252.56,805.37Z"/><path class="cls-9" d="M197,813.64H136.39a2.4,2.4,0,0,1-2.44-2.19v-6.2a2.39,2.39,0,0,1,2.44-2.18h53.17c0,.08,0,.16.07.25a18.47,18.47,0,0,0,7.35,10.3Z"/><rect class="cls-9" x="237.51" y="803.07" width="1.29" height="10.56"/><rect class="cls-9" x="233.15" y="803.07" width="1.29" height="10.56"/><rect class="cls-9" x="227.93" y="803.07" width="1.29" height="10.56"/><rect class="cls-9" x="219.93" y="803.07" width="1.29" height="10.56"/><rect class="cls-9" x="211.47" y="803.07" width="1.29" height="10.56"/><rect class="cls-9" x="198.5" y="803.07" width="1.29" height="10.56"/><rect class="cls-9" x="186.36" y="803.07" width="1.29" height="10.56"/><rect class="cls-9" x="175.52" y="803.07" width="1.29" height="10.56"/><rect class="cls-9" x="241.65" y="803.07" width="1.29" height="10.56"/><rect class="cls-9" x="244.39" y="803.07" width="1.29" height="10.56"/><rect class="cls-9" x="247.03" y="803.07" width="1.29" height="10.56"/><path class="cls-9" d="M250.3,803.11V813.6a3.58,3.58,0,0,1-.48,0H249V803.07h.8A3.58,3.58,0,0,1,250.3,803.11Z"/><path class="cls-9" d="M252.09,804.09v8.53a2.68,2.68,0,0,1-1.29.86V803.23A2.68,2.68,0,0,1,252.09,804.09Z"/><path class="cls-19" d="M260.88,795.05v6a2.08,2.08,0,0,1-.47,1.28,2.68,2.68,0,0,1-1.29.86,2.15,2.15,0,0,1-.5.12,3.88,3.88,0,0,1-.48,0H145a3.06,3.06,0,0,1-1.22-.25,2.3,2.3,0,0,1-1.5-1.84.28.28,0,0,1,0-.09s0-.08,0-.12v-6s0-.07,0-.11a2.53,2.53,0,0,1,2.41-2.17H258.14l.48,0a4.05,4.05,0,0,1,.5.12,2.68,2.68,0,0,1,1.29.86A2.08,2.08,0,0,1,260.88,795.05Z"/><path class="cls-9" d="M205.32,803.32H144.71a2.49,2.49,0,0,1-1.09-.25,2.28,2.28,0,0,1-1.34-1.84.28.28,0,0,1,0-.09s0-.08,0-.12v-6s0-.07,0-.11a2.37,2.37,0,0,1,2.15-2.17h53.46a18.51,18.51,0,0,0,7.09,10.3Z"/><rect class="cls-9" x="245.82" y="792.76" width="1.29" height="10.56"/><rect class="cls-9" x="241.47" y="792.76" width="1.29" height="10.56"/><rect class="cls-9" x="236.25" y="792.76" width="1.29" height="10.56"/><rect class="cls-9" x="228.25" y="792.76" width="1.29" height="10.56"/><rect class="cls-9" x="219.79" y="792.76" width="1.29" height="10.56"/><rect class="cls-9" x="206.82" y="792.76" width="1.29" height="10.56"/><rect class="cls-9" x="194.68" y="792.76" width="1.29" height="10.56"/><rect class="cls-9" x="183.83" y="792.76" width="1.29" height="10.56"/><rect class="cls-9" x="249.97" y="792.76" width="1.29" height="10.56"/><rect class="cls-9" x="252.7" y="792.76" width="1.29" height="10.56"/><rect class="cls-9" x="255.35" y="792.76" width="1.29" height="10.56"/><path class="cls-9" d="M258.62,792.79v10.49a3.88,3.88,0,0,1-.48,0h-.8V792.75h.8A3.88,3.88,0,0,1,258.62,792.79Z"/><path class="cls-9" d="M260.41,793.77v8.53a2.68,2.68,0,0,1-1.29.86V792.91A2.68,2.68,0,0,1,260.41,793.77Z"/><path class="cls-19" d="M264.42,784.51v6a2.08,2.08,0,0,1-.47,1.29,2.75,2.75,0,0,1-1.29.86,2.61,2.61,0,0,1-.5.11l-.16,0H148.54a2.58,2.58,0,0,1-2.73-2.18v-6.2a2.58,2.58,0,0,1,2.73-2.18H261.68a2.52,2.52,0,0,1,.48,0,2.61,2.61,0,0,1,.5.11,2.75,2.75,0,0,1,1.29.86A2.08,2.08,0,0,1,264.42,784.51Z"/><path class="cls-9" d="M208.86,792.77H148.25a2.39,2.39,0,0,1-2.44-2.18v-6.2a2.39,2.39,0,0,1,2.44-2.18h53.17a18.57,18.57,0,0,0,7.42,10.55Z"/><rect class="cls-9" x="249.36" y="782.21" width="1.29" height="10.56"/><rect class="cls-9" x="245.01" y="782.21" width="1.29" height="10.56"/><rect class="cls-9" x="239.79" y="782.21" width="1.29" height="10.56"/><rect class="cls-9" x="231.79" y="782.21" width="1.29" height="10.56"/><rect class="cls-9" x="223.33" y="782.21" width="1.29" height="10.56"/><rect class="cls-9" x="210.36" y="782.21" width="1.29" height="10.56"/><rect class="cls-9" x="198.22" y="782.21" width="1.29" height="10.56"/><rect class="cls-9" x="187.37" y="782.21" width="1.29" height="10.56"/><rect class="cls-9" x="253.51" y="782.21" width="1.29" height="10.56"/><rect class="cls-9" x="256.24" y="782.21" width="1.29" height="10.56"/><rect class="cls-9" x="258.89" y="782.21" width="1.29" height="10.56"/><path class="cls-9" d="M262.16,782.25v10.48a2.52,2.52,0,0,1-.48,0h-.8V782.21h.8A2.52,2.52,0,0,1,262.16,782.25Z"/><path class="cls-9" d="M264,783.22v8.54a2.75,2.75,0,0,1-1.29.86V782.36A2.75,2.75,0,0,1,264,783.22Z"/><circle class="cls-10" cx="139.24" cy="843.76" r="53.77" transform="translate(-122.92 29.76) rotate(-8.48)"/><circle class="cls-19" cx="134.55" cy="843.76" r="53.77" transform="translate(-557.22 342.28) rotate(-45)"/><path class="cls-9" d="M134.55,893.38A49,49,0,1,1,169.2,879,48.69,48.69,0,0,1,134.55,893.38Zm0-95a46.07,46.07,0,1,0,46.07,46.06A46.11,46.11,0,0,0,134.55,798.33Z"/><path class="cls-9" d="M141.3,858.61a8.24,8.24,0,0,0-.12-2.84,5.82,5.82,0,0,0-1.2-2.36,11.17,11.17,0,0,0-2.41-2.13,29,29,0,0,0-3.72-2.08,77,77,0,0,1-6.89-3.79,24.35,24.35,0,0,1-5.14-4.18,14.29,14.29,0,0,1-3-5.11,16.2,16.2,0,0,1,1.31-12.24,13.55,13.55,0,0,1,3.79-4.22,17.23,17.23,0,0,1,5.44-2.59,22.88,22.88,0,0,1,6.78-.78l1-8.07,6.5.77-1,8.18a20.59,20.59,0,0,1,6.12,2.6,15.91,15.91,0,0,1,4.4,4.2,15.62,15.62,0,0,1,2.44,5.63,20.33,20.33,0,0,1,.27,6.94l-11.74-1.4q.54-4.51-1.2-7a6.93,6.93,0,0,0-5.12-2.88,8.82,8.82,0,0,0-3.21.13,6.09,6.09,0,0,0-2.34,1.14,5.46,5.46,0,0,0-1.5,2A8,8,0,0,0,130,831a7.56,7.56,0,0,0,.11,2.58,5.46,5.46,0,0,0,1.15,2.26,11,11,0,0,0,2.42,2.12,36.53,36.53,0,0,0,3.88,2.24q3.76,1.95,6.81,3.87a24.62,24.62,0,0,1,5.12,4.23,14.33,14.33,0,0,1,3,5.12,14.69,14.69,0,0,1,.53,6.49,15,15,0,0,1-1.87,5.83,13.35,13.35,0,0,1-3.81,4.17,16.23,16.23,0,0,1-5.47,2.49,23.94,23.94,0,0,1-6.82.72l-.89,7.51-6.46-.76.89-7.48a27.46,27.46,0,0,1-6.34-2.24,17.17,17.17,0,0,1-5.2-3.93,15.5,15.5,0,0,1-3.26-5.84,18.85,18.85,0,0,1-.54-7.94L125,853.85a11.51,11.51,0,0,0,.22,4.56,7.57,7.57,0,0,0,1.67,3.11,7.45,7.45,0,0,0,2.68,1.85,12.81,12.81,0,0,0,3.22.82,10.6,10.6,0,0,0,3.41-.09A7,7,0,0,0,138.8,863a5.46,5.46,0,0,0,1.7-1.88A6.77,6.77,0,0,0,141.3,858.61Z"/><path class="cls-20" d="M239.35,716.41s-6.52,9.18-12.5,9.31-15.07-4.26-15.07-4.26-5.49-12.23-1.77-17a8,8,0,0,1,7.64,1.25,11.7,11.7,0,0,1,2,1.94,6.45,6.45,0,0,0,3.14,2.12c4.26,1.3,9.33-1.75,11.22,1.19a20.13,20.13,0,0,0,3.3,3.91A15.13,15.13,0,0,0,239.35,716.41Z"/><path class="cls-20" d="M154.35,782.62s23.05-55.84,64.52-56.9c0,0,38.29,4.25,40.42,56.9Z"/><path class="cls-21" d="M207.51,727.42s16.63,3.7,21.76,1.53c0,0,.77-7-6.23-6-4.79.67-7.91-1.64-9.75-2.57C210.69,719.08,206.82,724.51,207.51,727.42Z"/><path class="cls-22" d="M222,716.94c-1.06.8-4.33-11.24-4.33-11.24a11.7,11.7,0,0,1,2,1.94,6.45,6.45,0,0,0,3.14,2.12C222.82,710.11,223,716.17,222,716.94Z"/><path class="cls-22" d="M237.33,714.86c-.24.14-7.93,4.74-9,4.74S234,711,234,711A20.13,20.13,0,0,0,237.33,714.86Z"/><path class="cls-23" d="M176.86,767c-.42-.37,16.31-24.64,20.92-24.82s15,5.32,22.46,6,14.76-1.42,16.18,3,5.32,20.14,2.93,22.66S186.07,774.88,176.86,767Z"/><path class="cls-18" d="M562.69,265.42H468.81c1.16-3.95,5.63-6.89,10.95-6.89a13.12,13.12,0,0,1,7,1.92c4.44-9.93,16.37-17,30.39-17,13.74,0,25.47,6.82,30.11,16.44a13.65,13.65,0,0,1,4.68-.82C557,259,561.3,261.73,562.69,265.42Z"/><rect class="cls-12" x="85.41" y="896.42" width="853" height="4" rx="2" ry="2"/><path class="cls-4" d="M812.49,409.38A18.66,18.66,0,1,1,831.14,428,18.65,18.65,0,0,1,812.49,409.38Z"/><path class="cls-24" d="M833.35,413.82a2.87,2.87,0,0,0-.14-1,2.17,2.17,0,0,0-.52-.8,4,4,0,0,0-.94-.67,11.39,11.39,0,0,0-1.4-.61,27.21,27.21,0,0,1-2.6-1.09,8.67,8.67,0,0,1-2-1.3,5.16,5.16,0,0,1-1.27-1.71,5.82,5.82,0,0,1,0-4.42,4.74,4.74,0,0,1,1.2-1.64,6.07,6.07,0,0,1,1.84-1.13,8.3,8.3,0,0,1,2.39-.53L830,396l2.34,0,0,3a7.15,7.15,0,0,1,2.28.7,5.71,5.71,0,0,1,1.73,1.33,5.45,5.45,0,0,1,1.07,1.92,7.31,7.31,0,0,1,.36,2.46l-4.24-.06a3.65,3.65,0,0,0-.69-2.46,2.5,2.5,0,0,0-1.93-.83,3.27,3.27,0,0,0-1.14.16,2.23,2.23,0,0,0-.8.5,2.05,2.05,0,0,0-.46.75,2.84,2.84,0,0,0-.16.93,2.66,2.66,0,0,0,.13.92,1.9,1.9,0,0,0,.5.76,3.79,3.79,0,0,0,.94.67,13.5,13.5,0,0,0,1.47.66c.94.36,1.8.74,2.57,1.12a9.22,9.22,0,0,1,2,1.32,4.92,4.92,0,0,1,1.7,4,5.42,5.42,0,0,1-.44,2.15,4.76,4.76,0,0,1-1.21,1.63,5.68,5.68,0,0,1-1.86,1.09,8.8,8.8,0,0,1-2.4.51l0,2.71-2.34,0,0-2.7a9.75,9.75,0,0,1-2.34-.56,6.33,6.33,0,0,1-2-1.21,5.6,5.6,0,0,1-1.38-2,6.78,6.78,0,0,1-.49-2.82l4.24.06a4.06,4.06,0,0,0,.25,1.62,2.59,2.59,0,0,0,1.73,1.61,4.32,4.32,0,0,0,1.18.17,3.8,3.8,0,0,0,1.22-.16,2.41,2.41,0,0,0,.88-.48,2.17,2.17,0,0,0,.54-.73A2.41,2.41,0,0,0,833.35,413.82Z"/><circle class="cls-4" cx="885.44" cy="349.49" r="27.97" transform="translate(-11.33 30.19) rotate(-1.94)"/><path class="cls-24" d="M888.75,356.14a4.23,4.23,0,0,0-.22-1.52,3.16,3.16,0,0,0-.77-1.19,6,6,0,0,0-1.41-1,15.16,15.16,0,0,0-2.11-.9c-1.43-.53-2.72-1.08-3.89-1.65a13.21,13.21,0,0,1-3-1.95,7.91,7.91,0,0,1-1.91-2.56,8.76,8.76,0,0,1,0-6.63,7.42,7.42,0,0,1,1.8-2.46,9.09,9.09,0,0,1,2.76-1.69,12.35,12.35,0,0,1,3.59-.8l.07-4.37,3.52,0-.07,4.43a11.13,11.13,0,0,1,3.42,1.06,8.44,8.44,0,0,1,2.59,2,8.33,8.33,0,0,1,1.62,2.87,11.07,11.07,0,0,1,.53,3.7l-6.36-.09a5.35,5.35,0,0,0-1-3.69,3.72,3.72,0,0,0-2.89-1.26,4.66,4.66,0,0,0-1.71.26,3.15,3.15,0,0,0-1.19.73,3,3,0,0,0-.7,1.13,4.53,4.53,0,0,0-.24,1.41,4,4,0,0,0,.2,1.37,3,3,0,0,0,.74,1.14,5.81,5.81,0,0,0,1.42,1,19.13,19.13,0,0,0,2.2,1c1.41.55,2.7,1.11,3.86,1.69a13.11,13.11,0,0,1,3,2,8.28,8.28,0,0,1,1.88,9.24,7.18,7.18,0,0,1-1.81,2.45,8.76,8.76,0,0,1-2.78,1.63,13,13,0,0,1-3.61.77l-.06,4.07-3.5-.05.06-4a14.48,14.48,0,0,1-3.52-.85,9.33,9.33,0,0,1-3-1.81,8.31,8.31,0,0,1-2.07-2.94,10.3,10.3,0,0,1-.73-4.23l6.36.1a6.19,6.19,0,0,0,.37,2.42,3.94,3.94,0,0,0,1.07,1.57,3.75,3.75,0,0,0,1.54.84,6.15,6.15,0,0,0,1.76.26,5.62,5.62,0,0,0,1.82-.24,3.48,3.48,0,0,0,1.32-.71,3,3,0,0,0,.81-1.1A3.61,3.61,0,0,0,888.75,356.14Z"/></svg>