<svg xmlns="http://www.w3.org/2000/svg" viewBox="0 0 80 80"><defs><style>.cls-1{fill:#27a9e0;opacity:0.25;}.cls-2{fill:none;stroke:#27a9e0;stroke-miterlimit:10;stroke-width:3px;}</style></defs><title>Asset 78</title><g id="Layer_2" data-name="Layer 2"><g id="Layer_1-2" data-name="Layer 1"><circle class="cls-1" cx="40" cy="40" r="40"/><rect class="cls-2" x="19" y="21.75" width="41" height="28" rx="1" ry="1"/><path class="cls-2" d="M17.5,50.25h45a1,1,0,0,1,1,1v0a7,7,0,0,1-7,7h-33a7,7,0,0,1-7-7v0a1,1,0,0,1,1-1Z"/><path class="cls-2" d="M53.29,45.25H26.71A1,1,0,0,1,26,43.54L35.59,34A1,1,0,0,1,37,34l4.59,4.58a1,1,0,0,0,1.41,0L53.29,28.25"/><path class="cls-2" d="M47.5,27.25h6a1,1,0,0,1,1,1v6"/></g></g></svg>