<svg xmlns="http://www.w3.org/2000/svg" viewBox="0 0 173.33 173.33"><defs><style>.cls-1{fill:#f8f7ff;}.cls-2{fill:#27a9e0;}.cls-3{fill:#282828;}</style></defs><title>Asset 64</title><g id="Layer_2" data-name="Layer 2"><g id="Layer_1-2" data-name="Layer 1"><circle class="cls-1" cx="86.67" cy="86.67" r="86.67"/><path class="cls-2" d="M116.54,76.3c-3.22-.91-7.65-.3-11-.24-2.89.06-5.77.29-8.65.08a1.19,1.19,0,0,1-1.11-.84c-.81-2.81-1.51-5.67-2.29-8.5-1-3.7-1.5-10.32-5.93-11.47-4.65-1.2-5.75,7.63-6.76,10.78a89.23,89.23,0,0,1-3.72,9.64.91.91,0,0,1-1.08.57c-4.12,0-8.23.11-12.35.16-3,0-11.54-1-9.7,4.15,1.07,3,6.63,5.52,9.17,7.38s5.24,4,7.8,6a1.11,1.11,0,0,1,.29,1.12c-1.55,4.29-3.16,8.58-4.66,12.89a20.55,20.55,0,0,0-1.36,5.27c0,.77-.19,2.28.24,2.92a2.93,2.93,0,0,0,3.73,1.17c3.35-1.2,6.69-4.58,9.43-6.73a89.52,89.52,0,0,1,7.88-5.64,1.18,1.18,0,0,1,1.39.18c2.83,2.78,17.67,17.89,20.47,10.72,1.15-3-1.58-7.1-2.51-9.88-1.16-3.5-2-7.1-3-10.61a1.18,1.18,0,0,1,.53-1.3c3-2.17,5.94-4.49,8.91-6.74C114.51,85.71,125.45,78.82,116.54,76.3ZM66.61,83.49a20.1,20.1,0,0,1,5.13-3.64c1-.48,1.86,1,.87,1.49a18.35,18.35,0,0,0-4.78,3.36C67,85.48,65.82,84.26,66.61,83.49Zm11.64-.84a37.35,37.35,0,0,0-7,3.77c-.91.63-1.77-.87-.86-1.48a39.1,39.1,0,0,1,7.42-4C78.82,80.58,79.26,82.25,78.25,82.65Z"/><path class="cls-2" d="M72.61,81.34a18.35,18.35,0,0,0-4.78,3.36c-.79.78-2-.44-1.22-1.21a20.1,20.1,0,0,1,5.13-3.64C72.73,79.37,73.6,80.85,72.61,81.34Z"/><path class="cls-2" d="M78.25,82.65a37.35,37.35,0,0,0-7,3.77c-.91.63-1.77-.87-.86-1.48a39.1,39.1,0,0,1,7.42-4C78.82,80.58,79.26,82.25,78.25,82.65Z"/><path class="cls-3" d="M121.83,76.94c-1.36-3.72-5.65-3-9-3.12-5-.18-10.06.34-15.06.08-1.2-4.22-2.21-8.48-3.35-12.71-1-3.61-2.7-7.7-6.89-8.38-3.41-.55-5.33,1.57-6.46,4.51C79,62.84,77.75,68.58,75.37,74c-5.6,0-11.28-.11-16.85.2-2.6.15-6,.36-7.07,3.14-1.23,3.15.76,5.59,3.09,7.36,1.94,1.47,4,2.78,6,4.2,2.26,1.62,5.43,3.32,7.16,5.43s-.92,6.48-1.76,8.81a66,66,0,0,0-2.58,7.6c-.68,2.93-.92,7.38,2,9.29s6.89-1.74,9.16-3.37c4.19-3,8.06-6.39,12.4-9.18A106.43,106.43,0,0,0,99.18,117.8c2.54,1.81,6.27,4,9.34,2,2.82-1.86,2.68-5.63,1.76-8.47-1.69-5.23-3.39-10.44-5-15.7,4.31-3.1,8.57-6.32,12.75-9.56C120.92,83.78,123.25,80.8,121.83,76.94Zm-9.58,10.49c-3,2.25-5.89,4.57-8.92,6.74a1.19,1.19,0,0,0-.52,1.3c1.09,3.51,1.88,7.12,3,10.61.92,2.78,3.66,6.91,2.5,9.88-2.8,7.17-17.64-7.94-20.47-10.71a1.17,1.17,0,0,0-1.39-.18,88.83,88.83,0,0,0-7.88,5.63c-2.74,2.15-6.07,5.54-9.42,6.73a2.94,2.94,0,0,1-3.74-1.16c-.43-.65-.29-2.16-.24-2.93a20.48,20.48,0,0,1,1.36-5.26c1.5-4.32,3.11-8.6,4.67-12.9a1.14,1.14,0,0,0-.3-1.12C68.39,92,65.8,90,63.14,88S55,83.65,54,80.63c-1.85-5.2,6.7-4.11,9.69-4.15,4.12,0,8.24-.16,12.35-.16a.91.91,0,0,0,1.08-.57,89.23,89.23,0,0,0,3.72-9.64c1-3.15,2.11-12,6.76-10.77C92,56.48,92.5,63.1,93.52,66.81c.77,2.83,1.47,5.68,2.29,8.49a1.16,1.16,0,0,0,1.1.84c2.89.22,5.77,0,8.66-.07,3.33-.06,7.75-.68,11,.23C125.46,78.82,114.51,85.71,112.25,87.43Z"/><path class="cls-3" d="M71.75,79.86a19.65,19.65,0,0,0-5.13,3.63c-.8.77.42,2,1.21,1.22a18.55,18.55,0,0,1,4.78-3.37C73.61,80.85,72.74,79.37,71.75,79.86Z"/><path class="cls-3" d="M77.79,81a38.79,38.79,0,0,0-7.42,3.94c-.91.62-.05,2.11.87,1.48a36.36,36.36,0,0,1,7-3.76C79.26,82.25,78.82,80.58,77.79,81Z"/></g></g></svg>