<svg id="Layer_1" data-name="Layer 1" xmlns="http://www.w3.org/2000/svg" xmlns:xlink="http://www.w3.org/1999/xlink" viewBox="0 0 1000 1000"><defs><style>.cls-1,.cls-16{fill:#fff;}.cls-2{fill:#f8f7ff;}.cls-3{fill:url(#linear-gradient);}.cls-4{fill:url(#linear-gradient-2);}.cls-5{fill:url(#linear-gradient-3);}.cls-6{fill:#8ba8d3;}.cls-7{fill:url(#linear-gradient-4);}.cls-8{fill:#20729b;}.cls-13,.cls-17,.cls-19,.cls-21,.cls-27,.cls-31,.cls-33,.cls-36,.cls-39,.cls-9{fill:none;}.cls-13,.cls-21,.cls-27,.cls-33,.cls-36,.cls-39,.cls-9{stroke:#2e2f32;}.cls-13,.cls-19,.cls-21,.cls-27,.cls-31,.cls-33,.cls-36,.cls-39,.cls-9{stroke-linecap:round;stroke-linejoin:round;}.cls-9{stroke-width:0.46px;}.cls-10{fill:#2e2f32;}.cls-11{fill:#fbb087;}.cls-12{fill:#ee896c;}.cls-13{stroke-width:0.45px;}.cls-14{clip-path:url(#clip-path);}.cls-15{clip-path:url(#clip-path-2);}.cls-16{opacity:0.22;}.cls-17{stroke:#4384a0;stroke-miterlimit:10;stroke-width:0.72px;}.cls-18{fill:#fccca2;}.cls-19{stroke:#423f3f;stroke-width:0.67px;}.cls-20{fill:#0e2331;}.cls-21{stroke-width:0.57px;}.cls-22{fill:#1d3b54;}.cls-23{clip-path:url(#clip-path-3);}.cls-24{fill:#d3a17f;}.cls-25{fill:#fbcca3;}.cls-26{fill:#823e22;}.cls-27{stroke-width:0.44px;}.cls-28{clip-path:url(#clip-path-4);}.cls-29{clip-path:url(#clip-path-5);}.cls-30{fill:#1f739c;}.cls-31{stroke:#e0e0e0;stroke-width:0.75px;}.cls-32{fill:#08141b;}.cls-33{stroke-width:0.45px;}.cls-34{clip-path:url(#clip-path-6);}.cls-35{clip-path:url(#clip-path-7);}.cls-36{stroke-width:1.01px;}.cls-37{fill:#27a9e0;}.cls-38{fill:#dc7c59;}.cls-39{stroke-width:0.44px;}.cls-40{fill:#b95536;}.cls-41{clip-path:url(#clip-path-8);}.cls-42{clip-path:url(#clip-path-9);}.cls-43{fill:#d8553d;}</style><linearGradient id="linear-gradient" x1="63.94" y1="312.86" x2="619.03" y2="633.34" gradientUnits="userSpaceOnUse"><stop offset="0" stop-color="#27a9e0"/><stop offset="1" stop-color="#2f7a9f"/></linearGradient><linearGradient id="linear-gradient-2" x1="-51.41" y1="364.38" x2="457.67" y2="658.29" xlink:href="#linear-gradient"/><linearGradient id="linear-gradient-3" x1="398.18" y1="338.11" x2="806.05" y2="573.6" xlink:href="#linear-gradient"/><linearGradient id="linear-gradient-4" x1="530.17" y1="327.07" x2="963.74" y2="577.39" xlink:href="#linear-gradient"/><clipPath id="clip-path"><path id="_Clipping_Path_" data-name="&lt;Clipping Path&gt;" class="cls-1" d="M296,389.37s4.61-11.28,18.84-.69C314.8,388.68,307.06,398.47,296,389.37Z"/></clipPath><clipPath id="clip-path-2"><path id="_Clipping_Path_2" data-name="&lt;Clipping Path&gt;" class="cls-1" d="M285.11,387.78s-3-12.2-12.53-5.34C272.58,382.44,276,394.09,285.11,387.78Z"/></clipPath><clipPath id="clip-path-3"><path id="_Clipping_Path_3" data-name="&lt;Clipping Path&gt;" class="cls-1" d="M734.87,449.22s51.71,41.41,67.31,95.55c0,0,5.73-66.56-29.09-106.82l-22.46-.27Z"/></clipPath><clipPath id="clip-path-4"><path id="_Clipping_Path_4" data-name="&lt;Clipping Path&gt;" class="cls-1" d="M772.2,372.85s-3-11.41-18-3.08C754.21,369.77,760.29,381.63,772.2,372.85Z"/></clipPath><clipPath id="clip-path-5"><path id="_Clipping_Path_5" data-name="&lt;Clipping Path&gt;" class="cls-1" d="M783.52,372.74s4.46-11.33,12.72-3.52C796.24,369.22,793,380.34,783.52,372.74Z"/></clipPath><clipPath id="clip-path-6"><path id="_Clipping_Path_6" data-name="&lt;Clipping Path&gt;" class="cls-1" d="M469.5,370.81s-3.19-11.68-18.51-2.94C451,367.87,457.38,380,469.5,370.81Z"/></clipPath><clipPath id="clip-path-7"><path id="_Clipping_Path_7" data-name="&lt;Clipping Path&gt;" class="cls-1" d="M481.71,371s4.44-11.68,13-3.77C494.72,367.24,491.57,378.71,481.71,371Z"/></clipPath><clipPath id="clip-path-8"><path id="_Clipping_Path_8" data-name="&lt;Clipping Path&gt;" class="cls-1" d="M608.64,394.1s-3.17-11.6-18.38-2.92C590.26,391.18,596.67,401.71,608.64,394.1Z"/></clipPath><clipPath id="clip-path-9"><path id="_Clipping_Path_9" data-name="&lt;Clipping Path&gt;" class="cls-1" d="M620.18,393.85s4.41-11.61,12.92-3.75C633.1,390.1,628.35,401.11,620.18,393.85Z"/></clipPath></defs><title>home-pic1</title><path class="cls-2" d="M435.67,861.05c21.39-8.8,45.38,1.77,66.06,12.14,9.66,4.86,19.56,9.88,26.88,17.84s11.62,19.62,8,29.81c-4.93,13.8-21.23,19.18-35.44,22.75-25,6.28-162.6,57.25-169.87,17.13-3.68-20.29,28.46-39.1,41.89-47.84C395.09,898.61,411.75,870.89,435.67,861.05Z"/><path class="cls-2" d="M244.49,98.94c10.15-9.21,27.6-4,35.83,6.94s9.76,25.39,11,39c1.91,21.17,3.53,43.84-6.9,62.35-11.82,21-36.38,31.39-60.07,35.64-20.36,3.65-41.7,3.76-61.4-2.55s-37.66-19.5-47.16-37.88-9.5-42,2.23-59.06c14.85-21.54,34.94-19.11,57.48-18.06C201,126.55,226.67,117.56,244.49,98.94Z"/><path class="cls-2" d="M36.15,226c9.7,1.1,17.79,10.3,17.62,20.06-.23,13.75-15.69,23.7-29.29,21.67C-16.59,261.52,2.66,222.17,36.15,226Z"/><path class="cls-2" d="M25.82,74c11.07,11.35,28.48,14.7,44.1,12,16.68-2.84,33.81-14.43,35.24-31.28,1-11.6-5.67-22.54-13.65-31-11.29-12-27-21.28-43.42-19.87C15.75,6.63,4.8,52.42,25.82,74Z"/><path class="cls-2" d="M885.91,723.22q-8.8,9.35-18.25,18A368.13,368.13,0,0,1,818.91,779a383.62,383.62,0,0,1-58,31q-6.72,2.89-13.53,5.52a388.34,388.34,0,0,1-62.48,18.24c-.32.08-.65.14-1,.2q-9.27,1.88-18.62,3.25-10.38,1.57-20.83,2.54-5.73.53-11.48.88a362.36,362.36,0,0,1-42.59.2q-13.25-.7-26.42-2.4c-10.16-1.31-20.26-3-30.34-4.88q-8.64-1.59-17.27-3.24c-3.34-.63-6.68-1.26-10-1.86-5.33-1-10.67-1.92-16-2.77-9.7-1.56-19.43-2.86-29.22-3.63q-4.19-.33-8.4-.53c-2.72-.13-5.45-.21-8.17-.24-18.95-.28-37.92,1.49-56.87,4.08l-3.86.54-.39.06c-8.28,1.18-16.56,2.51-24.83,3.87-13.17,2.17-26.31,4.45-39.43,6.42-8.52,1.28-17,2.44-25.53,3.35-19.11,2.06-38.15,2.91-57.09,1.27-1.32-.11-2.65-.24-4-.39a191.72,191.72,0,0,1-22.14-3.57c-54.71-12.18-102.11-50.46-129.56-99.33S45.27,630.16,53.61,574.73c5.78-38.4,21.49-77.79,48.78-104.15,1.87-1.82,3.81-3.57,5.8-5.25a109.6,109.6,0,0,1,25.89-16.47c.44-.21.89-.4,1.34-.6l1.18-.5q4.36-1.85,8.94-3.41c11.86-4.13,24.58-7.17,36.63-10.93,19.46-6.09,37.15-14.05,46.63-31.45,9.07-16.65,7-37,11.33-55.41a67.47,67.47,0,0,1,2.62-8.73c7.92-20.77,27-34.79,45.2-47.62l2.13-1.5,45.1-31.86,75.09-53,5.57-3.94c36.44-25.73,73.93-52,117.06-63.26l.83-.22c22.68-5.83,46-7.19,69.22-5.63a319,319,0,0,1,37.58,4.91c.19,0,.39.07.58.12,17.34,3.32,35,10,52.66,15.83,15.87,5.24,31.75,9.79,47.42,10.66,11,.61,21.85-.9,32.68-2.66,15.55-2.52,31.12-5.58,47.46-3.68A159.69,159.69,0,0,1,848,161.4a152.29,152.29,0,0,1,55.85,29.93c31.54,26.91,50.93,65.45,64.37,104.68C1017.61,440.18,990.37,612.25,885.91,723.22Z"/><path class="cls-3" d="M516.53,783.41a240.13,240.13,0,0,1-10.14,45c-5.33-1-10.67-1.92-16-2.77-9.7-1.56-19.43-2.86-29.22-3.63q-4.19-.33-8.4-.53c-2.72-.13-5.45-.21-8.17-.24-18.95-.28-37.92,1.49-56.87,4.08q-1.74-2.85-3.41-5.74-2.3-4-4.43-8.07c-2.69-5.16-5.17-10.44-7.36-15.86-5.62-13.89-9.28-28.41-12-43.16-2.26-12.12-3.89-24.4-5.48-36.62l-.18-1.35q-1.39-10.66-2.78-21.31h0q-2.49-19.19-5-38.37v0q-2.32-17.91-4.66-35.82c0-.19-.05-.38-.08-.57-.12-1-.25-2-.38-2.92s-.25-1.89-.37-2.84h0c-.05-.37-.1-.74-.14-1.11l-1.17-8.93-.54-4.14c-.3-2.35-.61-4.69-.91-7l-.69-5.25q-1.49-11.49-3-23c-.34-2.64-.69-5.29-1-7.93q-1-7.89-2.06-15.79-1.37-10.44-2.72-20.89c-.3-2.33-.61-4.66-.91-7Q326,493.32,323.61,475h0l-.36-2.67q-1.32-9.9-2.69-19.79c-.15-1.05-.3-2.09-.44-3.14q-1.53-10.87-3.13-21.73-.53-3.57-1.06-7.14l-.39-2.61-1.05-6.77c-.41-2.63-.82-5.27-1.24-7.9s-.88-5.47-1.33-8.2q-.76-4.68-1.56-9.34c-.39-2.36-.8-4.71-1.22-7.07h0c-.1-.6-.2-1.2-.31-1.81-.17-1-.35-2-.53-3l-.78-4.39c-.12-.62-.23-1.24-.34-1.86-.28-1.55-.57-3.09-.86-4.64q-1.57-8.49-3.26-17c-.34-1.73-.69-3.45-1-5.18l-.06-.32c-3.54-17.34-7.46-34.61-11.88-51.76-.27-1.09-.56-2.17-.84-3.26-5.45-20.85-11.65-41.51-18.78-61.85q-8-22.93-17.7-45.26c-9.27-21.27-22.4-41-34.45-61-7.41-12.27-14.42-24.62-19.86-37.44a354.57,354.57,0,0,1,48.41,17.24h0c13.14,5.69,26.22,12.08,39,18.85h0c19.75,10.46,38.79,21.85,56.26,33,24.58,15.67,47.9,33.91,68.14,54.86A271.75,271.75,0,0,1,450.1,256q3.07,5.28,5.88,10.72A276.53,276.53,0,0,1,476.13,319q1.06,3.75,2,7.52c.35,1.34.68,2.68,1,4,1.39,5.66,2.64,11.36,3.79,17.1,0,0,0,0,0,0q.6,3,1.15,5.95c.16.82.31,1.64.46,2.45.19,1,.37,2,.54,3h0c0,.11,0,.21,0,.31q.56,3.09,1.05,6.19c.18,1.09.36,2.19.53,3.28h0c.36,2.27.71,4.55,1,6.82h0c.21,1.44.42,2.89.61,4.33.08.48.14,1,.2,1.43,0,0,0,0,0,0,.27,1.91.53,3.81.78,5.73q.5,3.82,1,7.65c.11.91.22,1.83.32,2.75.17,1.41.33,2.81.49,4.22,1.4,12.27,2.59,24.55,3.76,36.77.64,6.71,1.27,13.4,1.9,20.11h0q1,10.13,1.91,20.25h0q1.43,15.21,2.84,30.43.73,7.8,1.45,15.6.88,9.6,1.77,19.2l.21,2.19,1.14,12.46h0L508,579.46q.4,4.44.82,8.9c.11,1.19.21,2.39.33,3.58,0,.63.11,1.26.17,1.89q1.17,12.76,2.33,25.54v0l.81,8.79q.62,6.78,1.24,13.56a.14.14,0,0,0,0,.09q.57,6.1,1.12,12.22C518.71,696.62,522.11,741.29,516.53,783.41Z"/><path class="cls-4" d="M236.59,840.85c18.94,1.64,38,.79,57.09-1.27,8.5-.91,17-2.07,25.53-3.35,13.12-2,26.26-4.25,39.43-6.42,3-22.22.61-46.15,1.24-66.74q.17-5.39.63-10.56.5-5.79,1.34-11.38c2.48-16.89,7-32.75,12.34-50,5.86-19,8-39,7.28-59.21q-.17-5.25-.59-10.52-.24-3-.55-6c-.06-.52-.11-1-.17-1.56-.89-8.07-2.17-16.16-3.79-24.21q-.67-3.36-1.42-6.7c-.26-1.19-.54-2.38-.82-3.57s-.6-2.55-.92-3.82c-1.87-7.59-4-15.12-6.37-22.58-.7-2.22-1.43-4.43-2.16-6.63s-1.52-4.45-2.3-6.67c-3.77-10.66-7.93-21.11-12.31-31.21q-1.81-4.2-3.75-8.36-4.92-10.71-10.53-21.23-7.1-13.35-15.23-26.33c-.69-1.08-1.36-2.15-2.05-3.22q-1.44-2.25-2.91-4.49-3.9-5.94-8-11.78c-.29-.43-.59-.85-.89-1.27q-3.36-4.74-6.86-9.41-2.91-3.92-5.95-7.77c-.2-.27-.42-.54-.63-.81l-.42-.53-1.51-1.91c-1.05-1.31-2.1-2.62-3.17-3.92q-2.81-3.46-5.68-6.89l-2.32-2.78-4-4.73q-2.44-2.88-4.86-5.76c-.16-.19-.32-.37-.47-.56s-.33-.39-.49-.58l-2.14-2.54L266.84,382l-2.47-3a328.41,328.41,0,0,1-24.24-32.42c-2.92-4.58-5.63-9.25-8.07-14-11-21.47-16.06-44.41-25.18-66.38a212.9,212.9,0,0,0-10-20.74A228.14,228.14,0,0,0,184.24,225c-18.89-27.13-44-51-70.61-73.75-9.33-8-18.83-15.88-28.31-23.72L70.23,346.24c-1.83,26.46-3.56,53.6,6.28,79.25,6,15.8,16.25,30.35,25.88,45.09,5.79,8.86,11.38,17.77,15.74,27.07,13.39,28.55,14.75,59.37,16,89.53q2.65,66.42,5.3,132.86c1.35,34.12,6.08,73.57,40.93,93.89,14.3,8.33,32.05,12.18,45.6,21.32a66.65,66.65,0,0,1,6.71,5.21Z"/><path class="cls-5" d="M689.21,732.59c-.22,16.07-6.29,25.18-7.41,41.22a71.64,71.64,0,0,1-3,16.19c-3.79,12.28-10.66,23.45-19.18,33.74a184.07,184.07,0,0,1-15.07,16q-5.73.53-11.48.88a362.36,362.36,0,0,1-42.59.2q-13.25-.7-26.42-2.4c-10.16-1.31-20.26-3-30.34-4.88q-8.64-1.59-17.27-3.24c-3.34-.63-6.68-1.26-10-1.86-5.33-1-10.67-1.92-16-2.77C467,783.46,453.7,734.56,470,690.58c0-.14.1-.29.15-.43,7.3-19.51,10.31-40,10.4-60.79a255.64,255.64,0,0,0-1.92-31.45q-.39-3.3-.86-6.58c-1.1-7.72-2.49-15.41-4.09-23q-2.07-9.79-4.56-19.41c-5.19-20.16-11.48-40-17.49-60h0c-1.72-5.67-3.41-11.34-5-17-2.27-7.86-4.43-15.75-6.39-23.68a.26.26,0,0,1,0-.11,386,386,0,0,1-7.6-37.86q-1-6.95-1.68-13.94h0q-.32-3.34-.56-6.7t-.42-6.74q-.22-4.14-.31-8.26c0-1.62-.07-3.23-.08-4.84q-.08-8.72.36-17.44c.07-1.51.16-3,.26-4.52s.22-3.27.35-4.9c0,0,0,0,0,0,.24-3.08.53-6.14.88-9.21.22-2.12.48-4.23.76-6.34q.5-3.87,1.1-7.72A314.15,314.15,0,0,1,450.1,256a300.24,300.24,0,0,1,82.8-119.32C573.7,100.7,624,75.44,677.34,65a277.67,277.67,0,0,0-36.23,70.84,345.86,345.86,0,0,0-12.11,44c-1.42,6.75-2.64,13.55-3.68,20.35-6.88,44.89-6.38,90.59-3.23,135.93h0c.22,3.31.46,6.61.72,9.92.05.58.09,1.17.14,1.75s.07.87.1,1.31c.05.68.11,1.37.17,2.06.11,1.4.23,2.8.35,4.2q.63,7.64,1.38,15.27c.17,1.89.36,3.78.55,5.67l.12,1.19q.51,5.1,1.07,10.2c.09.82.18,1.65.28,2.48.25,2.37.52,4.75.8,7.12q.72,6.25,1.51,12.5.39,3.17.81,6.33h0q3.49,26.81,8.07,53.45a.5.5,0,0,0,0,.12q4.23,24.72,9.39,49.25c.24,1.15.48,2.31.73,3.46h0c.31,1.46.62,2.9.94,4.36h0c0,.26.11.5.17.75.13.63.26,1.26.4,1.89q1.91,8.73,3.93,17.42c.16.72.33,1.43.5,2.14q.9,3.9,1.85,7.79,1.47,6.16,3,12.31c.25,1,.51,2,.77,3.08s.55,2.17.83,3.25q2.6,10.17,5.28,20.33c.42,1.58.83,3.16,1.25,4.74q1.43,5.43,2.83,10.87c2.43,9.35,4.8,18.72,7,28.11C684.26,670.17,689.64,701.13,689.21,732.59Z"/><path class="cls-6" d="M603.93,123.31a104.59,104.59,0,0,1-3.57,21.11,128.56,128.56,0,0,1-7.56,20.14c-6.1,13-13.95,25.11-22.07,36.86S554,224.54,546.08,236.28c-3.94,5.88-7.76,11.81-11.25,17.89-1.79,3-3.33,6.17-5,9.27s-3,6.3-4.49,9.49a225.59,225.59,0,0,0-13.07,39.86,264.84,264.84,0,0,0-6,41.61c-1.88,28,.09,56.3,4.82,84.11,4.53,27.88,11.6,55.36,19.32,82.7,3.83,13.68,7.85,27.34,11.85,41l6,20.54c1.94,6.87,3.87,13.74,5.71,20.65,3.69,13.8,7.23,27.66,10.21,41.66s5.55,28.08,7.45,42.28c3.7,28.36,4.8,57.22,1.12,85.53,1.69-28.48-.61-56.94-5.49-84.87-2.39-14-5.39-27.85-8.83-41.62s-7.18-27.46-11.22-41.08c-2-6.81-4.09-13.61-6.19-20.41l-6.28-20.4c-4.21-13.61-8.44-27.24-12.49-40.94-8-27.41-15.25-55.2-20-83.58s-6.65-57.36-4.41-86.19A270.94,270.94,0,0,1,504.67,311L506,305.7c.49-1.74,1-3.47,1.53-5.21l1.54-5.21c.54-1.73,1.18-3.43,1.78-5.14l1.81-5.12c.61-1.7,1.37-3.36,2-5l2.08-5c.67-1.68,1.53-3.28,2.29-4.93,1.56-3.27,3.06-6.56,4.88-9.71s3.43-6.38,5.35-9.45c3.75-6.18,7.79-12.15,12-18,8.42-11.62,17.35-22.74,25.9-34.08s16.74-22.91,23.41-35.39A129,129,0,0,0,599.07,144,103.46,103.46,0,0,0,603.93,123.31Z"/><path class="cls-6" d="M239.4,116.23C257.48,141,275.24,166,293,191l26.51,37.6c8.82,12.53,17.62,25.09,26.23,37.86,4.27,6.4,8.49,12.85,12.56,19.42s7.94,13.27,11.61,20.11a267.47,267.47,0,0,1,18.7,42.73,263.8,263.8,0,0,1,10.26,45.54c2.18,15.36,3.43,30.76,4.48,46.1l5.53,91.84,2.55,45.93,1.27,23,1.18,23c3.17,61.25,6,122.52,8,183.85-5.7-61.1-10.5-122.24-15-183.41l-1.7-22.94-1.61-22.94-3.19-45.89-6-91.78c-1-15.26-2.15-30.45-4.21-45.47a265.58,265.58,0,0,0-9.65-44.15A259.6,259.6,0,0,0,363,309.67c-7-13.43-14.87-26.49-23.06-39.37s-16.82-25.56-25.24-38.39l-25.29-38.42C272.62,167.8,255.85,142.13,239.4,116.23Z"/><path class="cls-6" d="M99.14,170.18c6,27.17,12.52,54.18,20.12,80.88,1.95,6.66,3.77,13.36,5.83,20l3,10,3.16,9.91,1.58,4.95,1.64,4.94,3.26,9.87,3.38,9.83c1.14,3.27,2.25,6.56,3.46,9.81,9.45,26.05,19.46,51.9,30.72,77.21,11,25.38,23.39,50.3,34.33,76.08,5.42,12.89,10.38,26.06,14.7,39.4s8.16,26.81,11.54,40.37,6.36,27.2,9.19,40.85q2.12,10.23,4.12,20.48l3.91,20.5c10.4,54.63,20.48,109.33,29.69,164.2C269.9,755.27,257.89,701,246.2,646.59l-8.85-40.71c-3-13.54-6.19-27-9.73-40.39s-7.31-26.66-11.64-39.75-9.25-25.94-14.64-38.66c-10.63-25.49-23-50.45-33.84-76.19l-2.05-4.81-2-4.85-4-9.69-3.82-9.74c-1.27-3.25-2.56-6.49-3.76-9.77-5-13-9.6-26.2-14-39.45-8.83-26.46-16.36-53.34-23-80.41S103.18,197.71,99.14,170.18Z"/><path class="cls-7" d="M914.72,378.3l-7,58.91Q901.9,486,896.08,534.85l-24,201.25q-2.21,2.6-4.45,5.15A368.13,368.13,0,0,1,818.91,779a383.62,383.62,0,0,1-58,31q-6.72,2.89-13.53,5.52a388.34,388.34,0,0,1-62.48,18.24c-.32.08-.65.14-1,.2q-9.27,1.88-18.62,3.25-3.23-6.59-5.76-13.45c-12.07-32.56-13.18-69.56-10.46-104.69,1.57-20.42,4.26-40.84,6.35-61.25.91-8.84,1.71-17.66,2.26-26.49.37-5.88.63-11.76.73-17.64.11-5.69.07-11.37-.15-17q-.31-8.73-1.25-17.46c-.1-.88-.2-1.77-.31-2.65-.2-1.71-.42-3.42-.67-5.12-.68-4.84-1.52-9.64-2.49-14.41-.32-1.61-.66-3.21-1-4.81s-.76-3.43-1.18-5.14q-1.26-5.28-2.72-10.51-.76-2.79-1.59-5.56c-.3-1.05-.62-2.11-1-3.16a2.12,2.12,0,0,0-.09-.31c-.82-2.71-1.68-5.42-2.58-8.11q-1.74-5.31-3.63-10.57c-4.92-13.77-10.47-27.37-16.22-40.85-.33-.8-.67-1.59-1-2.39q-.93-2.2-1.89-4.41-2.13-5-4.28-9.9c-2.33-5.38-4.68-10.77-7-16.17a.14.14,0,0,0,0-.07L608.08,432q-2.61-6.13-5.17-12.29-1.11-2.7-2.21-5.4c-.5-1.22-1-2.44-1.48-3.66q-4-10.07-7.71-20.26c-1.37-3.83-2.7-7.68-4-11.54q-.64-2-1.26-3.93-2.53-8-4.67-16l-.6-2.29q-.85-3.35-1.64-6.72c-.2-.86-.4-1.73-.59-2.6q-.69-3.06-1.29-6.14t-1.11-6q-1-5.69-1.73-11.44c-5.61-44.56,3.14-93.08,33.58-126.11A116.66,116.66,0,0,1,654.34,167c13.32-4.77,28-7.37,39.43-15.36a42.43,42.43,0,0,0,3.93-3.07c17.17-15.15,18.6-41.12,29.41-61.3s32.31-34.47,55.16-35.59,46.09,11.53,56.66,31.82c11.3,21.69,7.73,47.68,8.74,72.12.08,1.93.19,3.85.33,5.78a185.23,185.23,0,0,0,27.65,84.43c12.75,20.33,29.67,38.57,37.17,61.37S917.55,354.56,914.72,378.3Z"/><path class="cls-6" d="M779.32,118.74c-2.93,29.56-6.26,59.07-9.57,88.58l-5.15,44.24c-.85,7.37-1.7,14.76-2.78,22.18a209.45,209.45,0,0,1-4.31,22.2,127.33,127.33,0,0,1-7.61,21.57,207.39,207.39,0,0,1-10.65,20c-7.66,12.89-16,25.17-22.66,38.06-.84,1.6-1.62,3.24-2.43,4.85s-1.5,3.28-2.27,4.91-1.34,3.34-2,5l-1,2.51c-.33.84-.68,1.67-.93,2.53l-1.66,5.14-.82,2.57-.67,2.63L703.47,411c-.43,1.75-.71,3.54-1.07,5.3l-.51,2.66c-.18.89-.36,1.77-.46,2.67L700.7,427c-.12.9-.26,1.79-.36,2.69l-.23,2.71-.46,5.41c-.13,1.81-.15,3.63-.24,5.44s-.19,3.63-.15,5.45l0,5.46,0,2.72.12,2.73a309.94,309.94,0,0,0,4.86,43.58c2.6,14.46,6.08,28.78,9.71,43.13s7.46,28.71,11,43.2q2.67,10.86,4.95,21.85c.73,3.66,1.42,7.34,2.1,11l.92,5.54c.32,1.85.62,3.7.87,5.56a267.64,267.64,0,0,1,3.05,44.92A242.67,242.67,0,0,1,731.28,723c-1.55,7.32-3.58,14.53-5.67,21.69-1.15,3.55-2.19,7.14-3.45,10.65l-1.83,5.28-2,5.23a410.1,410.1,0,0,1-18.19,40.73c2.91-6.84,5.79-13.67,8.39-20.62,1.37-3.45,2.59-7,3.88-10.42s2.47-7,3.56-10.52c2.31-7,4.34-14.14,6.24-21.27s3.47-14.35,4.69-21.61a239.15,239.15,0,0,0,4-43.81,272.63,272.63,0,0,0-4.09-43.76c-5-29-13.41-57.38-21.11-86.13-3.83-14.37-7.36-28.94-10.11-43.69a316.88,316.88,0,0,1-5.2-44.84l-.11-2.83v-8.52c0-1.89.14-3.78.19-5.68s.13-3.79.28-5.68l.51-5.67.25-2.84c.11-.94.26-1.89.39-2.83l.8-5.65c.12-.94.3-1.88.49-2.81l.56-2.81c.39-1.86.69-3.74,1.15-5.59l1.44-5.55.72-2.77.89-2.73,1.78-5.44c.27-.92.65-1.8,1-2.69l1.07-2.66c.73-1.77,1.39-3.57,2.18-5.31s1.58-3.48,2.44-5.18,1.73-3.39,2.63-5.06c7.21-13.37,15.76-25.62,23.43-38.14s14.44-25.36,18.25-39.33c4-14,5.78-28.64,8-43.33l6.61-44C769.92,177.39,774.42,148,779.32,118.74Z"/><path class="cls-8" d="M293.68,839.58c-19.11,2.06-38.15,2.91-57.09,1.27q-.78-9.5-1.6-19.69c-4.8-59.39-4.86-105.41-2.91-140.14a500.54,500.54,0,0,1,6.41-58.81c.31-1.73.61-3.37.92-4.94.44-2.32.89-4.48,1.32-6.47.3-1.37.59-2.66.88-3.88l.5-2.09a108.87,108.87,0,0,1,4.15-13.94h41.23l.06,2.45.58,23.07V617l.11,4.6.22,8.77,0,1.49v.12L290,692.42l1.49,60,.07,2.77Z"/><path class="cls-8" d="M358.64,829.81c-13.17,2.17-26.31,4.45-39.43,6.42l-27.63-81.08L246.84,623.83l-.13-.37.07-.18,4.2-10.73,8.48-21.66h57s.81,2.17,2.4,6.71q1.23,3.57,3.11,9.11t4.34,13.18c.22.69.45,1.39.67,2.1,5.39,16.73,12.76,40.55,21.89,72.33q2.07,7.18,4.25,14.91.91,3.22,1.87,6.66c2.14,7.73,4.42,16.2,6.82,25.24,5.59,21.11,11.77,45.32,18,70.4q1.8,7.15,3.59,14.41C375.19,827.12,366.91,828.45,358.64,829.81Z"/><line class="cls-9" x1="291.59" y1="752.6" x2="266.6" y2="681.27"/><path class="cls-10" d="M351,365s7.21,15.64,3.5,37.57c-3.8,22.44,20.92,20.26,18,42,0,0-70.08,20.82-134.82-21.38,0,0-4.43-19.25,9.09-23.85,18.93-6.45,23.73-26.05,23.73-26.05Z"/><ellipse class="cls-10" cx="312.12" cy="378.92" rx="39.02" ry="42.02" transform="translate(-105.43 637.08) rotate(-82.25)"/><polygon class="cls-11" points="316.06 410.9 315.2 474.92 284.32 470.82 293.86 414.61 316.06 410.9"/><polygon class="cls-12" points="288.31 447.34 312.31 429.56 293.25 418.59 288.31 447.34"/><path class="cls-12" d="M282.82,406.61A31.26,31.26,0,0,0,281,394.84c-1.9-5.26-5.17-10.48-11.42-8.5-10.63,3.39-2.95,21,7.13,23.69,3,.79,6-.92,6.08-3.42Z"/><path class="cls-11" d="M322.76,349.87a46.78,46.78,0,0,0-21.57-3.81c-10,.73-23.22,5.13-27.18,22.63-6.61,29.18-5.14,48.54,7.62,58.5,8.94,7,18.92,7.7,32.82,1.95,5.18-2.14,12.88-11.45,14.94-16.93l6-15.25S355.2,363.66,322.76,349.87Z"/><polyline class="cls-13" points="287.77 394.31 283.38 400.5 286.7 402.64"/><path class="cls-10" d="M287,367.91s.82,3.06-3.81,3a40.93,40.93,0,0,0-7.75.32,2.85,2.85,0,0,1-2.93-1.13h0a1.62,1.62,0,0,1,.26-2.11,11.68,11.68,0,0,1,8.08-2.87C286.36,365.13,287,367.91,287,367.91Z"/><path class="cls-10" d="M300.09,368.73s-1.9,2.71,4.4,4.1a101.85,101.85,0,0,1,13.05,4.2,5,5,0,0,0,4.28-.2h0a1.29,1.29,0,0,0,.18-2.12A30.94,30.94,0,0,0,309.18,368C301.71,366.25,300.09,368.73,300.09,368.73Z"/><path id="_Clipping_Path_10" data-name="&lt;Clipping Path&gt;" class="cls-1" d="M296,389.37s4.61-11.28,18.84-.69C314.8,388.68,307.06,398.47,296,389.37Z"/><g class="cls-14"><path class="cls-10" d="M299.85,387.76a4.85,4.85,0,1,0,5.95-3.63A4.92,4.92,0,0,0,299.85,387.76Z"/></g><path class="cls-10" d="M314.67,388.81a15.66,15.66,0,0,0-4.42-2.9,17.25,17.25,0,0,0-5.08-1.41,10.05,10.05,0,0,0-5.1.84,6.59,6.59,0,0,0-3.35,3.66v0a.37.37,0,0,1-.47.23.38.38,0,0,1-.23-.47h0a7.28,7.28,0,0,1,3.79-4,10.39,10.39,0,0,1,5.41-.79,17.65,17.65,0,0,1,5.22,1.53,16.32,16.32,0,0,1,4.49,3,.19.19,0,0,1,0,.26A.17.17,0,0,1,314.67,388.81Z"/><path id="_Clipping_Path_11" data-name="&lt;Clipping Path&gt;" class="cls-1" d="M285.11,387.78s-3-12.2-12.53-5.34C272.58,382.44,276,394.09,285.11,387.78Z"/><g class="cls-15"><path class="cls-10" d="M282.25,384.85c.07,2.52-1.49,4.61-3.48,4.67s-3.67-1.94-3.75-4.46,1.49-4.61,3.48-4.67S282.17,382.33,282.25,384.85Z"/></g><path class="cls-10" d="M272.45,382.32a7.55,7.55,0,0,1,1.33-1.19,5.64,5.64,0,0,1,1.61-.8,5.77,5.77,0,0,1,1.8-.26,5.66,5.66,0,0,1,1.8.33h0a8.18,8.18,0,0,1,4,2.55,10.22,10.22,0,0,1,1.37,2,11.37,11.37,0,0,1,.9,2.25.36.36,0,0,1-.26.45.38.38,0,0,1-.45-.26h0v0a10.45,10.45,0,0,0-.8-2.09,9.82,9.82,0,0,0-1.23-1.88,7.67,7.67,0,0,0-3.69-2.46h0a5,5,0,0,0-1.61-.32,5.14,5.14,0,0,0-1.65.19,5.41,5.41,0,0,0-1.52.71,7.09,7.09,0,0,0-1.29,1.1h0a.19.19,0,0,1-.26,0A.18.18,0,0,1,272.45,382.32Z"/><path class="cls-1" d="M280.54,406.87l18.54,1.38s-2.23,6.67-9.51,5.79A10.6,10.6,0,0,1,280.54,406.87Z"/><path class="cls-16" d="M310.24,377.58l-17.52,17s2.92,8.95,9.94,9.18l17.57-16.49S317.73,378.3,310.24,377.58Z"/><path class="cls-16" d="M278.28,372.19,263,389.52s2.29,8.85,8.25,8.93l15.33-16.83S284.64,372.74,278.28,372.19Z"/><path class="cls-17" d="M292.58,388.46a14.15,14.15,0,1,0,16.29-11.62A14.15,14.15,0,0,0,292.58,388.46Z"/><path class="cls-17" d="M263,383.43c-1.27,7.71,3,14.86,9.53,16s12.86-4.23,14.13-11.94-3-14.87-9.53-16S264.24,375.72,263,383.43Z"/><path class="cls-17" d="M292.58,388.46a6.66,6.66,0,0,0-5.95-1"/><line class="cls-17" x1="329.52" y1="401.76" x2="320.29" y2="394.32"/><path class="cls-10" d="M329.11,403.21c0-2.7-7.68-24.42,3.68-50.54,0,0,10.37-1.23,11.65,17.72C346.5,400.79,329.11,403.21,329.11,403.21Z"/><path class="cls-11" d="M323.59,412.09a33,33,0,0,1,6.35-10.81c3.9-4.39,9.14-8.22,14.47-3.84,9.06,7.46-5.31,21.66-16.21,20.36-3.2-.38-5.5-3.24-4.61-5.71Z"/><path class="cls-13" d="M340.63,405c-7.35-3.67-12.64,4.42-12.64,4.42"/><path class="cls-10" d="M335.87,354.88s-14.24,13.83-65.45,5.58c0,0,10.23-19.44,36.74-20.44S335.87,354.88,335.87,354.88Z"/><path class="cls-18" d="M305.74,466.47s-13.15,44.61-106.85,113.32L174.5,548l81.89-88.86Z"/><path class="cls-11" d="M124.94,482.33l17.27-8.9,25.6,37.15c-6.06,4-14.06,8.47-20.17,12.48Z"/><path class="cls-11" d="M145.05,471.38l1.13-4a36,36,0,0,0,.64-16.58l-1.92-9.68a3.78,3.78,0,0,0-5.06-2.8h0a4.84,4.84,0,0,0-3.13,4.43l-.22,10.48L120.88,425a2.94,2.94,0,0,0-4.28-1.07l-1,.67a2.92,2.92,0,0,0-1,3.57l10.9,21.72-16-23.22a2.93,2.93,0,0,0-4.32-.8l-.69.54a2.92,2.92,0,0,0-.71,3.82l13,21.31-13.39-14a2.93,2.93,0,0,0-4.57.25l-.22.3a2.93,2.93,0,0,0,0,3.48l12.88,15.56L103,450.64a2.93,2.93,0,0,0-4.86,1.06h0a2.94,2.94,0,0,0,.49,2.85l31.23,35.34,8.54-7.77A22.83,22.83,0,0,0,145.05,471.38Z"/><path class="cls-9" d="M136.49,453.21s-6.26,5.17-5.81,15.33"/><path class="cls-18" d="M208,554.35l-56.38-73.87L129.2,499.25l38.73,70.81c6.57,11.39,16.37,17.16,27.21,12h0C204.91,577.49,212.57,564.15,208,554.35Z"/><line class="cls-9" x1="190.18" y1="530.95" x2="202.32" y2="544.98"/><path class="cls-1" d="M257.25,471.51l38.4,26.92-2.37,132.7L240.4,622.2S215.37,509.47,257.25,471.51Z"/><polygon class="cls-10" points="236.26 621.78 288.52 631.93 287.33 618.76 236.26 610.04 236.26 621.78"/><path class="cls-11" d="M315,495.38s-63.37,21.21-60.31-17.59l29.85-22.93,20,11.32L315,474.89l10.46,17.48Z"/><path class="cls-18" d="M287,456.23s-27.82,21.6-42.91,59.61c-8.33,21-3.23,63-1.85,91s3.23,81.62,3.23,81.62L224.8,677s-.46-123,2.54-139.14,17.29-78.47,38-85.2c0,0,7-2.09,19.26,2.25Z"/><path class="cls-9" d="M225.91,558.89s-2.23-39.18,10.35-58.83"/><path class="cls-18" d="M327.35,474.5s-9.36-8.09-22.84,2.32S274.08,524.23,274.08,567s12.71,124.3,12.71,124.3,46.4,17.86,78.78-5.27l-48.85-82.39,23.68-65.84Z"/><path class="cls-18" d="M323.7,472.5S358,480.73,420,579l-33.46,22.1-64.75-73.25Z"/><line class="cls-9" x1="336.89" y1="544.98" x2="321.76" y2="527.87"/><path class="cls-11" d="M281.86,594.63l22.3-5-.72-5a4.19,4.19,0,0,1,2.31-4.36,3.83,3.83,0,0,1,4.74,1.19l15,20.84,11.38,16.06c-13.07,6.53-25.31,5.46-28.79,2.58l-17.36,1.31a3.14,3.14,0,0,1-3.58-2.57c-.24-1.24,0-3,3.62-3.85l-3.57.8a3.28,3.28,0,0,1-3.74-2.75c-.31-1.62,1.06-3.28,3.22-4l-2.65.33a3.38,3.38,0,0,1-3.88-3.2,3.74,3.74,0,0,1,2.93-3.78l3.94-.88-4.37-.07a3.69,3.69,0,0,1-4-3.65A4,4,0,0,1,281.86,594.63Z"/><polygon class="cls-11" points="325.51 602.29 362.53 592.4 368.61 614.66 330.52 620.99 325.51 602.29"/><path class="cls-18" d="M396.7,571.66l-64.89,22.19,13.73,29.34,62.54-14A19.67,19.67,0,0,0,422,582.92h0A19.67,19.67,0,0,0,396.7,571.66Z"/><line class="cls-9" x1="368.61" y1="581.27" x2="390.28" y2="573.86"/><path class="cls-10" d="M822,720.12,818.91,779a383.62,383.62,0,0,1-58,31l4.71-99.52-18.24,105a388.34,388.34,0,0,1-62.48,18.24c-.32.08-.65.14-1,.2l.53-3.36,23.2-145.08L711.44,662l1.22-7.59,1.17-7.32,1.53-9.58,1.7-10.65,2.74-.35,9.08-1.15,8.64-1.1L756,621.92l3.61-.46,49.1,5.41c.11,0,2.11,0,4.56,3.78a27.94,27.94,0,0,1,2.61,5.2c2.67,6.83,5.32,18.86,6.38,40q.13,2.8.24,5.82C822.91,693.05,822.68,708.8,822,720.12Z"/><line class="cls-19" x1="765.66" y1="710.46" x2="789.6" y2="704.88"/><path class="cls-20" d="M732.58,467.3s20.85,21.17,44.94,30.32,70.54,38.55,105.8,41.25l-11.73-49.21-76.5-41.73Z"/><path class="cls-11" d="M931.4,415.09l1.75-12.9a6.59,6.59,0,0,1,4.65-5.45l15.3-4.58a5,5,0,0,1,5.75,2.31h0a5,5,0,0,1-1.94,6.82l-7.32,4s10.16,8.08.35,18.93Z"/><path class="cls-11" d="M937.8,396.74l20-27.25a3.83,3.83,0,0,1,5.66-.59h0a3.84,3.84,0,0,1,.84,4.61L951.72,398Z"/><path class="cls-11" d="M953.87,390.09l7.66-2.6a5.3,5.3,0,0,1,4.64,1l1.77,1.42a5.3,5.3,0,0,1,1.35,6.68L959.5,414l-12.59-9.28Z"/><path class="cls-11" d="M967.85,392.62h2.85a5.22,5.22,0,0,1,3.66,1.49l2.36,2.31a5.22,5.22,0,0,1,1.57,3.74h0a5.2,5.2,0,0,1-1,3.13L964.71,420l-10.87-8.1Z"/><path class="cls-11" d="M972.43,399.23h2.86a5.26,5.26,0,0,1,3.66,1.49l2.36,2.32a5.22,5.22,0,0,1,1.57,3.73h0a5.25,5.25,0,0,1-1,3.14l-4.4,5.86a13.61,13.61,0,0,1-19,2.74h0Z"/><path class="cls-11" d="M971.39,419.2l-5.86,6.47a15.06,15.06,0,0,1-21.27,1.06L931.4,415.09l10-12.75h12.47l10.87,7.53Z"/><path class="cls-21" d="M938.86,396.56,955.49,391a4.55,4.55,0,0,1,5.66,3h0a4.56,4.56,0,0,1-1.52,4.92l-10,6.36s9,4.42,1.66,14.71"/><polygon class="cls-11" points="931.4 415.1 909.99 444.48 933.87 462.31 955.76 426.05 931.4 415.1"/><path class="cls-20" d="M862,497.23l55.56-73,34.71,26.87-48,76.11c-9.74,12.41-23.87,15.45-35.07,6.44h0C859.17,525.58,849.24,507.05,862,497.23Z"/><path class="cls-20" d="M706.54,470l44.09-32.3,22.46.27s22.38,3.64,38.77,27,13.07,211.57,13.07,211.57-17-1.58-17.35-28.67c0,0-5.73,36.74-36.82,40.54s-81.62-5.95-81.62-5.95L723.73,592l-27.8-78.33A43,43,0,0,1,706.54,470Z"/><path class="cls-22" d="M795.09,447.93l13.24,23.32-6.75-.09L809,480.7s4.53,29.06-6.79,64.07L770.66,443.56l2.43-5.61a52.63,52.63,0,0,1,15.29,5.82Z"/><path id="_Clipping_Path_12" data-name="&lt;Clipping Path&gt;" class="cls-1" d="M734.87,449.22s51.71,41.41,67.31,95.55c0,0,5.73-66.56-29.09-106.82l-22.46-.27Z"/><g class="cls-23"><path class="cls-11" d="M737.17,458.87s51.56,22.28,49.52-13.37l-15.78-30.41s-35.24,11-37.36,11.53l-9.28,12.43-2.61,8.52Z"/></g><path class="cls-22" d="M734.87,449.22l-10.88,8,14.44,25,14.42.17-10.05,9.92s38.12,29.93,59.38,52.53C802.18,544.77,788.06,489.94,734.87,449.22Z"/><path class="cls-21" d="M821.72,518.54s-.74-17.12-4.45-30.49"/><path class="cls-20" d="M722.74,458.18a62.46,62.46,0,0,0-33.88,29.52C677,510.55,640.79,564.77,634,599.47l50.24-5.87,48.7-71.07Z"/><line class="cls-21" x1="710.63" y1="555.05" x2="732.91" y2="522.53"/><polygon class="cls-24" points="841.11 575.02 759.41 542.2 751.17 561.77 830.97 592.92 841.11 575.02"/><polygon class="cls-1" points="757.25 555.44 761.49 546.14 838.1 577.61 833.5 586.92 757.25 555.44"/><polygon class="cls-25" points="833.97 581.16 786.92 693.83 706.33 659.86 751.75 547.46 833.97 581.16"/><polygon class="cls-24" points="833.97 581.16 841.11 575.02 794.53 687.41 786.92 693.83 833.97 581.16"/><polygon class="cls-1" points="752.34 591.71 803.85 612.84 809.57 599.35 758.06 578.22 752.34 591.71"/><polygon class="cls-11" points="714.89 612.04 771.83 642.82 765.49 664.92 705.67 644.29 714.89 612.04"/><path class="cls-11" d="M771.83,642.82s40.36-7.32,38.84,7.2-8.76,48.78-45.18,14.9Z"/><path class="cls-11" d="M770.51,644.47l5.46-5.86a23.05,23.05,0,0,1,11.75-6.75l8.33-1.9a4.43,4.43,0,0,1,5,2.36h0a4.43,4.43,0,0,1-1.53,5.67l-12,7.92Z"/><path class="cls-20" d="M673.29,577.81,764,626.14,746.3,668.58l-95.15-40c-14.69-5.75-21.67-18.4-16.27-31.72h0C639.73,584.87,660.21,568.41,673.29,577.81Z"/><line class="cls-21" x1="689.14" y1="586.26" x2="673.29" y2="577.81"/><path class="cls-12" d="M783.28,392.77a30.58,30.58,0,0,1,3.23-11.07c2.5-4.8,6.32-9.4,12.06-6.69,9.77,4.62.13,20.53-9.89,21.83-2.95.38-5.64-1.66-5.4-4.07Z"/><path class="cls-26" d="M801.09,354.14c-2,20.79-19.8,44.36-42.28,44.41S721.7,381,716.36,360.82c-6-22.65,19.81-38.14,42.29-37.87C772.8,323.12,803.23,331.55,801.09,354.14Z"/><polygon class="cls-11" points="747.5 390.91 741.76 452.5 773.6 452.56 771.67 397.36 747.5 390.91"/><polygon class="cls-12" points="772.79 429.5 752.04 409.34 771.74 401.26 772.79 429.5"/><path class="cls-11" d="M752.25,331.5a45.28,45.28,0,0,1,21.2-.88c9.48,2,21.63,7.9,23.19,25.21,2.59,28.86-.87,52.14-15.11,58.7-10.93,5-18.9,3.12-31.52-4.2-4.69-2.72-9.19-14.29-10.47-19.82l-5.44-15.42S719.33,340.57,752.25,331.5Z"/><polyline class="cls-27" points="779.39 374.22 784.04 384.33 780.6 387.05"/><path class="cls-26" d="M784.25,352.94a3.83,3.83,0,0,0,3.24,5c3.37.62,5.52.95,7.4,1.88a2.25,2.25,0,0,0,3-1.06h0a3.15,3.15,0,0,0,0-3,10.94,10.94,0,0,0-7.36-5.52C785.26,349.16,784.25,352.94,784.25,352.94Z"/><path class="cls-26" d="M770.89,352.66s1.46,4.17-4.77,5A71.88,71.88,0,0,0,753,361.14a3.64,3.64,0,0,1-4.08-1.06h0a2.38,2.38,0,0,1,.11-3c1.54-1.84,7.45-6.35,13.2-7.15C769.66,348.88,770.89,352.66,770.89,352.66Z"/><path id="_Clipping_Path_13" data-name="&lt;Clipping Path&gt;" class="cls-1" d="M772.2,372.85s-3-11.41-18-3.08C754.21,369.77,760.29,381.63,772.2,372.85Z"/><g class="cls-28"><path class="cls-10" d="M769.25,371.27a5.21,5.21,0,1,1-5.81-4.71A5.3,5.3,0,0,1,769.25,371.27Z"/></g><path class="cls-10" d="M754.11,369.63a15.45,15.45,0,0,1,4.7-2.34,17.19,17.19,0,0,1,5.21-.8,10.13,10.13,0,0,1,5.09,1.45,7.05,7.05,0,0,1,3.12,4.36.35.35,0,0,1-.27.42.36.36,0,0,1-.43-.27h0v-.05a6.35,6.35,0,0,0-2.74-3.94A9.55,9.55,0,0,0,764,367a16.5,16.5,0,0,0-5.06.7,15,15,0,0,0-4.62,2.21.17.17,0,1,1-.2-.28Z"/><path id="_Clipping_Path_14" data-name="&lt;Clipping Path&gt;" class="cls-1" d="M783.52,372.74s4.46-11.33,12.72-3.52C796.24,369.22,793,380.34,783.52,372.74Z"/><g class="cls-29"><path class="cls-10" d="M786.43,370.51c-.44,2.7.94,5.18,3.08,5.53s4.24-1.56,4.68-4.26-.93-5.18-3.08-5.53S786.88,367.81,786.43,370.51Z"/></g><path class="cls-10" d="M796.12,369.3a6.81,6.81,0,0,0-1.1-1.23,5.15,5.15,0,0,0-4.55-1.19h0a7.49,7.49,0,0,0-3.88,1.88,9.92,9.92,0,0,0-1.44,1.66,10.16,10.16,0,0,0-1,1.91v0a.3.3,0,0,1-.39.17.31.31,0,0,1-.17-.39h0a10.51,10.51,0,0,1,1.14-2,10.19,10.19,0,0,1,1.56-1.72,7.87,7.87,0,0,1,4.16-1.92h0a5.24,5.24,0,0,1,1.76-.08,5.39,5.39,0,0,1,1.68.47,5.26,5.26,0,0,1,1.45,1,7.39,7.39,0,0,1,1.12,1.31.15.15,0,0,1,0,.2.15.15,0,0,1-.2,0Z"/><path class="cls-27" d="M768.52,392.17s10.34,5.49,17.66-1.09"/><path class="cls-26" d="M739.87,383.45s13.82-43.89-6.63-45L722,360.31l6,18.25Z"/><path class="cls-11" d="M743.44,392.79a32.12,32.12,0,0,0-4.71-11.19c-3.18-4.72-7.72-9.07-13.4-5.55-9.66,6,2.31,21.48,12.94,21.63,3.13.05,5.7-2.4,5.17-4.89Z"/><path class="cls-27" d="M728,383.83c7.53-2.58,11.57,5.86,11.57,5.86"/><path class="cls-26" d="M736.22,339.35s51,13.17,68.57-11c0,0-32.32-18-59.82-3.17Z"/><path class="cls-26" d="M736.31,331.61s11.11-17.5,31.41-17.73c0,0-5.56,14-17.62,17.87S736.31,331.61,736.31,331.61Z"/><path class="cls-26" d="M729.88,338.22s.58-11.49,10.33-17.14c0,0,1.14,8.29-3.63,13.44S729.88,338.22,729.88,338.22Z"/><path class="cls-20" d="M516.73,709.51l-.2,73.9-.12,46.88c-3.34-.63-6.68-1.26-10-1.86-5.33-1-10.67-1.92-16-2.77-9.7-1.56-19.43-2.86-29.22-3.63l-2.23-126.71L444.59,821.26c-18.95-.28-37.92,1.49-56.87,4.08l-3.86.54.45-6.28,13.12-182.19.43-6,1-14,.45-6.17.8-11.16L408.8,599l3.2-.39,5-.61h0l4.88-.6,7.13-.87L441,595h0l7.55-.92,1.61-.15,20.7-2,6.86-.65,11.15-1.07,11.89-1.13,8.07-.77h.09a15.21,15.21,0,0,1,.83,3.38c.08.4.15.84.24,1.34q.19,1.23.42,2.91v0c.67,4.91,1.47,12.84,2.25,25.55h0c.13,2,.25,4.13.37,6.38q.21,3.75.4,8h0q.13,2.79.27,5.79a.14.14,0,0,0,0,.09c.17,4.08.33,8.46.49,13.17C514.62,667.39,516.6,689.57,516.73,709.51Z"/><line class="cls-9" x1="458.93" y1="695.32" x2="484.65" y2="684.25"/><path class="cls-11" d="M506.34,607.81l49.24,107.05,15.66-1.09c-19-73.07-19-73-32.93-118-2.21-7.14-16.6-8.85-23.54-6.07h0C508.27,592.28,503.74,601.31,506.34,607.81Z"/><path class="cls-11" d="M554.2,705.26S550.08,719.81,557,733l-1.43,14.52a4.38,4.38,0,0,0,3.47,4.74h0a4.71,4.71,0,0,0,5.46-3.36l2.33-8.51.82,2.92a21.48,21.48,0,0,1-.89,14.13l-5.36,12.88c-.61,1.46-2.3,1.2-1.32,2.4h0a4.36,4.36,0,0,0,7.13-.73l11.09-14.13a24.57,24.57,0,0,0,2-20.2L566.1,700.19Z"/><path class="cls-1" d="M542.17,594.11,537.91,526c-6-52.21-38.62-66.14-38.62-66.14l-2.75,88.87,9.88-5.43,7,92.66,29.9,69.5,29.27-12.19Z"/><path class="cls-26" d="M448,447.33a145.41,145.41,0,0,0-40.48,9.21,105.67,105.67,0,0,0-10.54,4.72c-9.24,4.83-6.48,15.28-5.32,25.94L397,631.39l112.75-2.74a9.06,9.06,0,0,0,8.83-9.55l-4.46-115.64c-.43-20.29-3.94-40-17.54-44.83-15.24-5.37-33.83-11.39-41.94-11.88Z"/><path class="cls-1" d="M489.76,456.25s-21.41-8.38-35.08-9.5c0,0-18.67.8-31.51,4.75l46.77,61.56Z"/><polygon class="cls-30" points="463.62 457.38 454.19 469.27 465.4 477.42 474.32 467.95 463.62 457.38"/><polygon class="cls-30" points="463.02 472.35 457.37 496.52 469.94 513.06 474.32 500.5 466.83 472.35 463.02 472.35"/><polyline class="cls-31" points="453.76 469.91 451.17 473.83 436.01 467.4"/><polyline class="cls-31" points="474.32 467.95 477.79 471.21 485.73 465.13"/><path class="cls-1" d="M401.11,459.07s-34.83,5.61-109,106.32l38.21,29.85,61.27-70.91C415.63,493,401.11,459.07,401.11,459.07Z"/><polygon class="cls-32" points="378.8 492.95 461.55 523.03 454.63 543.1 374.41 513.04 378.8 492.95"/><polygon class="cls-1" points="454.32 534.33 457.37 524.57 379.31 496.88 376.52 506.88 454.32 534.33"/><polygon class="cls-20" points="380.02 502.29 339.87 617.59 422.56 646.08 463.74 532.06 380.02 502.29"/><polygon class="cls-32" points="380.02 502.29 378.8 492.95 338.48 607.73 339.87 617.59 380.02 502.29"/><polygon class="cls-1" points="433.77 564.61 381.31 545.98 386.06 532.12 438.51 550.75 433.77 564.61"/><polygon class="cls-11" points="351.43 574.41 412.27 596.5 409.25 619.29 347.05 607.66 351.43 574.41"/><path class="cls-11" d="M412.27,596.5s38.85-13.16,39.48,1.42-1.5,49.53-42.5,21.37Z"/><path class="cls-11" d="M411.21,598.32l4.54-6.59a23.15,23.15,0,0,1,10.63-8.41l8-3.1a4.44,4.44,0,0,1,5.25,1.6h0a4.45,4.45,0,0,1-.68,5.84l-10.71,9.6Z"/><path class="cls-1" d="M320.75,558.57l78.88,25.55-7.3,40.14-88.05-22A23.41,23.41,0,0,1,289.81,570h0A23.41,23.41,0,0,1,320.75,558.57Z"/><line class="cls-31" x1="351.73" y1="568.6" x2="330.32" y2="561.67"/><path class="cls-1" d="M459.4,323.32s26.66-11.95,40.47,2.59c10.83,11.41-7.61,31.29-17.48,30.18S459.4,323.32,459.4,323.32Z"/><path class="cls-12" d="M481.71,391.59a31,31,0,0,1,3.19-11.41c2.5-5,6.36-9.73,12.28-7,10.09,4.61.4,21.07-9.87,22.52-3,.43-5.82-1.63-5.6-4.1Z"/><path class="cls-1" d="M495.42,358.5c.31,21.43-15.68,39-38.76,39.32s-42-16.78-42.33-38.21,18.16-39.07,41.23-39.4S495.12,337.07,495.42,358.5Z"/><polygon class="cls-11" points="444.95 390.12 440.25 448.18 463.62 457.38 472.4 450.69 469.85 396.44 444.95 390.12"/><polygon class="cls-12" points="471.4 429.42 449.85 408.98 469.97 400.44 471.4 429.42"/><path class="cls-11" d="M449.1,329.06a46.57,46.57,0,0,1,21.75-1.16c9.76,1.91,22.31,7.84,24.12,25.6,3,29.59-.25,53.53-14.79,60.44-11.16,5.31-19.36,3.44-32.4-3.91-4.85-2.74-9.62-14.57-11-20.22L431,374S415.42,338.78,449.1,329.06Z"/><polyline class="cls-33" points="478.18 374.7 481.69 381.47 479.04 383.62"/><path class="cls-1" d="M482.21,349a3.93,3.93,0,0,0,3.4,5.06c3.47.59,5.67.9,7.62,1.84a2.3,2.3,0,0,0,3-1.12h0a3.2,3.2,0,0,0,0-3.09,11.18,11.18,0,0,0-7.63-5.58C483.2,345.07,482.21,349,482.21,349Z"/><path class="cls-1" d="M468.5,348.85s1.55,4.26-4.84,5.16a73.18,73.18,0,0,0-13.38,3.76,3.76,3.76,0,0,1-4.21-1h0a2.44,2.44,0,0,1,.08-3.1c1.56-1.91,7.57-6.6,13.47-7.5C467.19,345,468.5,348.85,468.5,348.85Z"/><path id="_Clipping_Path_15" data-name="&lt;Clipping Path&gt;" class="cls-1" d="M469.5,370.81s-3.19-11.68-18.51-2.94C451,367.87,457.38,380,469.5,370.81Z"/><g class="cls-34"><path class="cls-10" d="M466.45,369.22a5.35,5.35,0,1,1-6-4.76A5.42,5.42,0,0,1,466.45,369.22Z"/></g><path class="cls-10" d="M450.88,367.73a16.2,16.2,0,0,1,4.8-2.47,18.16,18.16,0,0,1,5.34-.89,10.52,10.52,0,0,1,5.25,1.44,7.2,7.2,0,0,1,3.25,4.43.38.38,0,0,1-.27.44.37.37,0,0,1-.44-.28h0v0a6.55,6.55,0,0,0-2.87-4A9.94,9.94,0,0,0,461,364.9a17.06,17.06,0,0,0-5.19.78A15.59,15.59,0,0,0,451.1,368a.18.18,0,1,1-.22-.28Z"/><path id="_Clipping_Path_16" data-name="&lt;Clipping Path&gt;" class="cls-1" d="M481.71,371s4.44-11.68,13-3.77C494.72,367.24,491.57,378.71,481.71,371Z"/><g class="cls-35"><path class="cls-10" d="M484.68,368.69c-.43,2.78,1,5.31,3.22,5.64s4.33-1.65,4.75-4.43-1-5.31-3.22-5.64S485.1,365.91,484.68,368.69Z"/></g><path class="cls-10" d="M494.6,367.33a7.53,7.53,0,0,0-1.14-1.25,5.39,5.39,0,0,0-1.42-.89,5.07,5.07,0,0,0-1.62-.4,5.26,5.26,0,0,0-1.64.13h0a7.61,7.61,0,0,0-4,2,9.58,9.58,0,0,0-1.45,1.72,10.11,10.11,0,0,0-1.05,2v0a.3.3,0,0,1-.39.18.31.31,0,0,1-.18-.4h0a10.91,10.91,0,0,1,1.15-2.1,10.28,10.28,0,0,1,1.58-1.78,8.12,8.12,0,0,1,4.25-2h0a5.27,5.27,0,0,1,1.81-.11,5.55,5.55,0,0,1,1.73.46,6.1,6.1,0,0,1,1.49,1,7.8,7.8,0,0,1,1.17,1.33.16.16,0,0,1,0,.21.15.15,0,0,1-.2,0Z"/><path class="cls-1" d="M479.62,386.75a4,4,0,0,0-2.77-2.43c-2.12-.53-5.9-.61-9.76,3.5-5.85,6.24-11.3,5.85-13.25,4.48,0,0,10.52,13.45,24.16,2.15C478,394.45,481.1,390.62,479.62,386.75Z"/><path class="cls-1" d="M478,389.93a5,5,0,0,1,5.65-5.82,9.93,9.93,0,0,1,6,3.37c5.34,5.69,8.61,5.34,10.39,4.09,0,0-7.9,12.28-20.36,2A9.69,9.69,0,0,1,478,389.93Z"/><path class="cls-16" d="M493.71,359.36l10.59,11.52s.08,8.27-7.65,9.1l-16.29-18.27S481.28,357.45,493.71,359.36Z"/><path class="cls-16" d="M459.41,359.36l12.47,13.06s0,8.4-9.54,7.56L444.23,360.7S448,359.14,459.41,359.36Z"/><path class="cls-36" d="M473.3,365.05c-.25,3.1-.61,7.7-2.61,11.7a6,6,0,0,1-5.07,3.27l-15.09,0a6.68,6.68,0,0,1-6-5.46,28.44,28.44,0,0,1-.36-9.11,6.25,6.25,0,0,1,5-5.35c4.86-.88,20.32-.45,20.32-.45A5.12,5.12,0,0,1,473.3,365.05Z"/><path class="cls-10" d="M451.28,358.82l-9.9.53a1.07,1.07,0,0,0-1,1.1l.06,1.83a1.1,1.1,0,0,0,.46.83l3.27,2.29S445.93,359.43,451.28,358.82Z"/><path class="cls-36" d="M480.38,364.84c.25,3.09.39,7.91,2.4,11.91a6,6,0,0,0,5.07,3.27l9.94,0a6.7,6.7,0,0,0,6-5.46,28.75,28.75,0,0,0,.35-9.11,6.25,6.25,0,0,0-5-5.35c-4.86-.88-15-.66-15-.66C481.28,359.6,480.18,362.33,480.38,364.84Z"/><path class="cls-10" d="M497,358.82l9.91.53a1.06,1.06,0,0,1,1,1.1l-.06,1.83a1,1,0,0,1-.46.83l-3.27,2.29S502.39,359.43,497,358.82Z"/><path class="cls-36" d="M480.37,369.46s-2.5-2.53-7.34.35"/><line class="cls-36" x1="431.49" y1="375.36" x2="444.23" y2="362.87"/><path class="cls-11" d="M440.81,392.1a33,33,0,0,0-5-11.43c-3.32-4.81-8-9.22-13.82-5.53-9.85,6.27,2.64,22,13.55,22,3.21,0,5.82-2.54,5.24-5.08Z"/><path class="cls-33" d="M424.84,383.09c7.69-2.75,11.94,5.87,11.94,5.87"/><path class="cls-1" d="M470.85,327.9s-10-2.79-13.82,7.26c-5.28,13.91-21.24,20.06-35,15.84,0,0,3.15-19.81,23.51-25.62S470.85,327.9,470.85,327.9Z"/><path class="cls-1" d="M471.4,323.32s-4.47-10.49-23.19-8.38c-22.36,2.53-35.54,21.48-32,32.66,2.71,8.6,20.58-3.72,20.58-3.72Z"/><path class="cls-37" d="M684.94,833.74c-.32.08-.65.14-1,.2q-9.27,1.88-18.62,3.25-10.38,1.57-20.83,2.54-5.73.53-11.48.88l-33-159.5,0-.22-5.28.33-4.26,159.59q-13.25-.7-26.42-2.4c-10.16-1.31-20.26-3-30.34-4.88-2.66-58.77-5-114.67-5.39-136.06a133.51,133.51,0,0,1,1.73-23h0c.56-3.6,1.25-7.2,2-10.75a251.54,251.54,0,0,1,14-42.77q1.29-3,2.55-5.84c1.07-2.38,2.12-4.66,3.15-6.81.82-1.73,1.63-3.39,2.41-5,5.54-11.13,9.76-18,9.76-18l29.73,2.84,8.94.85L626,591.25c.53.66,1.06,1.35,1.57,2.07a77.08,77.08,0,0,1,5.72,9.42h0l.12.22h0c2.18,4.18,4.21,8.71,6.11,13.33,1,2.43,2,4.89,2.9,7.32,3,7.9,5.76,15.58,8.28,21.62q2.6,6.21,4.79,12.55a242.23,242.23,0,0,1,10.64,42.72L678.76,790l5.73,40.58Z"/><line class="cls-9" x1="594.94" y1="681.42" x2="619.42" y2="679.94"/><path class="cls-38" d="M502.57,525l-32.45,48.51c-11.35,17.76,15.78,36.06,28.05,19l55.25-73.75Z"/><path class="cls-6" d="M549.79,468.54c-20.49-6.74-51.71,46.12-64,65.19l49.46,32.56C544.38,551.22,605.48,490.41,549.79,468.54Z"/><path class="cls-6" d="M631.3,468s35.45,2.32,36.88,54.45L643.84,528Z"/><path class="cls-6" d="M544.65,467.74c39.62-7.29,61.54-7.29,91.29,1.15,33.67,9.55,5.16,100.47-2.75,135H554.31L527.75,501.29C531.39,493.08,532.25,468.49,544.65,467.74Z"/><line class="cls-39" x1="543.12" y1="560.62" x2="533.69" y2="520.75"/><line class="cls-39" x1="644.8" y1="546.98" x2="650.48" y2="507.11"/><path class="cls-1" d="M603,479.07l-24.64-15.23,1.3-8.44h-4.07a6.35,6.35,0,0,0-4.49,1.85l-7.39,7.38,17,25.44a5.37,5.37,0,0,0,7.92,1.13Z"/><path class="cls-1" d="M610.38,455.4h3.06a6.35,6.35,0,0,1,5.28,2.81l5.11,7.63L621.6,487.9a2.87,2.87,0,0,1-4.61,2l-14-10.81,7.89-13.2Z"/><path class="cls-1" d="M605.42,489.58a2.44,2.44,0,1,1-2.44-2.44A2.44,2.44,0,0,1,605.42,489.58Z"/><path class="cls-1" d="M606,499.3a2.44,2.44,0,1,1-2.44-2.44A2.44,2.44,0,0,1,606,499.3Z"/><path class="cls-38" d="M581.46,545.93s13.76-24.38,49.84-10l-14,29.75-31.55-1.08Z"/><polygon class="cls-38" points="581.46 545.92 484.52 562.55 490.19 598.7 585.76 564.63 581.46 545.92"/><line class="cls-39" x1="519.44" y1="556.56" x2="495.75" y2="560.62"/><path class="cls-1" d="M588.34,623.44l-6.58-7.3,39.92-93.74s71.63-12,100.93-2.12Z"/><path class="cls-10" d="M722.61,520.28,707,522.4l-46.37,91s13.45.35,19.47-11.33Z"/><polygon class="cls-20" points="707.04 522.4 627.28 529.49 588.34 623.44 660.67 613.36 707.04 522.4"/><polygon class="cls-1" points="680.21 544.48 635.67 548.43 631.3 559.1 674.67 555 680.21 544.48"/><polygon class="cls-1" points="722.61 520.28 713.22 477.09 704.03 477.09 686.2 518.05 722.61 520.28"/><path class="cls-38" d="M689,585.06s10.61,2.59,19.6-11.12.28-21,.28-21l-22.52-15.84a2.39,2.39,0,0,0-3,.24h0a2.4,2.4,0,0,0,0,3.45l13.36,12.83-20.19-13.29a3.24,3.24,0,0,0-4.56,1h0a3.23,3.23,0,0,0,.78,4.21l18.71,14.65-16.81-8.71a2.69,2.69,0,0,0-3.66,1.19h0a2.7,2.7,0,0,0,.83,3.39l17.12,12.46-14.61-7a2.89,2.89,0,0,0-3.8,1.26h0a2.89,2.89,0,0,0,.85,3.69L691,581Z"/><path class="cls-40" d="M620.18,406.78a31,31,0,0,1,3.16-11.33c2.49-4.92,6.33-9.66,12.21-7,10,4.59.39,20.94-9.81,22.38-3,.42-5.78-1.62-5.56-4.08Z"/><circle class="cls-1" cx="633.8" cy="408.15" r="2.76" transform="translate(-77.2 157.62) rotate(-13.37)"/><circle class="cls-10" cx="558.98" cy="414.67" r="25.29" transform="translate(-129.5 516.71) rotate(-45)"/><path class="cls-10" d="M565.19,349.14s-7.48-4-15.31,7.19-6.62,34.74,9.35,39Z"/><path class="cls-10" d="M565.19,349.14s4.26-21.95,37.27-17.44,54.84,18.63,31.91,49.87Z"/><path class="cls-10" d="M633.8,375.62c.3,21.28-15.58,38.73-38.5,39.05s-41.74-16.67-42-37.95,18-38.81,41-39.13S633.5,354.33,633.8,375.62Z"/><polygon class="cls-38" points="587.08 407.02 578.34 463.84 602.98 479.07 610.87 465.87 608.4 413.3 587.08 407.02"/><polygon class="cls-40" points="609.94 446.06 588.53 425.76 608.52 417.28 609.94 446.06"/><path class="cls-38" d="M587.79,346.38a46.25,46.25,0,0,1,21.61-1.16c9.68,1.9,22.15,7.8,24,25.43,3,29.4-.25,51.47-14.69,58.33-11.08,5.27-19.23,3.42-32.18-3.89-4.82-2.71-9.55-12.76-10.93-18.38l-5.73-15.66S554.34,356,587.79,346.38Z"/><polyline class="cls-39" points="616.83 398.23 620.86 405.66 617.38 408.48"/><path class="cls-10" d="M620.68,372.67s-1.17,2.91,3.37,3.44a40.89,40.89,0,0,1,7.57,1.24,2.83,2.83,0,0,0,3-.76h0a1.58,1.58,0,0,0,0-2.09,11.49,11.49,0,0,0-7.57-3.78C621.66,370,620.68,372.67,620.68,372.67Z"/><path class="cls-10" d="M607.06,372.59s1.54,2.89-4.81,3.5A100.25,100.25,0,0,0,589,378.64a5,5,0,0,1-4.18-.7h0a1.28,1.28,0,0,1,.08-2.1,30.58,30.58,0,0,1,13.38-5.09C605.76,370,607.06,372.59,607.06,372.59Z"/><path id="_Clipping_Path_17" data-name="&lt;Clipping Path&gt;" class="cls-1" d="M608.64,394.1s-3.17-11.6-18.38-2.92C590.26,391.18,596.67,401.71,608.64,394.1Z"/><g class="cls-41"><path class="cls-10" d="M605,392.06a4.79,4.79,0,1,1-5.4-4.26A4.87,4.87,0,0,1,605,392.06Z"/></g><path class="cls-10" d="M590.15,391a15.91,15.91,0,0,1,4.76-2.44,17.65,17.65,0,0,1,5.31-.89,10.47,10.47,0,0,1,5.21,1.43,7.15,7.15,0,0,1,3.23,4.4.36.36,0,0,1-.71.16h0v0a6.57,6.57,0,0,0-2.84-4,9.81,9.81,0,0,0-4.9-1.42,17.06,17.06,0,0,0-5.15.77,15.46,15.46,0,0,0-4.69,2.32.18.18,0,0,1-.24,0A.19.19,0,0,1,590.15,391Z"/><path id="_Clipping_Path_18" data-name="&lt;Clipping Path&gt;" class="cls-1" d="M620.18,393.85s4.41-11.61,12.92-3.75C633.1,390.1,628.35,401.11,620.18,393.85Z"/><g class="cls-42"><path class="cls-10" d="M623.34,391.31c-.37,2.46.9,4.7,2.85,5s3.83-1.46,4.21-3.92-.91-4.7-2.86-5S623.71,388.85,623.34,391.31Z"/></g><path class="cls-10" d="M633,390.19a7,7,0,0,0-1.13-1.24,5.5,5.5,0,0,0-1.41-.89,5.27,5.27,0,0,0-1.61-.39,4.66,4.66,0,0,0-1.63.13h0a7.58,7.58,0,0,0-3.94,2,9.87,9.87,0,0,0-1.45,1.71,9.67,9.67,0,0,0-1,2v0a.31.31,0,0,1-.57-.22h0a10.92,10.92,0,0,1,2.71-3.85,8.11,8.11,0,0,1,4.22-2h0a5.23,5.23,0,0,1,1.8-.11,5.36,5.36,0,0,1,1.71.46,5.46,5.46,0,0,1,1.49,1,7.68,7.68,0,0,1,1.16,1.32.16.16,0,0,1,0,.21.15.15,0,0,1-.2,0Z"/><path class="cls-43" d="M620.31,414.86a6,6,0,0,1-6.31,4.23,11.74,11.74,0,0,1-9.73-5.92Z"/><path class="cls-43" d="M604.91,413.17s14.24-2.48,15.15,1.52C620.06,414.69,610.14,416.2,604.91,413.17Z"/><path class="cls-39" d="M621.08,414.3s-7.57,3.64-17.31-1.73"/><path class="cls-10" d="M575.2,399.63s15.77-34-5.88-44.93c0,0-6.94-6.87-10.46,11.56C553.22,395.82,575.2,399.63,575.2,399.63Z"/><path class="cls-38" d="M579.56,407.29a33,33,0,0,0-4.94-11.36c-3.3-4.77-8-9.15-13.73-5.49-9.78,6.23,2.62,21.87,13.46,21.9,3.19,0,5.79-2.52,5.21-5Z"/><path class="cls-39" d="M563.69,398.34c7.65-2.73,11.86,5.83,11.86,5.83"/><path class="cls-1" d="M575.55,411.25a2.76,2.76,0,1,1-2.76-2.76A2.75,2.75,0,0,1,575.55,411.25Z"/><path class="cls-10" d="M571.82,356.17s19.11,7.9,35.4,0,25.88,7.08,25.88,7.08-5.81-23.8-32.8-21.94S571.82,356.17,571.82,356.17Z"/></svg>