<?xml version="1.0" encoding="utf-8"?>
<!-- Generator: Adobe Illustrator 25.1.0, SVG Export Plug-In . SVG Version: 6.00 Build 0)  -->
<svg version="1.1" id="Layer_1" xmlns="http://www.w3.org/2000/svg" xmlns:xlink="http://www.w3.org/1999/xlink" x="0px" y="0px"
	 viewBox="0 0 1920 950" style="enable-background:new 0 0 1920 950;" xml:space="preserve">
<style type="text/css">
	.st0{fill:#282828;}
	.st1{fill:#27A9E0;}
	.st2{fill:#8BA8D3;}
</style>
<g>
	<g id="Layer_1_1_">
		<path class="st0" d="M730.9,818.8c0,1.7-1.3,3-3,3s-3-1.3-3-3s1.3-3,3-3S730.9,817.1,730.9,818.8z"/>
		<path class="st1" d="M304.7,604.5c0,2.6-2.1,4.7-4.7,4.7c-2.6,0-4.7-2.1-4.7-4.7c0-2.6,2.1-4.7,4.7-4.7c0,0,0,0,0,0
			C302.6,599.8,304.7,601.9,304.7,604.5z"/>
		<path class="st1" d="M835.5,242.7c-2.8,1.8-6.5,0.9-8.3-1.9c-1.8-2.8-0.9-6.5,1.9-8.3c2.8-1.8,6.5-0.9,8.3,1.9c0,0,0,0,0,0
			C839.2,237.3,838.3,241,835.5,242.7z"/>
		<path class="st2" d="M146,141.6c0,3.9,3.1,7,7,7s7-3.1,7-7s-3.1-7-7-7S146,137.8,146,141.6z"/>
		<path class="st2" d="M146.2,142c0,0-4,2.3-2.1,7.6c0,0,1.2-4.9,5-3.8L146.2,142z"/>
	</g>
</g>
</svg>
