<?xml version="1.0" encoding="utf-8"?>
<!-- Generator: Adobe Illustrator 25.1.0, SVG Export Plug-In . SVG Version: 6.00 Build 0)  -->
<svg version="1.1" id="Layer_1" xmlns="http://www.w3.org/2000/svg" xmlns:xlink="http://www.w3.org/1999/xlink" x="0px" y="0px"
	 viewBox="0 0 1000 1000" style="enable-background:new 0 0 1000 1000;" xml:space="preserve">
<style type="text/css">
	.st0{opacity:0.5;fill:#EAE6FF;enable-background:new    ;}
	.st1{fill:#D0D2D3;}
	.st2{fill:#82A0C4;}
	.st3{fill:#8BA8D3;}
	.st4{fill:#B8D2E8;}
	.st5{fill:#A8B3C1;}
	.st6{fill:#FBFCFF;}
	.st7{fill:#E3F2FF;}
	.st8{opacity:0.25;fill:#949494;enable-background:new    ;}
	.st9{fill:#215B8A;}
	.st10{fill:#AEBECC;}
	.st11{fill:#1F739C;}
	.st12{fill:url(#SVGID_1_);}
	.st13{fill:#949494;}
	.st14{fill:#F5F7FF;}
	.st15{fill:#323657;}
	.st16{fill:#BDE1FF;}
	.st17{fill:#5FC8ED;}
	.st18{fill:url(#SVGID_2_);}
	.st19{fill:#E0E0E0;}
	.st20{fill:#4AAFFF;}
	.st21{fill:#0E2331;}
	.st22{fill:#27A9E0;}
	.st23{fill:#2D3038;}
	.st24{fill:#EEA886;}
	.st25{fill:#1D3B54;}
	.st26{fill:#122536;}
	.st27{fill:#282828;}
	.st28{fill:#FCCCA2;}
	.st29{fill:#06141C;}
	.st30{opacity:0.1;fill:#B8B8B8;enable-background:new    ;}
	.st31{opacity:0.3;fill:#869AC2;enable-background:new    ;}
	.st32{fill:#A77860;}
	.st33{fill:#CFBEB8;}
	.st34{fill:#EDDAD3;}
	.st35{fill:#C7B7B1;}
	.st36{fill:#202338;}
	.st37{fill:#5CAEF2;}
	.st38{fill:#169BBF;}
	.st39{fill:#2A617D;}
	.st40{fill:#D4D8E8;}
	.st41{fill:#A9ADBA;}
	.st42{fill:#6D6E70;}
	.st43{fill:#FFFFFF;}
</style>
<path class="st0" d="M619.2,157.4c-17.5,58.3-238,88.4-238,88.4S187.1,277.3,75.9,396.7C12.1,465.3-24.5,562.9,18.8,700.1
	C0,791.2,62.9,886.7,362,850.7c404.5-62,638,48.9,638,48.9V0C1000,0,636.7,99.1,619.2,157.4z"/>
<path class="st1" d="M850.7,669c0,14.3-60.5,25.8-135.2,25.8S580.3,683.3,580.3,669c0-14.3,60.5-25.8,135.2-25.8
	S850.7,654.8,850.7,669z"/>
<path class="st2" d="M624.2,512h182.6c3,0,5.4,2.4,5.4,5.4v118.3c0,3-2.4,5.4-5.4,5.4H624.2c-3,0-5.4-2.4-5.4-5.4V517.4
	C618.8,514.4,621.2,512,624.2,512z"/>
<path class="st3" d="M809.4,631.5c-0.1,2.8-2.4,5.1-5.2,5.1H626.9c-2.8,0-5.2-2.2-5.2-5.1V520.7c0.1-2.8,2.4-5.1,5.2-5.1h177.3
	c2.8,0,5.2,2.2,5.2,5.1L809.4,631.5z"/>
<rect x="627.4" y="520.3" class="st4" width="176.2" height="112.5"/>
<polygon class="st3" points="621.6,641.1 594.5,673.3 839.4,673.3 809.4,641.1 "/>
<polygon class="st5" points="627.5,644.1 614.4,660.8 820,660.8 805.6,644.1 "/>
<polygon class="st5" points="692.8,664.5 689.2,669 745.2,669 741.2,664.5 "/>
<rect x="594.5" y="673.3" class="st2" width="244.9" height="7.6"/>
<ellipse class="st1" cx="159.7" cy="700" rx="69.9" ry="14.1"/>
<path class="st3" d="M108.6,582.1h100.1c5,0,9,4,9,9v100.1c0,5-4,9-9,9H108.6c-5,0-9-4-9-9V591C99.7,586.1,103.7,582.1,108.6,582.1z
	"/>
<path class="st6" d="M164.7,599.4h42.2c1,0,1.8,0.8,1.8,1.8v9c0,1-0.8,1.8-1.8,1.8h-42.2c-1,0-1.8-0.8-1.8-1.8v-9
	C162.8,600.2,163.7,599.4,164.7,599.4z"/>
<path class="st6" d="M167,618.6h37.4c2.3,0,4.2,1.9,4.2,4.2v58.8c0,2.3-1.9,4.2-4.2,4.2H167c-2.3,0-4.2-1.9-4.2-4.2v-58.8
	C162.8,620.4,164.7,618.6,167,618.6z"/>
<path class="st7" d="M126.2,635.2c2.1,0.7,4.3,1.1,6.5,1.1c11.6,0.2,21.2-9.2,21.4-20.8c0,0,0,0,0,0c0-0.5,0-1,0-1.4
	c-0.6-11.6-10.6-20.5-22.2-19.9c-4.2,0.2-8.2,1.7-11.5,4.2c-9.3,7-11.2,20.2-4.1,29.6C118.7,631.3,122.2,633.8,126.2,635.2
	L126.2,635.2z M117.1,615c0.1-8.7,7.3-15.7,16-15.6c6.6,0.1,12.4,4.2,14.6,10.4l0,0c0.5,1.5,0.8,3,0.9,4.5c0,0.3,0,0.7,0,1.1
	c0.1,8.7-7,15.9-15.7,15.9c-8.7,0.1-15.9-7-15.9-15.7C117.1,615.5,117.1,615.2,117.1,615L117.1,615z"/>
<path class="st6" d="M145.4,624.9l4.2,3.2c-4.1,5.2-10.3,8.3-17,8.2c-2.2,0-4.4-0.4-6.5-1.1l1.7-5
	C134.3,632.4,141.3,630.2,145.4,624.9L145.4,624.9z"/>
<path class="st6" d="M148.7,614.4l5.3-0.3c0,0.5,0,1,0,1.4c-0.1,4.6-1.6,9-4.4,12.6l-4.2-3.2c2.1-2.7,3.3-6,3.3-9.5
	C148.8,615.1,148.8,614.7,148.7,614.4z"/>
<path class="st6" d="M148.7,614.4c-0.1-1.5-0.4-3.1-0.9-4.5l0,0l5-1.8c0.7,1.9,1.1,4,1.2,6.1L148.7,614.4z"/>
<path class="st7" d="M120.3,598.4c9.3-7,22.5-5.1,29.5,4.2c1.3,1.7,2.3,3.5,3,5.5l-5,1.8l0,0c-3-8.2-12.1-12.4-20.3-9.5
	c-1.5,0.5-2.9,1.3-4.2,2.3L120.3,598.4z"/>
<path class="st8" d="M796,747.1c0,7-38.1,12.6-85,12.6c-35,0-65-3.1-78-7.6c-38.7,5.1-113.7,8.6-199.9,8.6
	c-71.8,0-135.8-2.4-177.6-6.2c-14,5.3-54.9,9.1-103.1,9.1c-59.8,0-108.3-5.8-108.3-13.1c0-7.3,48.5-13.1,108.3-13.1
	c22.8,0,43.9,0.9,61.4,2.3c27-6.9,114.9-12,219.3-12c99.1,0,183.3,4.6,214.7,11c15.5-2.6,38.1-4.2,63.1-4.2
	C757.9,734.4,796,740.1,796,747.1z"/>
<path class="st9" d="M99.1,731.8c0,0,2.6-6.5,4.5-7.4c2-0.9,12.6,5.1,12.6,5.1s-5.9,6.5-5.6,7.5C110.9,738,99.1,731.8,99.1,731.8z"
	/>
<path class="st3" d="M702.6,363c-15.3,22-32.1,39.2-45.1,37.3c-0.8-0.1-1.5-0.3-2.2-0.5c-8-2.6-14.5-13.3-18-35.7
	c-9.4-59.5,22.1-81.2,48.5-110c26.1-28.3,0.9-58.8,0.2-59.6C759.5,256.8,728.6,325.6,702.6,363z"/>
<path class="st2" d="M657.5,400.3c-0.8-0.1-1.5-0.3-2.2-0.5c0.1-12.3,1.4-36.5,9.6-52.4c3.9-7.5,8.8-14.8,14.1-22.5
	c10-14.6,20.3-29.8,24.3-48l2.2,0.5c-4.1,18.6-14.6,33.9-24.6,48.8c-5.2,7.7-10.2,15-14,22.3C658.9,363.9,657.6,388.3,657.5,400.3z"
	/>
<path class="st3" d="M195.5,408.4c-13.3,20.5,14,59.4,20,67.5c0.7,1,1.1,1.5,1.1,1.5c-2.3,0.1-4.7,0.2-7,0.1
	c-39.6-1.5-91.5-34.1-79.6-68.4c12.6-36.3-21.8-49.2-38.9-73.5c-17.1-24.3,5.5-68.6,5.5-68.6s12.6,35.7,53.9,57.2
	C192.1,345.7,210.4,385.5,195.5,408.4z"/>
<path class="st2" d="M216.6,477.4c-2.3,0.1-4.7,0.2-7,0.1c-18.2-6.3-42.1-19.9-46-48c-1.4-10.1-2.2-18.7-2.9-26.2
	c-2.6-27.1-3.9-40.7-25.6-59.9l2.6-2.4c22.4,19.9,23.9,34.7,26.4,61.6c0.7,7.6,1.6,16.1,3,26.1c4.1,29,30.6,41.8,48.4,47.1
	C216.2,476.9,216.6,477.4,216.6,477.4z"/>
<path class="st3" d="M784.2,397.2c-26.8,15.2-53.4-0.5-70.9,53.1c-15.1,46.3-69.7,21.5-84.4,13.9c-2.3-1.2-3.7-1.9-3.7-1.9
	s0.7-0.1,1.9-0.2c7.7-1.1,36.2-6.7,35-29.5c-1.4-26.4,7.6-66.3,38.4-68.1c30.8-1.8,29.1-24.8,43.7-48s57.1-6,57.1-6
	S810.9,382,784.2,397.2z"/>
<path class="st2" d="M692,422.4c-1.9,11.4-3.9,23.2-14.7,33.2c-14.6,13.7-35.5,11.7-48.6,8.5c-2.3-1.2-3.7-1.9-3.7-1.9
	s0.7-0.1,1.9-0.2c12.5,3.4,34.2,6.4,49.2-7.6c10.3-9.6,12.3-21.1,14.1-32.3c2.2-12.9,4.4-26.2,19.6-36.1c6.7-4.4,13.4-6.3,19.9-8.1
	c9.3-2.6,18.2-5.1,25.2-15l1.4,1c-7.3,10.5-16.4,13-26.1,15.7c-6.4,1.8-12.9,3.6-19.4,7.9C696.3,396.9,694.2,409.3,692,422.4z"/>
<rect x="405.1" y="562.1" class="st10" width="56" height="170"/>
<path class="st11" d="M658.5,644H207.6c-9,0-16.3-7.3-16.3-16.3V319.2c0-9,7.3-16.3,16.3-16.3h450.9c9,0,16.3,7.3,16.3,16.3v308.5
	C674.8,636.7,667.5,644,658.5,644z"/>
<linearGradient id="SVGID_1_" gradientUnits="userSpaceOnUse" x1="210.3152" y1="571.4178" x2="655.8596" y2="571.4178" gradientTransform="matrix(1 0 0 -1 0 1000)">
	<stop  offset="0" style="stop-color:#FFFFFF"/>
	<stop  offset="1" style="stop-color:#F2F5FF"/>
</linearGradient>
<rect x="210.3" y="266.6" class="st12" width="445.5" height="323.9"/>
<rect x="210.3" y="266.6" class="st11" width="445.5" height="39.1"/>
<path class="st13" d="M417.5,615c0,8.6,7,15.5,15.5,15.5c8.6,0,15.5-7,15.5-15.5s-7-15.5-15.5-15.5
	C424.5,599.4,417.5,606.4,417.5,615z"/>
<rect x="307.2" y="725.7" class="st10" width="251.9" height="12.8"/>
<path class="st14" d="M232.4,278.8h56.5c1.9,0,3.5,1.6,3.5,3.5v7.8c0,1.9-1.6,3.5-3.5,3.5h-56.5c-1.9,0-3.5-1.6-3.5-3.5v-7.8
	C228.9,280.4,230.5,278.8,232.4,278.8z"/>
<path class="st15" d="M156.8,587.4L156.8,587.4C156.9,587.4,156.9,587.4,156.8,587.4z"/>
<path class="st15" d="M180.8,594.3L180.8,594.3C180.9,594.3,180.9,594.3,180.8,594.3z"/>
<rect x="379.4" y="438.5" class="st16" width="1.4" height="130.2"/>
<rect x="415.6" y="438.5" class="st16" width="1.4" height="130.2"/>
<rect x="451.9" y="438.5" class="st16" width="1.4" height="130.2"/>
<rect x="488.2" y="438.5" class="st16" width="1.4" height="130.2"/>
<rect x="524.5" y="438.5" class="st16" width="1.4" height="130.2"/>
<rect x="560.8" y="438.5" class="st16" width="1.4" height="130.2"/>
<rect x="597" y="438.5" class="st16" width="1.4" height="130.2"/>
<rect x="633.3" y="438.5" class="st16" width="1.4" height="130.2"/>
<polygon class="st17" points="380.1,525.6 404.8,500.9 416.8,512.9 443.1,486.6 463.9,507.4 490.6,480.8 508.8,499 555.3,452.5 
	590.2,487.4 611.3,466.3 634,489 634,568.7 380.1,568.7 "/>
<linearGradient id="SVGID_2_" gradientUnits="userSpaceOnUse" x1="649.7879" y1="487.6463" x2="457.2873" y2="487.6463" gradientTransform="matrix(1 0 0 -1 0 1000)">
	<stop  offset="0" style="stop-color:#1F739C"/>
	<stop  offset="1" style="stop-color:#27A9E0"/>
</linearGradient>
<polygon class="st18" points="380.1,541.9 399.8,522.2 412.3,534.7 426.8,520.2 454,547.4 488,513.4 500.2,525.6 535.4,490.5 
	567.4,522.6 634,456 634,568.7 380.1,568.7 "/>
<rect x="483.1" y="340.8" class="st19" width="9.5" height="62.9"/>
<rect x="506.7" y="353.6" class="st19" width="9.5" height="50.1"/>
<rect x="530.3" y="344.2" class="st19" width="9.5" height="59.6"/>
<rect x="553.8" y="362.8" class="st19" width="9.5" height="41"/>
<rect x="577.4" y="346.1" class="st19" width="9.5" height="57.6"/>
<rect x="601" y="337.4" class="st19" width="9.5" height="66.3"/>
<rect x="624.5" y="333.8" class="st19" width="9.5" height="69.9"/>
<rect x="483.1" y="364.2" class="st20" width="9.5" height="39.5"/>
<rect x="506.7" y="372.3" class="st20" width="9.5" height="31.5"/>
<rect x="530.3" y="366.4" class="st20" width="9.5" height="37.4"/>
<rect x="553.8" y="378" class="st20" width="9.5" height="25.7"/>
<rect x="577.4" y="367.6" class="st20" width="9.5" height="36.1"/>
<rect x="601" y="362.1" class="st20" width="9.5" height="41.6"/>
<rect x="624.5" y="359.9" class="st20" width="9.5" height="43.9"/>
<path class="st21" d="M749.4,573.8c0,0-9.1-20.7,1.5-19c2.9,2.6,5.3,5.7,7.3,9.1c2.8,4.6,8.6,16.8,8.4,20.9s-3.1,7.2-6.3,13.8
	c0,0-6.6,12.3-6.8,13.8l-7-3.6c0,0,5.9-11.7,10-22.1L749.4,573.8z"/>
<rect x="722.9" y="541" transform="matrix(0.1678 -0.9858 0.9858 0.1678 8.3319 1233.8126)" class="st22" width="24.1" height="141.9"/>
<rect x="652" y="595.8" transform="matrix(0.168 -0.9858 0.9858 0.168 -41.0211 1150.6516)" class="st23" width="18.3" height="7.6"/>
<path class="st24" d="M696.5,749.1h-1.7c0,0,0.6-6.5-1-6.6c-1.5-0.1-5.6,5.3-7.9,6.1s-14.5,1.5-14.6-0.7c-0.1-2.2,4.7-3.1,6.1-3.8
	c1.5-0.6,8.6-7.6,9.9-8.4s3.5-6.6,3.5-6.6l6.8-0.3c0,0,0.4,5.4,0.8,8.2c0.1,0.9,0.2,1.8,0.3,2.7
	C698.6,742.2,696.5,749.1,696.5,749.1z"/>
<path class="st24" d="M740.1,747.8h-1.4v-6.1c-1.2,0.1-5.2,3.9-6.5,5c-1.2,1.1-2.9,1-8.2,1.4c-5.3,0.3-5.7-2.8-4.9-3.9
	c0.8-1.1,3.5-1.5,4.9-2.2c1.4-0.7,6.9-6.9,8.4-8.3s2.4-5.7,2.4-5.7l6.1,0.5c0,2.4,0.2,4.7,0.7,7.1l0,0l0,0c0.1,0.3,0.1,0.5,0.2,0.8
	C742.6,739.9,740.1,747.8,740.1,747.8z"/>
<path class="st25" d="M717.4,610.5c-1,2.2-1.8,4.5-2.5,6.9c-0.2,1.4-5.6,14.5-7.2,23.3c-1,5.3-3.5,21.8-3.7,23.9
	c-0.4,3.6-2,11.5-2.3,15.2c-0.1,2.1-10.3,33.6-12.7,50.1c0,0,5.8,0.9,10.2-0.3c6.3-13.1,11-26.9,13.8-41.2c3-14.6,5.6-22.3,7.9-28.3
	s15.3-23,16.7-24.9c1.4-1.9,9.9-12.4,1.8-23.9C731.3,600.1,717.4,610.5,717.4,610.5z"/>
<path class="st25" d="M746.6,659c-0.7,4.9,0,11.4,1.6,29.3c1.6,18-2.7,39.7-2.7,39.7c-5.3,1.8-11.5,0-11.5,0c0.1-1.3,0-43.8,0-47.6
	s-1.1-8.1-1.4-12.4c-0.2-3-1.6-8.4-3.1-14c-0.5-1.7-1-3.4-1.4-5l0,0c-0.3-0.9-0.5-1.8-0.8-2.7c-2.2-7.6-5.1-36.8-5.1-36.8
	s16.3-13.1,24.2-0.8c7.9,12.3,3.9,21.4,3.6,22.9S747.3,654.1,746.6,659z"/>
<path class="st26" d="M739.8,632.6c-0.1,0.3-8.2,18.3-10.3,21.4c-0.5-1.7-1-3.4-1.4-5l0,0C728.1,649.1,739.6,633,739.8,632.6z"/>
<path class="st27" d="M740.1,747.8h-1.4v-6.1c-1.2,0.1-5.2,3.9-6.5,5c-1.2,1.1-2.9,1-8.2,1.4c-5.3,0.3-5.7-2.8-4.9-3.9
	c0.8-1.1,3.5-1.5,4.9-2.2c5.6,0.3,12.4-7.6,15.7-7.6c1.7,0,1.7,1,1.8,1.2l0,0l0,0c0.1,0.3,0.1,0.5,0.2,0.8
	C742.6,739.9,740.1,747.8,740.1,747.8z"/>
<path class="st27" d="M696.5,749.1h-1.7c0,0,0.6-6.5-1-6.6c-1.5-0.1-5.6,5.3-7.9,6.1s-14.5,1.5-14.6-0.7c-0.1-2.2,4.7-3.1,6.1-3.8
	c5,0,13.1-5.5,15.7-6.6c1.7-0.7,3.5-0.8,5.2-0.4c0.1,0.9,0.2,1.8,0.3,2.7C698.6,742.2,696.5,749.1,696.5,749.1z"/>
<path class="st24" d="M731.8,541.8c0,0,2.6,6.9,0.6,12.2c0,0,9.5-0.6,9.9-1.7s-0.4-11.4,1-14.5C744.6,534.8,731.8,541.8,731.8,541.8
	z"/>
<path class="st21" d="M730.9,551.7c0,0-5.6,2-8.2,2.6c-2.5,0.6-7.9,3.1-7.4,12.6c0.5,7.3,1.3,14.6,2.6,21.8
	c0.6,4.1,0.2,14.5-0.7,19.5c9.7,2,19.7,2,29.4,0c0,0-2.8-8.6-2.7-10.8c0.1-2.2,9.4-20.5,9.8-23.4c0.4-2.9,2.3-15.7-1.9-18.5
	s-7.8-2.4-9.5-3.7C740.4,550.4,733.5,550.8,730.9,551.7z"/>
<path class="st21" d="M752.6,623.1c-23.1,6.1-41.4,0-41.4,0c1.6-3.3,2.9-6.7,3.8-10.2l0,0c0.6-2.2,1.1-4.5,1.4-6.8l0,0
	c1.1-7.4,1-14.9-0.6-22.2c2.7-21.9,35.8-28.5,38.5-21.5c2.7,6.9-5.1,36.8-5.5,39.4C748.4,604.3,752.6,623.1,752.6,623.1z"/>
<path class="st24" d="M740.1,514.2c-3.8-1.3-14.2-2.7-16.8,13.2c-2.7,15.9,3.1,16.2,9.1,15.7c5.9-0.5,15.2-11.2,15.9-14.4
	C749,525.4,751,518,740.1,514.2z"/>
<path class="st28" d="M725.4,520.3c0,0,3.2,6.8,7.3,9.1c0,0,2.6,7.2,8.2,10.1c0,0,14.9-9.9,6.3-21.7
	C738.5,506.1,726.4,515.5,725.4,520.3z"/>
<path class="st24" d="M732.4,527.1c0.3-0.8,2.6-2.2,3.6,0.1c1,2.3-2.6,6.3-3.6,6.1C731.4,533,731.1,530.2,732.4,527.1z"/>
<path class="st28" d="M746.7,519.7c0.3-0.5,10.2-5.1,12.3,4.5c2.1,9.6-8,20.7-9.7,25.5s0.8,16,0.8,16s-6-5.7-7.9-11.7
	C740.2,547.5,739.5,530.9,746.7,519.7z"/>
<path class="st22" d="M747.2,519.4c-1.9,1.6-3.1,3.8-3.4,6.2c0,0-0.6-2.9,0.7-4.8C745,519.8,746.1,519.2,747.2,519.4z"/>
<path class="st29" d="M715,612.9c0.6-2.2,1.1-4.5,1.4-6.8l0,0c0,0,1.5-3.2,2-4.8c0.5-1.5,4.3-20.5,4.3-20.5S726.8,598.6,715,612.9z"
	/>
<path class="st24" d="M698,614c0,0-3,2.9-3.9,3.3c-1,0.3-2.8-1.3-9.6-1.8c-0.6,0-1.7,0.5-1.4,1.3c0.3,0.8,3.2,2.9,4.5,3.3
	c1.3,0.4,7.3,2.7,10.2,1.5c2.9-1.2,4.9-4.9,4.9-4.9L698,614z"/>
<path class="st21" d="M721.1,554.7c0,0-7.9,3.1-8.4,14.1c-0.5,11-0.9,16.7-1.3,18.4c-0.4,1.7-1.3,8.5-3.2,12.6
	c-2,4.1-14.6,16.5-14.6,16.5l6.1,5.8c0,0,17.6-17.7,18.7-20.9c1.1-3.2,5.5-25.8,5.8-29.6C724.6,568.6,728.6,555,721.1,554.7z"/>
<circle class="st30" cx="573.4" cy="580" r="76.8"/>
<path class="st31" d="M622.8,525.7c0,0-95.2-11.8-114.2,88.7l0,0c-19-35.8-5.4-80.2,30.4-99.3C566.3,500.6,599.8,504.8,622.8,525.7z
	"/>
<path class="st27" d="M573.4,492.2c-48.5,0-87.8,39.3-87.8,87.8c0,48.5,39.3,87.8,87.8,87.8c48.5,0,87.8-39.3,87.8-87.8
	C661.2,531.5,621.9,492.2,573.4,492.2C573.4,492.2,573.4,492.2,573.4,492.2z M573.4,653.5c-40.6,0-73.5-32.9-73.5-73.5
	s32.9-73.5,73.5-73.5c40.6,0,73.5,32.9,73.5,73.5C646.9,620.6,614,653.5,573.4,653.5C573.4,653.5,573.4,653.5,573.4,653.5z"/>
<path class="st10" d="M441.7,327.3c0,0,5.3,9,7.5,10.4c3,1.9,1.1,4-0.3,4c-1.4,0-8.7,0.5-10.4-1.3c-1.7-1.8-2.4-7.3-3.9-8.7
	c-1.5-1.4-3.1-7.2,0.7-8.5C438.7,321.8,441.7,327.3,441.7,327.3z"/>
<path class="st27" d="M439.5,323.1c0,0,6.1,10.5,7.1,12c1,1.6-1.9,1.5-3.8,0.8c-1.9-0.7-6.6-8.3-7.2-9.6c-0.5-1.1-0.5-2.4-0.1-3.5
	L439.5,323.1z"/>
<polygon class="st13" points="433.3,329 434.7,339.7 435.4,339.8 435.2,332 "/>
<path class="st10" d="M389.3,327.3c0,0,5.3,9,7.5,10.4c3,1.9,1.1,4-0.3,4s-8.7,0.5-10.4-1.3c-1.7-1.8-2.4-7.3-3.9-8.7
	c-1.5-1.4-3.1-7.3,0.7-8.5C386.3,322,389.3,327.3,389.3,327.3z"/>
<path class="st27" d="M387.3,323.1c0,0,5.7,10.5,6.8,12s-1.9,1.5-3.8,0.8c-1.9-0.7-6.5-8.3-7.2-9.6c-0.5-1.1-0.5-2.4-0.1-3.5
	L387.3,323.1z"/>
<polygon class="st13" points="380.9,329 382.3,339.7 383,339.8 382.8,332 "/>
<path class="st27" d="M435.3,323c0,0-13.8-29.4-15.7-47.9c-0.1-1.1-0.4-2.2-1-3.3c-1.1-2-2.9-3.6-5-4.4l-47.8-21.8
	c0,0,10.4-7.9,30.7-7.4c0,0,27,11,33.6,16.3c0.9,0.7,1.4,1.3,1.4,1.8c0,0.7,0.2,2.8,0.5,6c1.2,14.9,4.6,51.9,7.4,60.9
	C439.5,323.3,439.8,325.2,435.3,323z"/>
<path class="st27" d="M356.9,255.1c1.5,12.9,19.9,11.5,19.9,11.5h22.3c0,0-5.8,13.1-8.1,24.1c-2.4,11.7-8.1,32.4-8.1,32.4
	s0.4,0.7,4.4,0.3c0,0,17.6-35,24.3-43.8c1.4-1.9,5.6-12.2,6.3-18.3c0.2-2.1,0.1-3.7-0.7-4.3c-1.6-1.2-3.2-2.3-4.9-3.4
	c-7-4.4-19.2-11.2-25.9-12.7c-9.1-2-23.4-5.8-23.4-5.8S355.4,242.2,356.9,255.1z"/>
<path class="st21" d="M396.8,266.5h-20c0,0-18.5,1.5-19.9-11.5c-1.5-12.9,6.1-20.1,6.1-20.1s9.7,2.6,18.3,4.7
	c5.1-1,10.2-1.5,15.4-1.3c0,0,32.8,3.3,35,18.2C431.6,256.5,416.5,248.4,396.8,266.5z"/>
<path class="st28" d="M382.2,135c0,0-8.7-1.4-12.4,5.5c-3.7,6.9,0.2,11-1.2,13.4c-1.4,2.4-6.6,5.6-5.9,9.3s6.5,7.9,5,11.2
	s-2.4,5.5-2.3,5.7s35.4,6.3,35.4,6.3s-2.6-4.9-4.8-7c-2.2-2-4.5-2.6-1.8-9.7c2.7-7.1,5.1-10.5,3.9-15.8s-0.7-10.2-6-15
	C389.3,136.5,385.8,135.1,382.2,135z"/>
<path class="st25" d="M362.9,235c3,4.3,13.6,5.1,22.1,4.8l0,0c1.7-0.1,3.4-0.2,4.9-0.3c5.2,5.2,4.9,4.4,5.7,5.4
	c0.6,0.7,5.5-3.1,6.3-3.7c0.4-0.3,0.8,1.1-4.4-5l-0.2-0.3c0.2-2.8,0.2-7.3,0.4-10.5c0-1,0.2-2.1,0.5-3.1c0.9-2.8,1.5-5.6,1.9-8.5
	c1.8-2.5,3.2-5.3,4.2-8.3c1.1,1.4,2,2.9,2.8,4.5c0.5,0.9,1,1.9,1.4,2.8l0,0c2.3,4.7,4.5,9.7,5.2,11.5c3.9,9.9,9.6,22.1,9.6,22.1
	s5.8-0.6,5.5-0.7c-0.4-0.1-7.3-20.2-10.2-26.8c-0.6-1.3-10-30.7-15.3-36.6c-5.7-6.3-17.8-10-17.8-10l-13.1-0.4c0,0-10,1.4-14,7.8
	c-3.6,5.8,0.3,17.9,11.2,35.6c-1.3,5.5-3.5,10.3-3.7,11.7C364.8,233.7,362.9,235,362.9,235z M370.1,200.8l-1.1-1.5l0,0l0,0
	c0.3,0.3,0.6,0.6,0.8,0.9C369.9,200.4,370,200.6,370.1,200.8L370.1,200.8z"/>
<path class="st24" d="M372.4,159.8c2.6,7.1,0,12.1,0,12.1c0.5,4.3,12.6,17,13.8,15.6c0.9-1.1-0.1-10.3-0.6-13.8l-0.2-1.4
	c0-0.6,0-1.1,0.1-1.7l0,0c0.1-0.7,0.3-1.4,0.6-2.1c0,0-10.3-10-13.3-10.7C372.2,157.8,371.9,158.4,372.4,159.8z"/>
<path class="st25" d="M358.3,192c0,0,10.1,20.2,7.7,34.8c-1.2,7.4,10.4-25.8,10.4-25.8L358.3,192z"/>
<path class="st24" d="M388.5,140.4c0,0,8.9,7.5,3.9,22.3c-5,14.9-15.5,4.7-16.5,3.5c-1.6-1.7-3.8-10.5-3.4-14.7
	C372.7,147.7,372.6,131.7,388.5,140.4z"/>
<path class="st28" d="M387.4,143.4c-1-0.4-5.2,5.8-7.2,7.2c-2,1.4-6.7,5.8-7.6,10.2c-0.9,4.4-2.1-11-0.2-16.1
	c1.9-5.1,4.6-12.6,15.7-5.1s6.7,18.2,6.7,18.2S392.4,145.5,387.4,143.4z"/>
<path class="st24" d="M377.7,151.6c-0.1-1.8-3.9-3.9-4.2-1.1s1.6,6.1,2.8,6.1C377.6,156.5,377.8,153.3,377.7,151.6z"/>
<path class="st26" d="M369,199.3L369,199.3L369,199.3c0.1,0.1,0.5,0.7,1.2,1.7c3.1,4.4,11.1,15.8,14,19.3l0,0l11.8,14l1.3,1.6
	c0.2-2.8,0.2-7.3,0.4-10.5c-3.2-1.7-13.3-8-28-25.3L369,199.3L369,199.3z"/>
<path class="st26" d="M373.7,221.7l11.4,18l0,0c1.7-0.1,3.4-0.2,4.9-0.3c0,0-13.4-13.4-14.3-14.7L373.7,221.7z"/>
<path class="st32" d="M374.6,163.9c0,0,0.5,7.7,11.1,9.8l-0.2-1.4c0-0.6,0-1.1,0.1-1.7l0,0c-1.7,0.1-3.3-0.1-4.9-0.8l0,0
	c-1-0.4-1.9-1-2.8-1.7C376.6,167,375.4,165.6,374.6,163.9z"/>
<path class="st26" d="M404.4,205.5c1.1,1.4,2,2.9,2.8,4.5c0.5,0.9,1,1.9,1.4,2.8c0.4-6.4-1.2-12.8-4.4-18.3
	C405.2,196.8,404.4,205.5,404.4,205.5z"/>
<path class="st25" d="M423.3,246.4c0,0,4.4,0.7,5.5-0.7l-2.8-7.1l-5.7,1.1L423.3,246.4z"/>
<polygon class="st33" points="382.7,249.7 421.2,245.5 403.8,258.6 "/>
<polygon class="st34" points="403.8,258.6 382.7,252 382.7,249.7 404.5,256.2 "/>
<path class="st24" d="M408.2,243.5c0.7,0.6,1.5,1.3,2.1,1.9c0.4,0.5,2.2,2.5,2.6,2.9s-1,0.8-4.2-1.8S408.2,243.5,408.2,243.5z"/>
<path class="st24" d="M397.6,239.5c0,0,3,0.8,5.1,1.2c1.6,0.3,5.4,2.2,6.2,3.4c0.8,1.2,2.8,8,3.4,8.6s-0.5,1-1.5,0.2
	c-0.7,1.1-2.2,1.3-3.2,0.6c-0.1-0.1-0.3-0.2-0.4-0.3c-2.2-1.9-3.2-4.6-4.4-5.5s-8.1-5.4-8.1-5.4S395.8,238.2,397.6,239.5z"/>
<polygon class="st34" points="403.8,258.6 415.1,220 457.8,215.8 446.1,251.4 "/>
<path class="st35" d="M436.5,235.6c-0.8,2.2-2.5,3.6-3.7,3.1c-1.2-0.5-1.6-2.6-0.7-4.9s2.5-3.6,3.7-3.1
	C437,231.3,437.4,233.4,436.5,235.6z"/>
<path class="st25" d="M402,240.6c-2,1.5-4,3.1-5.7,4.9c0,0-8.2-8.1-9.1-8.9l9.1-1.9L402,240.6z"/>
<path class="st36" d="M418.7,271.9L418.7,271.9c-0.6-1.2-1.5-2.2-2.6-3c0,0,2.3-6.7,1.8-10.6C418.6,262.8,418.9,267.4,418.7,271.9z"
	/>
<path class="st19" d="M381.1,396.7h58.6c0.5,0,1,0.4,1,1v5.1c0,0.5-0.4,1-1,1h-58.6c-0.5,0-1-0.4-1-1v-5.1
	C380.1,397.1,380.5,396.7,381.1,396.7z"/>
<path class="st19" d="M381.1,383.2h69.6c0.5,0,1,0.4,1,1v5.1c0,0.5-0.4,1-1,1h-69.6c-0.5,0-1-0.4-1-1v-5.1
	C380.1,383.7,380.5,383.2,381.1,383.2z"/>
<path class="st19" d="M381.1,369.8h47.7c0.5,0,1,0.4,1,1v5.1c0,0.5-0.4,1-1,1h-47.7c-0.5,0-1-0.4-1-1v-5.1
	C380.1,370.2,380.5,369.8,381.1,369.8z"/>
<path class="st19" d="M361.7,569.4H232.5c-4.4,0-8-3.6-8-8V325.3c0-4.4,3.6-8,8-8h129.2c4.4,0,8,3.6,8,8v236.1
	C369.7,565.8,366.2,569.4,361.7,569.4z M232.5,318.8c-3.6,0-6.5,2.9-6.5,6.5v236.1c0,3.6,2.9,6.5,6.5,6.5h129.2
	c3.6,0,6.5-2.9,6.5-6.5V325.3c0-3.6-2.9-6.5-6.5-6.5L232.5,318.8z"/>
<path class="st22" d="M308.4,353.2c-7.1-19.8-28.9-30.1-48.7-23c-19.8,7.1-30.1,28.9-23,48.7c0.3,0.8,0.6,1.6,1,2.4
	c8.3,19.3,30.7,28.2,50.1,19.9C306.2,393.2,315.3,372.2,308.4,353.2L308.4,353.2z M282.1,392.9c-14.2,5.1-29.8-1.7-35.8-15.5
	c-0.3-0.6-0.5-1.2-0.7-1.8c-5.3-14.9,2.4-31.2,17.3-36.5c14.7-5.7,31.3,1.6,37,16.3c5.7,14.7-1.6,31.3-16.3,37
	C283.1,392.6,282.6,392.7,282.1,392.9L282.1,392.9z"/>
<path class="st21" d="M245.2,357.5l-9.1-2.8c4.8-15.5,19-26.3,35.3-26.8l0.3,9.5c-3,0.1-5.9,0.7-8.7,1.7
	C254.5,342.1,247.9,348.9,245.2,357.5z"/>
<path class="st11" d="M246.3,377.4l-8.7,3.8c-0.3-0.8-0.7-1.6-1-2.4c-2.8-7.8-3-16.3-0.5-24.2l9.1,2.8c-1.9,5.9-1.7,12.3,0.4,18.1
	C245.8,376.2,246,376.8,246.3,377.4z"/>
<path class="st37" d="M243.4,390.7c-2.4-2.9-4.4-6.1-5.9-9.5l8.7-3.8c1.1,2.6,2.6,5,4.4,7.1L243.4,390.7z"/>
<path class="st22" d="M349.6,365.6c-7.4-3.5-16.1-1.8-21.7,4.1c-7.1,7.6-6.8,19.4,0.8,26.5c1.4,1.3,3.1,2.5,4.8,3.3
	c0.4,0.2,0.8,0.3,1.2,0.5c9.6,3.9,20.5-0.8,24.4-10.4C362.9,380.4,358.7,369.8,349.6,365.6z M354.3,388.6c-3.2,6.7-11,9.8-17.9,7.1
	c-0.3-0.1-0.6-0.2-0.9-0.4c-7-3.3-10-11.7-6.7-18.7c0.6-1.3,1.5-2.6,2.5-3.6c5.3-5.6,14.3-5.9,19.9-0.5
	C355.7,376.6,356.9,383.1,354.3,388.6L354.3,388.6z"/>
<path class="st21" d="M329.1,389.1l-4.2,2.2c-3.7-7.1-2.6-15.7,2.9-21.6l3.4,3.2c-1,1.1-1.8,2.3-2.5,3.6
	C326.9,380.6,327.1,385.2,329.1,389.1z"/>
<path class="st11" d="M336.5,395.7l-1.7,4.4c-0.4-0.2-0.8-0.3-1.2-0.5c-3.7-1.7-6.7-4.6-8.6-8.3l4.2-2.2c1.4,2.7,3.7,4.9,6.4,6.2
	C335.9,395.5,336.2,395.6,336.5,395.7z"/>
<path class="st37" d="M340.1,401.3c-1.8-0.1-3.6-0.6-5.4-1.2l1.7-4.4c1.3,0.5,2.6,0.8,4,1L340.1,401.3z"/>
<path class="st24" d="M231.6,533.5c0,0,11.6,2.1,11.7,11.9c0.1,9.8-8.9,24.1-14.7,23c-5.8-1.1-12.5-6.2-12.3-12.2s1.9-13.8,4.6-18.1
	C223.6,533.7,228.4,533.3,231.6,533.5z"/>
<path class="st27" d="M216.8,551.6c0,0,0,2,4,3.6s11.3-0.6,13.2-0.3c1.8,0.4,2.4-0.5,2.4-0.5l0.1,1.9l1.6,1.1c0,0,1.1-5.2,4.4-5.7
	c3.3-0.4,6-15.4-8.1-18.3c0,0-10.5-2.8-13.2,2.5C218.4,541.3,216.3,547.9,216.8,551.6z"/>
<path class="st24" d="M253.3,610.5c0.7-0.1,1.3-0.4,1.8-0.8c1.1-1.2,1.3-3.6,3.5-3.8c2.3-0.2,4.4,6.8,4.1,8.2
	c-0.4,1.4-3.4,2.6-8.2,2.4C249.6,616.2,253.3,610.5,253.3,610.5z"/>
<path class="st24" d="M257.8,606c2.2-1.1,4.5-2.1,6.8-3c3.2-1.2,7.2-2.1,7.6-1.5c1,1.2-2.8,2.1-5.9,3.5c-2.9,1.3-2.4,1.1-2.4,1.1
	s-0.2-0.1,3.1-0.9c3.6-0.9,7.4-1.4,7.9-0.8c0.2,0.3,0.7,1.5-0.9,1.4c0.8-0.2,0.7-0.3,0.7,0c0.4,1.6-4.7,3.7-6.8,4.6
	c1.6-0.6,2.8-1,2.4,0.3c-0.5,1.4-7.9,4-10.5,5.2C257.2,617.3,257.8,606,257.8,606z"/>
<path class="st22" d="M202.9,562.4c-4.1-0.3-8.2-0.3-12.4,0c-5.1,0.5-12.2,4.7-16.5,5.9s-14.6,8.2-14.3,9.1
	c2.7,7.7,6.7,14.9,11.7,21.4C177.8,606.7,202.9,562.4,202.9,562.4z"/>
<path class="st38" d="M187.3,567c0,0-7.8,5.8-10.5,11.1c-1.8,3.7-3,7.6-3.7,11.7L187.3,567z"/>
<path class="st27" d="M193.2,739.3c1,1.1,2.2,2.1,3.5,3c1.3,0.6,16.7,3.3,17.7,4.5c1,1.3,1,6.2-2.9,6.2c-4,0-17.2-0.1-19.4,0
	c-2.2,0.1-11.7,1.9-12.6,0c-1-1.9-0.9-11.1,0.8-13.3C182.1,737.6,193.2,739.3,193.2,739.3z"/>
<path class="st39" d="M192.7,736.5l0.5,2.8c0,0-4.1,1.9-12.9,0.5v-2.9L192.7,736.5z"/>
<path class="st27" d="M99.1,731.6c0,0-2.4,2.9-2.6,4.6c-0.1,1.7-3.1,9.4-2,11.3c1.1,1.9,9.9,2.2,14.3,1.5s14,0.8,14.9-1.1
	s1.5-4.6-1.3-5.7c-2.9-1.1-9.4-3.9-10.6-6.8C110.6,732.4,99.1,731.6,99.1,731.6z"/>
<path class="st24" d="M216.4,557.1c0,0-7,6-9,5.5c-2-0.5,6.9,12.6,6.9,12.6s8.5-8.3,10.4-8.6C226.5,566.4,216.4,557.1,216.4,557.1z"
	/>
<path class="st22" d="M216.9,580.6c-2.4,1.4-2.8,1.9-2.5,8.7c0.3,6.8,3.1,12.3,3.3,14.2s4,20.6,5.1,21.6s13.6-1.4,16.1-2.2
	c3.8-1.2,19.8-6.6,19.8-6.6l-3.5-7.3c0,0-20.2,4.5-20.9,2.9s-2.2-14.9-2.8-17.7c-0.6-2.9,0.4-7.4-3-14.3
	C225.3,573.9,216.9,580.6,216.9,580.6z"/>
<path class="st11" d="M193.1,632.1c0,0,4.3,4.6,5.5,6c8.2,10.2,19.4,28.8,20.8,32.1c1.4,3.3-6.9,26.2-10.3,34.3
	c-1.8,4.2-13.6,33.3-13.3,33.9s-12.5,1.1-18.3-1.9c0,0,8.3-24.6,10-29.4c2.6-7.3,11.8-27.4,12.1-29.4c0.3-2-14.7-18.1-19.8-21.1
	s-17.3-13.9-18.7-15.3c-1.4-1.4-9.3-5.1-8.5-12.2c0.7-7.1,6-12.6,6-12.6L193.1,632.1z"/>
<path class="st11" d="M170.6,649.5c0,0-0.8,2.1-1.9,5c-2.4,6.2-6.2,16.2-6.8,17.8c-1,2.3-5.6,12.4-7.8,14.3s-39,46-39.1,46.4
	c-0.1,0.4-13.8-6.7-14.6-9.4c0,0,19.9-25.9,23-29.8s9.5-9.5,11.7-18.5c2.2-9,17.5-43.7,17.5-45c0,0,2.5-10.7,6.1-14
	c3.6-3.3,16.6,0.6,18.6,7.3C179.4,630.6,170.6,649.5,170.6,649.5z"/>
<path class="st40" d="M206.7,562.5l2.9-1.2c0,0,7.5,1.7,11.8,7.7l-0.4,1.8C221.1,570.8,209.7,568.4,206.7,562.5z"/>
<path class="st41" d="M218.2,606.2c-0.4,0.6-0.9,1.2-1.4,1.7l-0.8,0.6l0,0l-0.3-11.2c0,0,1.4,4.3,1.6,5
	C217.6,602.9,218.2,606.2,218.2,606.2z"/>
<path class="st9" d="M170.6,649.5c0,0-0.8,2.1-1.9,5c-2.5-2.9-8.2-13.7-8.2-13.7c0.4,0.3,1.6,1.4,1.8,1.6
	C162.6,642.6,170.6,649.5,170.6,649.5z"/>
<path class="st24" d="M234.5,554.1c0.3-0.8-0.4-4.1-2.4-2.3c-2.1,1.9-2.1,6-0.9,6.4C232.3,558.5,233.8,556.2,234.5,554.1z"/>
<path class="st27" d="M226.7,535.8c0,0-10.1-7.2-10.1,17.2L226.7,535.8z"/>
<path class="st22" d="M218.2,606.2c-0.4,0.6-0.9,1.2-1.4,1.7l-0.8,0.6l0,0c-3.9,3-7.9,5.8-12.2,8.3c-3.3,1.8-9.4,16.7-9.4,16.7
	s-29.1-1.9-35.8-17c0,0,4.7-10.6,9.1-16.9c4.3-6.3,13.8-28.9,18.8-32.1c5-3.2,9.3-5.3,19.2-5c9.9,0.3,15.4,8.1,15.4,8.1
	s7.5,8.1,8.3,12.4C230.1,586.6,221.9,601,218.2,606.2z"/>
<path class="st19" d="M237.1,426.6h91.1c1.4,0,2.5,1.1,2.5,2.5v4c0,1.4-1.1,2.5-2.5,2.5h-91.1c-1.4,0-2.5-1.1-2.5-2.5v-4
	C234.6,427.7,235.7,426.6,237.1,426.6z"/>
<path class="st19" d="M237.1,444h105.2c1.4,0,2.5,1.1,2.5,2.5v4c0,1.4-1.1,2.5-2.5,2.5H237.1c-1.4,0-2.5-1.1-2.5-2.5v-4
	C234.6,445.1,235.7,444,237.1,444z"/>
<path class="st19" d="M237.1,461.4h67.2c1.4,0,2.5,1.1,2.5,2.5v4c0,1.4-1.1,2.5-2.5,2.5h-67.2c-1.4,0-2.5-1.1-2.5-2.5v-4
	C234.6,462.5,235.7,461.4,237.1,461.4z"/>
<path class="st19" d="M237.1,479.7h80.1c1.4,0,2.5,1.1,2.5,2.5v4c0,1.4-1.1,2.5-2.5,2.5h-80.1c-1.4,0-2.5-1.1-2.5-2.5v-4
	C234.6,480.8,235.7,479.7,237.1,479.7z"/>
<path class="st19" d="M237.1,497.8h34.8c1.4,0,2.5,1.1,2.5,2.5v4c0,1.4-1.1,2.5-2.5,2.5h-34.8c-1.4,0-2.5-1.1-2.5-2.5v-4
	C234.6,498.9,235.7,497.8,237.1,497.8z"/>
<rect x="379.4" y="427.5" class="st16" width="15.2" height="3.2"/>
<rect x="415.6" y="427.5" class="st16" width="10.4" height="3.2"/>
<rect x="451.9" y="427.5" class="st16" width="12.9" height="3.2"/>
<rect x="488.2" y="427.5" class="st16" width="9.6" height="3.2"/>
<rect x="524.5" y="427.5" class="st16" width="8" height="3.2"/>
<rect x="560.8" y="427.5" class="st16" width="15.5" height="3.2"/>
<rect x="597" y="427.5" class="st16" width="10.8" height="3.2"/>
<rect x="633.3" y="427.5" class="st16" width="6.8" height="3.2"/>
<path class="st11" d="M336.7,139.5c0,12.4-10,22.4-22.4,22.4c-12.4,0-22.4-10-22.4-22.4c0-12.4,10-22.4,22.4-22.4
	C326.7,117.1,336.7,127.1,336.7,139.5C336.7,139.5,336.7,139.5,336.7,139.5z"/>
<path class="st42" d="M316.8,153.1c4.9-2.9,9.3-7.1,11.7-12.3c0.9-1.8,1.2-3.8,0.8-5.8c-0.4-2.2-2.6-4.2-4.7-4.7
	c-3.3-0.8-7,1.6-8.1,4.8c-1.2-3.1-5-5.4-8.2-4.5c-2.1,0.6-4.3,2.6-4.6,4.9c-0.3,2,0.1,4,1,5.8C307.3,146.3,311.9,150.4,316.8,153.1z
	"/>
<path class="st43" d="M313.7,153c4.9-2.8,9.4-7,11.9-12.1c0.9-1.8,1.2-3.8,1-5.8c-0.3-2.2-2.6-4.2-4.6-4.7c-3.3-0.9-7,1.5-8.2,4.6
	c-1.2-3.1-4.9-5.5-8.2-4.6c-2.1,0.5-4.3,2.6-4.7,4.7c-0.3,2,0.1,4,1,5.8C304.3,146.1,308.8,150.2,313.7,153z"/>
<path class="st11" d="M332.4,143.6c0,0,13.6,8,7.3,26.2c0,0-4.2-16.6-17-13L332.4,143.6z"/>
<path class="st11" d="M44.4,533.1c0,11.1,9,20.2,20.2,20.2c11.1,0,20.2-9,20.2-20.2c0-11.1-9-20.2-20.2-20.2c0,0,0,0,0,0
	C53.5,512.9,44.4,522,44.4,533.1z"/>
<g>
	<path class="st42" d="M50.2,527v15.7c0,1.1,0.9,1.9,1.9,1.9h21.8c1.1,0,1.9-0.9,1.9-1.9V527c0-1.1-0.9-1.9-1.9-1.9H52.1
		C51,525,50.2,525.9,50.2,527z M51.6,528.5c0-1,0.8-1.7,1.7-1.7h19.3c1,0,1.7,0.8,1.7,1.7c0,0,0,0,0,0v12.6c0,1-0.8,1.7-1.7,1.7
		c0,0,0,0,0,0H53.4c-1,0-1.7-0.8-1.7-1.7c0,0,0,0,0,0L51.6,528.5z"/>
	<path class="st42" d="M63.6,537.8l4.6-6.7l5,7.1v1.6c0.1,1.1-0.7,2-1.8,2.1c-0.1,0-0.2,0-0.4,0H54.6c0,0-2.1-0.3-2.1-2.1v-1.4
		l5.8-7.3L63.6,537.8z"/>
	<path class="st42" d="M63.5,533.5c-1.2,0-2.2-1-2.2-2.2c0-1.2,1-2.2,2.2-2.2c1.2,0,2.2,1,2.2,2.2S64.7,533.5,63.5,533.5L63.5,533.5
		z"/>
</g>
<path class="st43" d="M51.7,525.3v15.7c0,1.1,0.9,1.9,1.9,1.9h21.8c1.1,0,1.9-0.9,1.9-1.9v-15.7c0-1.1-0.9-1.9-1.9-1.9H53.7
	C52.6,523.3,51.7,524.2,51.7,525.3z M53.2,526.8c0-1,0.8-1.7,1.7-1.7h19.3c1,0,1.7,0.8,1.7,1.7v12.6c0,1-0.8,1.7-1.7,1.7l0,0H54.9
	c-1,0-1.7-0.8-1.7-1.7V526.8z"/>
<path class="st43" d="M65.2,536.1l4.6-6.7l5,7.1v1.6c0.1,1.1-0.7,2-1.8,2.1c-0.1,0-0.3,0-0.4,0H56.2c0,0-2.1-0.3-2.1-2.1v-1.4
	l5.8-7.3L65.2,536.1z"/>
<path class="st43" d="M65.1,531.8c-1.2,0-2.2-1-2.2-2.2c0-1.2,1-2.2,2.2-2.2c1.2,0,2.2,1,2.2,2.2C67.3,530.8,66.3,531.8,65.1,531.8
	L65.1,531.8z"/>
<path class="st11" d="M81.9,538c0,0,12.2,7.2,6.6,23.5c0,0-3.8-15-15.3-11.7L81.9,538z"/>
<path class="st11" d="M867.7,550c0,9.6-7.8,17.3-17.3,17.3c-9.6,0-17.3-7.8-17.3-17.3c0-9.6,7.8-17.3,17.3-17.3c0,0,0,0,0,0
	C860,532.7,867.7,540.4,867.7,550C867.7,550,867.7,550,867.7,550z"/>
<path class="st42" d="M860.3,541.2h-16.9c-1.6,0-2.9,1.3-2.9,2.9v10.5c0,1.6,1.3,2.9,2.9,2.9h2.5c0.5,1.4,1.7,3.9,4.7,4.2
	c0,0-1.2-2.7,0-4.2h9.8c1.6,0,2.9-1.3,2.9-2.9V544C863.1,542.5,861.8,541.2,860.3,541.2C860.3,541.2,860.3,541.2,860.3,541.2z
	 M858.4,553h-13.2c-0.4,0-0.6-0.4-0.6-0.7c0-0.3,0.3-0.5,0.6-0.6h13.2c0.4,0,0.7,0.2,0.7,0.6c0,0.4-0.2,0.7-0.6,0.7
	C858.5,553,858.5,553,858.4,553z M858.4,550h-13.2c-0.4,0-0.6-0.4-0.6-0.7c0-0.3,0.3-0.5,0.6-0.6h13.2c0.4,0,0.7,0.2,0.7,0.6
	c0,0.4-0.2,0.7-0.6,0.7C858.5,550,858.5,550,858.4,550z M858.4,547.1h-13.2c-0.4,0-0.6-0.4-0.6-0.7c0-0.3,0.3-0.5,0.6-0.6h13.2
	c0.4,0,0.7,0.2,0.7,0.6c0,0.4-0.2,0.7-0.6,0.7C858.5,547.1,858.5,547.1,858.4,547.1z"/>
<path class="st43" d="M858.9,539.8H842c-1.6,0-2.9,1.3-2.9,2.9v10.5c0,1.6,1.3,2.8,2.9,2.8h2.5c0.5,1.4,1.7,3.9,4.7,4.2
	c0,0-1.2-2.7,0-4.2h9.8c1.6,0,2.8-1.3,2.8-2.8v0v-10.5C861.8,541,860.5,539.8,858.9,539.8C858.9,539.8,858.9,539.8,858.9,539.8z
	 M857.1,551.5h-13.2c-0.4,0-0.7-0.2-0.7-0.6c0-0.4,0.2-0.7,0.6-0.7c0.1,0,0.1,0,0.2,0h13.2c0.4,0,0.7,0.2,0.7,0.6
	c0,0.4-0.2,0.7-0.6,0.7C857.2,551.5,857.1,551.5,857.1,551.5z M857.1,548.5h-13.2c-0.4,0-0.7-0.2-0.7-0.6c0-0.4,0.2-0.7,0.6-0.7
	c0.1,0,0.1,0,0.2,0h13.2c0.4,0,0.7,0.2,0.7,0.6c0,0.4-0.2,0.7-0.6,0.7C857.2,548.5,857.1,548.5,857.1,548.5z M857.1,545.6h-13.2
	c-0.4,0-0.7-0.3-0.7-0.7c0-0.4,0.3-0.7,0.7-0.7c0,0,0,0,0,0h13.2c0.4,0,0.7,0.3,0.7,0.7C857.7,545.3,857.4,545.6,857.1,545.6
	C857.1,545.6,857.1,545.6,857.1,545.6z"/>
<path class="st3" d="M790.9,222.2c0,9.6-7.8,17.3-17.3,17.3c-9.6,0-17.3-7.8-17.3-17.3s7.8-17.3,17.3-17.3c0,0,0,0,0,0
	C783.2,204.9,790.9,212.7,790.9,222.2z"/>
<path class="st42" d="M765.4,229.8h7.5v2.4H772v1h5.9v-1H777v-2.3h7.5c0.4,0,0.7-0.3,0.7-0.7v-14.3c0-0.4-0.3-0.7-0.7-0.7h-19.2
	c-0.4,0-0.7,0.3-0.7,0.7v14.2C764.7,229.5,765,229.8,765.4,229.8z M766.3,216.2c0-0.3,0.3-0.6,0.6-0.6c0,0,0,0,0,0h16
	c0.3,0,0.6,0.3,0.6,0.6v11.5c0,0.3-0.3,0.6-0.6,0.6h-16c-0.3,0-0.6-0.3-0.6-0.6V216.2z"/>
<path class="st43" d="M764,228.4h7.5v2.3h-0.9v1h5.9v-1h-0.9v-2.3h7.5c0.4,0,0.7-0.3,0.7-0.7v-14.2c0-0.4-0.3-0.7-0.7-0.7H764
	c-0.4,0-0.7,0.3-0.7,0.7v14.2C763.3,228,763.6,228.4,764,228.4z M765,214.8c0-0.3,0.3-0.6,0.6-0.6h16c0.3,0,0.6,0.3,0.6,0.6v11.6
	c0,0.3-0.3,0.6-0.6,0.6h-16c-0.3,0-0.6-0.3-0.6-0.6V214.8z"/>
<path class="st3" d="M156.7,246.5c0,9.6-7.8,17.3-17.3,17.3c-9.6,0-17.3-7.8-17.3-17.3c0-9.6,7.8-17.3,17.3-17.3c0,0,0,0,0,0
	C149,229.2,156.7,236.9,156.7,246.5z"/>
<path class="st42" d="M149.6,243.8v-4.3c0-0.2-0.2-0.4-0.5-0.4h-11.8c-0.2,0-0.4,0.2-0.4,0.4v10.2c-1.8-0.7-3.9,0.2-4.7,2
	c-0.7,1.8,0.2,3.9,2,4.7c1.8,0.7,3.9-0.2,4.7-2c0.2-0.4,0.3-0.9,0.3-1.3c0-0.2,0-0.5-0.1-0.7v-8.1h8.3v5.4c-0.4-0.2-0.8-0.2-1.3-0.2
	c-2,0-3.6,1.6-3.6,3.6c0,2,1.6,3.6,3.6,3.6c1.6,0,3.1-1.1,3.5-2.7l0,0c0.1-0.3,0.1-0.6,0.1-1c0-0.3,0-0.7-0.1-1L149.6,243.8z"/>
<path class="st43" d="M148.2,242.4v-4.3c0-0.2-0.2-0.4-0.4-0.4H136c-0.2,0-0.4,0.2-0.4,0.4v10.2c-0.4-0.2-0.9-0.3-1.3-0.3
	c-2,0-3.6,1.6-3.6,3.6c0,2,1.6,3.6,3.6,3.6s3.6-1.6,3.6-3.6c0,0,0,0,0,0c0-0.2,0-0.5-0.1-0.7v-8.1h8.3v5.4c-0.4-0.2-0.8-0.2-1.3-0.2
	c-2,0-3.6,1.6-3.6,3.6c0,2,1.6,3.6,3.6,3.6c1.6,0,3.1-1.1,3.5-2.7l0,0c0.2-0.6,0.2-1.3,0-1.9V242.4z"/>
</svg>
