<svg xmlns="http://www.w3.org/2000/svg" viewBox="0 0 173.33 173.33"><defs><style>.cls-1{fill:#f8f7ff;}.cls-2{fill:#27a9e0;}.cls-3{fill:#fff;}.cls-4{fill:#282828;}</style></defs><title>Asset 65</title><g id="Layer_2" data-name="Layer 2"><g id="Layer_1-2" data-name="Layer 1"><circle class="cls-1" cx="86.67" cy="86.67" r="86.67"/><path class="cls-2" d="M122.56,91.55c-1.66.53-4.45,0-6.19,0a1,1,0,0,0-.85.39,1.24,1.24,0,0,0-.26.45c-1,3.24-2.5,6.22-3.64,9.35a2.89,2.89,0,0,0,.55,3.29c1,1.27,3.41,2.12,4,3.6s-2.47,4.25-3.45,5.22c-.52.51-1.42,1.62-2.13,1.81-1.4.38-1.9-.62-2.89-1.78s-2-3-3.76-3.24c-1.2-.14-2.51.81-3.52,1.37a23.35,23.35,0,0,1-7.8,3.1,1.07,1.07,0,0,0-.8.8,29.12,29.12,0,0,0,.14,4.28c0,3.9-3.38,3.87-6.51,3.79-2.79-.07-3.84-.07-3.73-3a44,44,0,0,0,.14-4.73,1.18,1.18,0,0,0-1.15-1.15,17.48,17.48,0,0,1-9.37-3.78,1.37,1.37,0,0,0-.45-.23,1.09,1.09,0,0,0-1.17.23c-1,.92-2.88,3.45-4.17,3.82-2.22.65-4.24-1.94-5.66-3.3-1.14-1.08-3.17-2.4-2.59-4.17.4-1.23,2.24-2.44,3.17-3.32s1.38-1.24,1.06-2.61c-.35-1.54-1.45-3-2-4.53A43.73,43.73,0,0,1,58.2,92.7a1.13,1.13,0,0,0-1.1-.84c-1.2.14-2.41.26-3.62.31-2.17.07-3.34.32-3.79-2.1a19.79,19.79,0,0,1-.3-5.69c.13-1,.21-2.63,1.19-3.26s4.66,0,5.77.24a1.17,1.17,0,0,0,1.41-.8,25.1,25.1,0,0,1,4.7-10,1.15,1.15,0,0,0-.18-1.39c-1.65-1.89-5.43-4-3.63-6.7a15,15,0,0,1,3.87-3.67c3.4-1.59,4.75.79,6.63,3a1,1,0,0,0,1.56.5,36.94,36.94,0,0,1,8-3.79,5.23,5.23,0,0,0,1.93-1,4.66,4.66,0,0,0,.75-2.85c0-1-.42-2.11-.2-3,.45-1.92,2.41-1.86,4.1-2l3.49-.28a4.53,4.53,0,0,1,2.87.52c1,.55.53,1.62.63,2.91s-.53,2.79.25,4.1a3.61,3.61,0,0,0,2.35,1.53,36.57,36.57,0,0,1,8,3.5,1,1,0,0,0,.28.13,1.06,1.06,0,0,0,1.27-.21c1.22-1.22,2.64-3.37,4.15-4.13,1.89-1,2.93,1,4.43,2.43s4.39,3.09,2.87,5.47c-.75,1.18-2.54,1.62-3.49,2.66a2.25,2.25,0,0,0-.55,2.83c.43,1.2,1.24,2.24,1.66,3.48.62,1.79,1.06,3.65,1.65,5.45a1.19,1.19,0,0,0,1.1.84c1.79.14,4,0,5.7.44,2.73.76,2,3.33,2.08,5.7C124.06,89,124.63,90.9,122.56,91.55Z"/><circle class="cls-3" cx="86.79" cy="86.69" r="12.57"/><path class="cls-4" d="M85.61,72.58c-7.25.63-13.1,6.55-12.73,14a14.34,14.34,0,0,0,14.3,13.49C105.93,100.28,104,70.37,85.61,72.58Zm1.57,25.21a12,12,0,0,1-12-11.2A11.27,11.27,0,0,1,85.61,74.87C101,73,103,97.75,87.18,97.79Z"/><path class="cls-4" d="M126.28,87c-.06-1.94.62-5.83-1.11-7.29s-5.62-1.07-8.1-1.11a59.44,59.44,0,0,0-1.79-5.82c-.31-.74-1.54-2.21-1.32-2.9.34-1,3.69-2.56,4.44-3.64a3.3,3.3,0,0,0,.68-2.82c-.47-1.83-2.7-3.24-4-4.43s-2.91-3.43-4.58-4.11c-2.71-1.09-5.37,2.62-7.16,4.67-2.18-1.27-4.38-2-6.65-3-1.62-.76-1.93-.79-2.26-2.43-.28-1.32.22-2.84-.11-4.23C93.41,45.8,89.17,47,86,47.29S79,47,78.83,51c-.06,1.31.61,3,.15,4.27-.39,1.08-.69.81-2.16,1.34a32.81,32.81,0,0,0-6.39,3.1c-1.58-1.94-3.4-4.61-6.06-4.48-2.84.13-5.55,3.75-7.34,5.59-3.67,3.77.17,6.35,3,9.22a26.26,26.26,0,0,0-4.19,8.84c-2.51-.48-6-.83-7.79.91s-1,6.49-.8,8.7c.15,1.94.07,4.45,1.93,5.5s4.88.55,7.09.24a39.51,39.51,0,0,0,2,5.91c.19.45,1.07,1.68,1,2.1,0,.12-.52.5-.72.83-1.06,1.87-4.83,3.58-3.9,6.34.87,2.58,6.25,7.22,8.83,8.22,2.87,1.1,5.27-2,7.2-4a20,20,0,0,0,8.92,3.61c-.14,2.54-1.11,6.07.45,7.89,1.16,1.37,3.93,1.07,5.43,1.11,2,.05,4.6.34,6.52-.42a3.48,3.48,0,0,0,2.39-2.79c.31-1.49-1-4.19-.35-5.4.56-1,3.91-1.6,5.15-2.26,2-1.08,3.75-3.09,5.89-1.17s3.27,5.52,6.52,3.55a21.81,21.81,0,0,0,6.44-6.57c1.6-2.64.43-3.67-1.65-5.54s-2.92-1.79-1.67-4.64a66.88,66.88,0,0,0,2.51-7.17c2.44.13,6,.72,7.93-.5S126.34,88.88,126.28,87Zm-3.72,4.54c-1.67.53-4.46,0-6.2,0a1,1,0,0,0-.85.39,1.24,1.24,0,0,0-.26.45c-1,3.24-2.49,6.22-3.64,9.35a2.87,2.87,0,0,0,.56,3.29c1,1.27,3.41,2.12,4,3.6s-2.48,4.25-3.46,5.22c-.51.51-1.41,1.62-2.13,1.81-1.4.37-1.89-.62-2.89-1.78s-2-3-3.76-3.24c-1.2-.14-2.51.81-3.51,1.36a23.28,23.28,0,0,1-7.81,3.1,1.11,1.11,0,0,0-.8.81,29.17,29.17,0,0,0,.15,4.28c0,3.9-3.39,3.87-6.52,3.79-2.78-.07-3.83-.07-3.73-3a41.45,41.45,0,0,0,.14-4.73,1.18,1.18,0,0,0-1.14-1.14,17.45,17.45,0,0,1-9.37-3.78,1.37,1.37,0,0,0-.45-.23,1.09,1.09,0,0,0-1.17.23c-1,.92-2.89,3.45-4.17,3.82-2.23.65-4.25-1.94-5.67-3.3-1.13-1.08-3.17-2.4-2.59-4.17.4-1.23,2.25-2.44,3.17-3.32s1.39-1.25,1.07-2.62c-.36-1.53-1.46-3-2-4.53A42.82,42.82,0,0,1,58.2,92.7a1.18,1.18,0,0,0-1.11-.85c-1.2.15-2.4.27-3.61.31-2.18.08-3.34.33-3.8-2.09a19.8,19.8,0,0,1-.29-5.69c.12-1,.21-2.63,1.19-3.26s4.65,0,5.76.24a1.16,1.16,0,0,0,1.41-.8,25,25,0,0,1,4.71-10,1.17,1.17,0,0,0-.18-1.39c-1.65-1.89-5.43-4-3.63-6.7a15,15,0,0,1,3.86-3.67c3.41-1.59,4.75.79,6.64,3a1,1,0,0,0,1.55.51,37.27,37.27,0,0,1,8-3.8,5,5,0,0,0,1.92-.95,4.59,4.59,0,0,0,.75-2.85c0-1-.42-2.11-.2-3,.45-1.92,2.41-1.86,4.11-2l3.49-.28a4.59,4.59,0,0,1,2.86.51c1,.56.53,1.63.64,2.92s-.54,2.79.24,4.1a3.63,3.63,0,0,0,2.36,1.53,36.25,36.25,0,0,1,8,3.49,1.38,1.38,0,0,0,.28.13,1,1,0,0,0,1.27-.2c1.23-1.22,2.64-3.37,4.16-4.13,1.88-1,2.93,1,4.43,2.43s4.38,3.09,2.86,5.47c-.74,1.18-2.54,1.62-3.49,2.66a2.24,2.24,0,0,0-.54,2.83c.43,1.2,1.23,2.24,1.66,3.48.61,1.79,1.05,3.65,1.64,5.45a1.2,1.2,0,0,0,1.11.84c1.78.14,4,0,5.69.44,2.73.76,2,3.33,2.09,5.7C124.05,89,124.62,90.9,122.56,91.55Z"/><path class="cls-4" d="M81.4,66.87a13.34,13.34,0,0,1,4.25-.66,1.15,1.15,0,0,0,0-2.29,15.13,15.13,0,0,0-4.86.74C79.39,65.11,80,67.32,81.4,66.87Z"/><path class="cls-4" d="M94.16,67.53a8.09,8.09,0,0,1,3.25,1.68c1.11,1,2.74-.66,1.62-1.63a10.71,10.71,0,0,0-4.26-2.26A1.15,1.15,0,0,0,94.16,67.53Z"/><path class="cls-4" d="M107.73,78.08a14.57,14.57,0,0,0-2.11-4,1.19,1.19,0,0,0-1.57-.41,1.16,1.16,0,0,0-.41,1.57,12.67,12.67,0,0,1,1.88,3.42C106,80.07,108.22,79.47,107.73,78.08Z"/><path class="cls-4" d="M106.83,87.49a25.47,25.47,0,0,1-.68,4,1.15,1.15,0,0,0,2.21.61,29.72,29.72,0,0,0,.77-4.59C109.26,86,107,86,106.83,87.49Z"/><path class="cls-4" d="M103.74,98.67a1.15,1.15,0,0,0-1.56.41,5.82,5.82,0,0,1-2.48,2.71c-1.29.72-.13,2.7,1.16,2a7.88,7.88,0,0,0,3.3-3.53A1.18,1.18,0,0,0,103.74,98.67Z"/><path class="cls-4" d="M91.84,105.74c-1.31.24-2.63.42-4,.53s-1.47,2.42,0,2.29,3.05-.33,4.57-.61S93.28,105.48,91.84,105.74Z"/><path class="cls-4" d="M79.49,105a11.33,11.33,0,0,1-3.72-1.83,1.16,1.16,0,0,0-1.57.41,1.18,1.18,0,0,0,.42,1.57,12.85,12.85,0,0,0,4.26,2.06A1.15,1.15,0,0,0,79.49,105Z"/><path class="cls-4" d="M68,93.58a1.15,1.15,0,0,0-2.21.61A12.4,12.4,0,0,0,68,98.62a1.15,1.15,0,0,0,1.62,0,1.17,1.17,0,0,0,0-1.62A9.72,9.72,0,0,1,68,93.58Z"/><path class="cls-4" d="M66.92,85.21a22.36,22.36,0,0,1,.31-4.16c.24-1.44-2-2.06-2.22-.61a28.25,28.25,0,0,0-.39,4.77A1.15,1.15,0,0,0,66.92,85.21Z"/><path class="cls-4" d="M72.88,69a13.91,13.91,0,0,0-3.65,3.19,1.18,1.18,0,0,0,0,1.62,1.16,1.16,0,0,0,1.62,0A12.1,12.1,0,0,1,74,71C75.29,70.18,74.14,68.2,72.88,69Z"/></g></g></svg>