<svg xmlns="http://www.w3.org/2000/svg" viewBox="0 0 80 80"><defs><style>.cls-1,.cls-3{fill:#27a9e0;}.cls-1{opacity:0.25;}.cls-2{fill:none;stroke:#27a9e0;stroke-miterlimit:10;stroke-width:3px;}</style></defs><title>Asset 77</title><g id="Layer_2" data-name="Layer 2"><g id="Layer_1-2" data-name="Layer 1"><circle class="cls-1" cx="40" cy="40" r="40"/><path class="cls-2" d="M34.5,32h3.16a4.72,4.72,0,0,1,3.26,1.3c4.61,4.41,18.12,19,5,27A19.41,19.41,0,0,1,35.8,63H32.7a19.41,19.41,0,0,1-10.12-2.72c-13.12-8,.39-22.57,5-27A4.72,4.72,0,0,1,30.84,32H34.5Z"/><path class="cls-3" d="M33.5,53.42v-4.5a5.89,5.89,0,0,1-3.09-1.82,4.55,4.55,0,0,1-1-3,4.18,4.18,0,0,1,1.11-3,4.47,4.47,0,0,1,3-1.38V38.73h1.56V39.8A4.57,4.57,0,0,1,37.77,41a4.42,4.42,0,0,1,1.29,2.58l-2.72.35a2.19,2.19,0,0,0-1.28-1.72v4.2a7,7,0,0,1,3.51,1.81A4.29,4.29,0,0,1,39.5,51a4.79,4.79,0,0,1-1.17,3.28,5.18,5.18,0,0,1-3.27,1.63v2H33.5V56a5,5,0,0,1-3-1.39A5.67,5.67,0,0,1,29,51.33l2.8-.3a3.61,3.61,0,0,0,.65,1.49A3,3,0,0,0,33.5,53.42Zm0-11.28a2,2,0,0,0-1,.73A1.88,1.88,0,0,0,32.11,44a1.82,1.82,0,0,0,.35,1.06,2.4,2.4,0,0,0,1,.79Zm1.56,11.43a2.21,2.21,0,0,0,1.31-.75,2.11,2.11,0,0,0,.5-1.4,1.92,1.92,0,0,0-.42-1.24,2.77,2.77,0,0,0-1.39-.8Z"/><path class="cls-2" d="M31,25.5h6A3.48,3.48,0,0,1,40.5,29v0A2.52,2.52,0,0,1,38,31.5H30A2.52,2.52,0,0,1,27.5,29v0A3.48,3.48,0,0,1,31,25.5Z"/><path class="cls-2" d="M31.5,17c-4,0-3,3-3,3,0,6,5.75,5.5,5.75,5.5S40,26,40,20c0,0,1-3-3-3Z"/><circle class="cls-2" cx="53" cy="53" r="5"/><circle class="cls-2" cx="53" cy="53" r="10"/></g></g></svg>