<svg xmlns="http://www.w3.org/2000/svg" viewBox="0 0 173.33 173.33"><defs><style>.cls-1{fill:#f8f7ff;}.cls-2{fill:#a8d3e2;}.cls-3{fill:#1f739c;}.cls-4{fill:#27a9e0;}.cls-5{fill:#282828;}</style></defs><title>Asset 63</title><g id="Layer_2" data-name="Layer 2"><g id="Layer_1-2" data-name="Layer 1"><circle class="cls-1" cx="86.67" cy="86.67" r="86.67"/><path class="cls-2" d="M71.23,91.93c0,2.78,0,5.56-.07,8.34,0,1.71,0,3.41,0,5.11,0,2.83-.89,3.32-3.78,3.29-1.76,0-5.39.62-7.48-.13a13,13,0,0,0,1.61-1.62c.7-.85-.51-2.07-1.22-1.21a12.06,12.06,0,0,1-1.77,1.73l-.06-.11a8,8,0,0,1-.4-2.73l2.86-2.47c.83-.73-.39-1.94-1.22-1.22l-1.59,1.38c0-.47.06-.91.09-1.26,0-.51,0-1,0-1.53q1.71-1.64,3.55-3.1c.87-.68-.35-1.89-1.21-1.22S59,96.43,58.26,97.09c0-.65.07-1.3.11-2l3.13-2.56c.86-.71-.36-1.92-1.21-1.22L58.5,92.82l.06-1.15c0-.3,0-.61,0-.92l2.73-2c.89-.65,0-2.15-.86-1.49l-1.9,1.4c0-.29,0-.59,0-.88.12-1.61.15-1.66,1.84-1.84a36,36,0,0,1,7.11.38c1,.1,3.09-.27,3.73.53S71.24,91.12,71.23,91.93Z"/><path class="cls-3" d="M95.06,102.08c0,1.16.62,4.75-.06,5.72s-6.16,1-9.17.79l2.49-1.8c.89-.64,0-2.14-.86-1.49l-4.08,3a1.77,1.77,0,0,1-1.1-1.33q2.49-1.87,4.86-3.9c.84-.72-.38-1.93-1.22-1.21-1.22,1-2.48,2-3.75,3,0-.33,0-.68,0-1s0-.69-.05-1a31.27,31.27,0,0,1,5.05-4.5c.89-.64,0-2.13-.87-1.48A34.1,34.1,0,0,0,82,100.4c0-.6,0-1.2,0-1.8a38,38,0,0,1,4.31-4c.87-.69-.36-1.9-1.21-1.22-1.06.85-2.07,1.75-3,2.7q0-1.36,0-2.73a23,23,0,0,1,4-3.37c.92-.61.06-2.09-.87-1.49a25.36,25.36,0,0,0-3.13,2.42c0-.71,0-1.42.08-2.14a24.45,24.45,0,0,1,4.12-3.54c.92-.61.06-2.1-.86-1.48a25.78,25.78,0,0,0-3.17,2.52l0-1.06c0-.38,0-.76,0-1.14a18.71,18.71,0,0,1,3.76-3.51c.9-.62,0-2.12-.87-1.48a19.85,19.85,0,0,0-2.81,2.36l0-1.66A21.52,21.52,0,0,1,85.77,77c.91-.62,0-2.11-.87-1.48a24.61,24.61,0,0,0-2.47,2,5.91,5.91,0,0,1,0-2.42c1.07-1.59,7.06-.35,8.57-.18,1.71.19,3.53-.38,4.18,1.13.57,1.34,0,4.55,0,6l-.06,13.5Z"/><path class="cls-4" d="M119.54,102.38c0,1.24.52,4,0,5.09-.84,1.83-5,1.23-6.66,1.18-.94,0-2,.07-3,0,.35-.32.69-.65,1-1,.74-.81-.47-2-1.22-1.22a15.48,15.48,0,0,1-1.83,1.7,2,2,0,0,1-.47-.41c.81-.9,1.65-1.78,2.54-2.61s-.41-2-1.22-1.21-1.32,1.3-2,2q-.12-.8-.18-1.62l3-2.48c.86-.71-.36-1.92-1.21-1.22l-1.88,1.54c0-.35,0-.7,0-1q2.28-1.71,4.5-3.49c.86-.7-.37-1.91-1.22-1.22-1,.85-2.11,1.67-3.18,2.49,0-.56.07-1.1.11-1.62,0-.27,0-.54,0-.81a36.2,36.2,0,0,1,3.66-2.88c.91-.62,0-2.11-.87-1.48s-1.89,1.38-2.79,2.12c0-.61,0-1.22,0-1.84,1-.79,2.1-1.59,3.12-2.42.86-.7-.36-1.91-1.22-1.21-.62.5-1.25,1-1.88,1.46,0-.68,0-1.37,0-2a29.39,29.39,0,0,1,3.62-3c.91-.63,0-2.12-.86-1.49s-1.85,1.38-2.73,2.12c0-1,0-2,.07-3a30.91,30.91,0,0,1,2.56-2.17.88.88,0,0,0,.31-1.17.86.86,0,0,0-1.17-.31c-.57.42-1.12.85-1.65,1.3l0-1.42a39.59,39.59,0,0,1,4-2.7.86.86,0,0,0-.87-1.48c-1.08.62-2.12,1.31-3.14,2,0-.68,0-1.36,0-2v-.23L109.89,72c.82-.74-.4-2-1.22-1.22L107,72.24c0-.86,0-1.72,0-2.58a25.17,25.17,0,0,1,2.48-2.25.86.86,0,0,0,0-1.21.88.88,0,0,0-1.22,0c-.43.33-.83.69-1.24,1,0-.75,0-1.49,0-2.24,1.12-.84,2.21-1.72,3.26-2.65.83-.74-.39-2-1.22-1.22-.68.61-1.37,1.18-2.08,1.74a8,8,0,0,1,0-2.28c.44-1.81,3.69-1.35,5.44-1.27,1.44.07,5.09,0,6.31.56,1.38.64,1,1.83,1,3.46q0,5.87-.07,11.74Q119.62,88.73,119.54,102.38Z"/><path class="cls-5" d="M66.31,110.92c3.17,0,6.73.44,7.09-3.44.44-4.72.08-9.69.12-14.44,0-2.29,1.31-7.65-1.56-8.74-1.63-.62-4.29-.31-6-.51a35,35,0,0,0-5.12-.16c-3,.09-4.53.26-4.55,3.53,0,4.63-.41,9.25-.37,13.87-.18,2.13-.54,6.41.66,8.23C58.32,112,63.76,110.89,66.31,110.92Zm-5.89-25a35.91,35.91,0,0,1,7.1.37c1,.1,3.1-.27,3.74.53s0,4.3,0,5.11c0,2.78,0,5.56-.07,8.34,0,1.7,0,3.4,0,5.11,0,2.83-.89,3.32-3.78,3.29-1.75,0-5.38.62-7.48-.13a13,13,0,0,0,1.61-1.62c.7-.85-.51-2.07-1.21-1.22a11.63,11.63,0,0,1-1.78,1.73s0-.06-.06-.1a8.38,8.38,0,0,1-.4-2.73l2.86-2.48c.84-.72-.38-1.94-1.22-1.22l-1.59,1.38c0-.47.06-.91.09-1.26,0-.51,0-1,0-1.52,1.14-1.09,2.32-2.13,3.56-3.1.87-.69-.36-1.9-1.22-1.22s-1.52,1.25-2.25,1.9c0-.65.06-1.3.1-1.94l3.14-2.57c.85-.7-.37-1.91-1.22-1.22L58.5,92.83l.06-1.15c0-.31,0-.62,0-.93l2.74-2c.88-.65,0-2.14-.87-1.48l-1.9,1.4c0-.3,0-.59,0-.88C58.69,86.15,58.72,86.1,60.42,85.93Z"/><path class="cls-5" d="M80.27,108.76c1.13,2.59,4.68,2,6.94,1.95s7.23.81,9.21-.72.93-6.92.94-9.06q0-7.7.07-15.38c0-2.49,0-5,0-7.48,0-1.15.37-3.2-.32-4.26-1.22-1.85-5.74-1.23-7.62-1.44s-6.71-.89-8.46.42-.83,6.43-.87,8.42c-.13,5.34-.47,10.68-.41,16a53.84,53.84,0,0,0,.07,6.6C79.94,105.28,79.67,107.38,80.27,108.76Zm2.17-33.71c1.07-1.58,7.06-.34,8.57-.17,1.71.19,3.53-.38,4.18,1.12.58,1.34,0,4.55,0,6q0,6.75-.07,13.5l0,6.61c0,1.16.62,4.74,0,5.72s-6.17,1-9.18.79l2.5-1.81c.89-.64,0-2.13-.87-1.48l-4.08,3a1.79,1.79,0,0,1-1.1-1.33c1.66-1.26,3.28-2.55,4.86-3.9.84-.73-.38-1.94-1.22-1.22-1.22,1-2.48,2.06-3.75,3,0-.34,0-.68,0-1l-.06-1a32.13,32.13,0,0,1,5.05-4.49c.9-.64,0-2.13-.86-1.49A33.39,33.39,0,0,0,82,100.4c0-.59,0-1.2,0-1.8a40,40,0,0,1,4.32-4c.86-.69-.36-1.9-1.22-1.21a36.84,36.84,0,0,0-3,2.69c0-.91,0-1.82,0-2.72a23.37,23.37,0,0,1,4-3.38c.93-.6.07-2.09-.87-1.48a25.94,25.94,0,0,0-3.12,2.41c0-.71,0-1.42.07-2.13a24.45,24.45,0,0,1,4.13-3.54c.91-.62,0-2.11-.87-1.49a27.6,27.6,0,0,0-3.17,2.52c0-.35,0-.7,0-1.06s0-.75,0-1.13a18.37,18.37,0,0,1,3.75-3.51c.9-.63,0-2.12-.87-1.49a21.94,21.94,0,0,0-2.81,2.36c0-.55,0-1.11,0-1.66A22,22,0,0,1,85.77,77c.91-.63,0-2.12-.86-1.49a24.74,24.74,0,0,0-2.48,2A5.92,5.92,0,0,1,82.44,75.05Z"/><path class="cls-5" d="M104.56,106.75c.15,1.85.37,3,2.21,3.69s4.18.45,6.12.51c2.34.07,5,.24,7.22-.74,2.92-1.31,1.72-6.19,1.74-8.93q0-8.44.08-16.9L122,67.26c0-2.43,1.26-8.44-1.56-9.51-2-.74-5-.46-7.12-.64a21.56,21.56,0,0,0-6.66.15c-3.05.83-1.85,5.21-1.87,7.71-.08,10.75-.61,21.52-.44,32.27A61.65,61.65,0,0,0,104.56,106.75ZM107,60.61c.43-1.81,3.69-1.35,5.44-1.27,1.44.06,5.09,0,6.31.55,1.38.65,1,1.84,1,3.46l-.06,11.74q-.07,13.65-.14,27.29c0,1.25.51,4,0,5.1-.84,1.83-5,1.23-6.65,1.18-.94,0-2,.07-3.06,0,.35-.32.7-.65,1-1,.75-.82-.47-2-1.22-1.22a16.28,16.28,0,0,1-1.82,1.7,2.37,2.37,0,0,1-.48-.41c.81-.91,1.66-1.78,2.54-2.61s-.41-2-1.21-1.22-1.33,1.3-2,2c-.09-.52-.15-1.06-.19-1.62l3-2.48c.85-.7-.37-1.91-1.22-1.22l-1.87,1.55c0-.35,0-.7,0-1.05q2.3-1.69,4.5-3.49c.86-.7-.36-1.91-1.21-1.21-1,.84-2.11,1.67-3.19,2.48,0-.55.07-1.1.11-1.61v-.81a33.83,33.83,0,0,1,3.66-2.88c.9-.63.05-2.12-.87-1.49s-1.9,1.38-2.8,2.13c0-.62,0-1.23,0-1.84,1-.8,2.1-1.6,3.12-2.42.86-.7-.36-1.91-1.21-1.22-.62.5-1.26,1-1.89,1.46l0-2a30.26,30.26,0,0,1,3.63-3c.9-.62,0-2.11-.87-1.48a32.69,32.69,0,0,0-2.73,2.12c0-1,0-2,.07-3a31.23,31.23,0,0,1,2.57-2.16.91.91,0,0,0,.31-1.18.88.88,0,0,0-1.18-.31c-.56.42-1.11.86-1.65,1.31l0-1.42a37.51,37.51,0,0,1,4-2.7.86.86,0,0,0-.87-1.49c-1.08.63-2.12,1.31-3.13,2,0-.68,0-1.36,0-2v-.23L109.89,72c.83-.74-.39-2-1.21-1.22L107,72.25c0-.86,0-1.73,0-2.59a25.07,25.07,0,0,1,2.48-2.24.87.87,0,0,0,0-1.22.88.88,0,0,0-1.21,0c-.43.34-.84.69-1.24,1,0-.74,0-1.49,0-2.23,1.11-.85,2.2-1.72,3.25-2.65.83-.74-.39-1.95-1.22-1.22-.67.6-1.37,1.17-2.07,1.74A7.6,7.6,0,0,1,107,60.61Z"/><path class="cls-5" d="M123.19,113.73c-11.3.44-22.61.49-33.92.25-10.72-.21-21.45-1-32.17-.79-1.1,0-3.61.47-4.44,0-1-.64-.92-3.12-1-4.08q-.18-3.59-.27-7.19c-.11-4.76-.11-9.53-.05-14.29.11-9.72.3-19.43.11-29.15a1.15,1.15,0,0,0-2.3,0c.22,10.69-.06,21.36-.13,32.05,0,5.08,0,10.16.2,15.24.12,3-.93,8.47,2.8,9.63,1.92.6,4.31.15,6.28.11,2.78-.06,5.53,0,8.31.08,6.09.25,12.17.48,18.26.64,12.77.33,25.53.34,38.29-.16C124.66,116,124.67,113.67,123.19,113.73Z"/></g></g></svg>