<?xml version="1.0" encoding="utf-8"?>
<!-- Generator: Adobe Illustrator 25.1.0, SVG Export Plug-In . SVG Version: 6.00 Build 0)  -->
<svg version="1.1" id="Layer_1" xmlns="http://www.w3.org/2000/svg" xmlns:xlink="http://www.w3.org/1999/xlink" x="0px" y="0px"
	 viewBox="0 0 1920 700" style="enable-background:new 0 0 1920 700;" xml:space="preserve">
<style type="text/css">
	.st0{fill:#8BA8D3;}
	.st1{fill:#282828;}
	.st2{fill:#27A9E0;}
</style>
<path class="st0" d="M135.6,647c2.5,2.7,2.4,7-0.3,9.5c-2.7,2.5-7,2.4-9.5-0.3c-2.5-2.7-2.4-7,0.3-9.5
	C128.8,644.2,133,644.3,135.6,647z"/>
<path class="st0" d="M142.1,651.3c0,0-4-2.6-6,0.6l-0.6-4.5C135.6,647.4,139.9,646.4,142.1,651.3z"/>
<path class="st1" d="M289.9,213.8c0,1.7-1.3,3-3,3s-3-1.3-3-3s1.3-3,3-3S289.9,212.1,289.9,213.8z"/>
<path class="st2" d="M601.7,662.5c0,2.6-2.1,4.7-4.7,4.7c-2.6,0-4.7-2.1-4.7-4.7c0-2.6,2.1-4.7,4.7-4.7c0,0,0,0,0,0
	C599.6,657.8,601.7,659.9,601.7,662.5z"/>
<path class="st2" d="M663.5,209.7c-2.8,1.8-6.5,0.9-8.3-1.9c-1.8-2.8-0.9-6.5,1.9-8.3c2.8-1.8,6.5-0.9,8.3,1.9c0,0,0,0,0,0
	C667.2,204.3,666.3,208,663.5,209.7z"/>
</svg>
