<svg id="Layer_1" data-name="Layer 1" xmlns="http://www.w3.org/2000/svg" viewBox="0 0 1920 644"><defs><style>.cls-1{fill:#8ba8d3;}.cls-2{fill:none;stroke:#8ba8d3;stroke-miterlimit:10;}.cls-3{fill:#282828;}.cls-4{fill:#27a9e0;}.cls-5{fill:#1f739c;}.cls-6{fill:#f8f7ff;}</style></defs><title>sectionbg1</title><path class="cls-1" d="M1670.93,553.61a7.35,7.35,0,1,1-7.35-7.34A7.35,7.35,0,0,1,1670.93,553.61Z"/><path class="cls-1" d="M1672.88,562s-1.28-5.09-5.21-4l3-4S1674.8,556.43,1672.88,562Z"/><path class="cls-2" d="M291,636.2s-3.25-13-12.6-15.51a28.56,28.56,0,1,1,5.49-16.83c0,.84,0,1.67-.11,2.49C287.52,609.24,297.1,618.69,291,636.2Z"/><path class="cls-3" d="M323.87,384.75a3,3,0,1,1-3-3A3,3,0,0,1,323.87,384.75Z"/><path class="cls-4" d="M277.73,112.45a4.66,4.66,0,1,1-4.66-4.65A4.66,4.66,0,0,1,277.73,112.45Z"/><path class="cls-4" d="M1425.51,117.72a6,6,0,1,1,1.92-8.25A6,6,0,0,1,1425.51,117.72Z"/><path class="cls-5" d="M1723.46,365.51a4.65,4.65,0,1,1,1.49-6.41A4.64,4.64,0,0,1,1723.46,365.51Z"/><path class="cls-6" d="M188.71,463.36c-18.89,45.75-68.13,69.28-109,97.25A349,349,0,0,0,0,635.65V17.54c15.35,34,42.77,62.66,70.76,88.15,35.2,32.05,73.51,62.56,96.71,104.13,29.8,53.36,30.73,117.49,30.91,178.6C198.46,413.78,198.39,439.92,188.71,463.36Z"/></svg>