<svg id="Layer_1" data-name="Layer 1" xmlns="http://www.w3.org/2000/svg" viewBox="0 0 1920 951"><defs><style>.cls-1{fill:#f8f7ff;}.cls-2{fill:#8ba8d3;}.cls-3{fill:#27a9e0;}</style></defs><title>sectionbg2</title><path class="cls-1" d="M1920,16.29V796a158.62,158.62,0,0,0-19.26-15.71c-39.85-27.49-90.82-34-139.14-30.87S1666,764.58,1618,770.79c-39.81,5.14-83.24,5.49-116.53-16.94-37.44-25.23-52.35-72.21-64.76-115.62-16.76-58.6-33.67-118.68-29.35-179.47,4.25-59.74,28.87-116.28,59-168,18.12-31.07,38.58-61.17,64.78-85.81,78.13-73.46,192.82-87.54,293.66-124C1852,71.1,1879,59.12,1900.34,39.66A115.41,115.41,0,0,0,1920,16.29Z"/><path class="cls-2" d="M806.09,680.56a12.94,12.94,0,1,0,9.85-15.43A12.94,12.94,0,0,0,806.09,680.56Z"/><path class="cls-2" d="M805.92,695.74s.27-9.25,7.44-8.84l-6.63-5.79S800.49,686.88,805.92,695.74Z"/><path class="cls-3" d="M255.73,729.45a4.66,4.66,0,1,1-4.66-4.65A4.66,4.66,0,0,1,255.73,729.45Z"/><path class="cls-3" d="M118.51,505.72a6,6,0,1,1,1.92-8.25A6,6,0,0,1,118.51,505.72Z"/></svg>