<svg id="Layer_1" data-name="Layer 1" xmlns="http://www.w3.org/2000/svg" viewBox="0 0 1920 291"><defs><style>.cls-1{fill:#8ba8d3;}.cls-2{fill:none;stroke:#8ba8d3;stroke-miterlimit:10;}.cls-3{fill:#282828;}.cls-4{fill:#27a9e0;}.cls-5{fill:#1f739c;}</style></defs><title>sectionbg5</title><path class="cls-1" d="M1567.35,87a9.32,9.32,0,1,1-10.86-7.48A9.32,9.32,0,0,1,1567.35,87Z"/><path class="cls-1" d="M1571.71,97S1569,91,1564.3,93.23l2.78-5.7S1572.84,89.62,1571.71,97Z"/><path class="cls-2" d="M1770.22,182.66s-.11-13.37-8.6-18a28.56,28.56,0,1,1,9.28-15.07,23.65,23.65,0,0,1-.69,2.4C1773.14,155.63,1780.22,167.07,1770.22,182.66Z"/><path class="cls-3" d="M1691.87,287.75a3,3,0,1,1-3-3A3,3,0,0,1,1691.87,287.75Z"/><path class="cls-4" d="M583.73,114.45a4.66,4.66,0,1,1-4.66-4.65A4.66,4.66,0,0,1,583.73,114.45Z"/><path class="cls-4" d="M150.51,153.72a6,6,0,1,1,1.92-8.25A6,6,0,0,1,150.51,153.72Z"/><path class="cls-5" d="M341.46,276.51A4.65,4.65,0,1,1,343,270.1,4.64,4.64,0,0,1,341.46,276.51Z"/></svg>