<svg id="Layer_1" data-name="Layer 1" xmlns="http://www.w3.org/2000/svg" viewBox="0 0 1920 577"><defs><style>.cls-1{fill:#8ba8d3;}.cls-2{fill:#27a9e0;}.cls-3{fill:#1f739c;}</style></defs><title>sectionbg4</title><path class="cls-1" d="M1011,6.08a12.94,12.94,0,1,1-18.3-.56A12.93,12.93,0,0,1,1011,6.08Z"/><path class="cls-1" d="M1023.67,14.49s-7.79-5-11.5,1.16l-1-8.74S1019.41,5,1023.67,14.49Z"/><path class="cls-2" d="M211.73,577.45a4.66,4.66,0,1,1-4.66-4.65A4.66,4.66,0,0,1,211.73,577.45Z"/><path class="cls-2" d="M1773.51,160.72a6,6,0,1,1,1.92-8.25A6,6,0,0,1,1773.51,160.72Z"/><path class="cls-3" d="M83.46,446.51A4.65,4.65,0,1,1,85,440.1,4.64,4.64,0,0,1,83.46,446.51Z"/></svg>