<svg id="Layer_1" data-name="Layer 1" xmlns="http://www.w3.org/2000/svg" viewBox="0 0 1920 620"><defs><style>.cls-1{fill:#fff;}.cls-2{fill:#1652aa;}.cls-3{fill:#8ba8d3;}.cls-4{fill:none;stroke:#8ba8d3;stroke-miterlimit:10;}.cls-5{fill:#282828;}.cls-6{fill:#27a9e0;}.cls-7{fill:#1f739c;}</style></defs><title>sectionbg6</title><rect class="cls-1" width="1920" height="620"/><path class="cls-2" d="M1920,179.41V620H0V73.14A1090.33,1090.33,0,0,0,371.85,202.68c173.49,26.62,350.35,10.82,525.15-5l700.76-63.54c69.85-6.33,140.78-12.62,209.71.36C1847.23,142,1886.66,156.78,1920,179.41Z"/><path class="cls-3" d="M294.7,335.51a8.47,8.47,0,1,1-6.27-10.19A8.46,8.46,0,0,1,294.7,335.51Z"/><path class="cls-3" d="M294.65,345.44s-.08-6.05-4.77-5.86l4.4-3.72S298.3,339.71,294.65,345.44Z"/><path class="cls-3" d="M1418.74,274.87a8.41,8.41,0,1,1-11-4.58A8.41,8.41,0,0,1,1418.74,274.87Z"/><path class="cls-3" d="M1424.47,282.9s-3.58-4.83-7.25-1.95l1.39-5.55S1424.08,276.16,1424.47,282.9Z"/><path class="cls-4" d="M1689.89,306.63s5.77-9.55,13.85-9.29a23.82,23.82,0,1,0-.26-14.76,20.46,20.46,0,0,0-.52,2C1699.3,286,1689.34,291.18,1689.89,306.63Z"/><path class="cls-5" d="M128.87,548.75a3,3,0,1,1-3-3A3,3,0,0,1,128.87,548.75Z"/><path class="cls-6" d="M1485.73,553.45a4.66,4.66,0,1,1-4.66-4.65A4.66,4.66,0,0,1,1485.73,553.45Z"/><path class="cls-6" d="M1511.51,421.72a6,6,0,1,1,1.92-8.25A6,6,0,0,1,1511.51,421.72Z"/><path class="cls-6" d="M126.51,556.72a6,6,0,1,1,1.92-8.25A6,6,0,0,1,126.51,556.72Z"/><path class="cls-7" d="M1773.46,452.51a4.65,4.65,0,1,1,1.49-6.41A4.64,4.64,0,0,1,1773.46,452.51Z"/></svg>