<svg id="Layer_1" data-name="Layer 1" xmlns="http://www.w3.org/2000/svg" viewBox="0 0 1920 1193"><defs><style>.cls-1{fill:#f8f7ff;}.cls-2{fill:#8ba8d3;}.cls-3{fill:none;stroke:#8ba8d3;stroke-miterlimit:10;}.cls-4{fill:#282828;}.cls-5{fill:#27a9e0;}.cls-6{fill:#1f739c;}</style></defs><title>sectionbg3</title><path class="cls-1" d="M1920.5,642.12v515.16a480.8,480.8,0,0,1-57.67,12.27c-38.48,5.75-83.35,4.55-109-24.75-24.86-28.44-21.12-71.71-10.61-108,21.71-74.95,65.6-142.39,83.79-218.27,7.37-30.78,10.5-62.85,22.82-92C1864.5,691.91,1890.29,664.91,1920.5,642.12Z"/><path class="cls-1" d="M564.86,858.58c-10.2,24.91-26.16,47-43,68-26.38,32.82-55.64,63.77-90.29,87.69-100.42,69.32-235.6,73.13-334.75,144.27-14.61,10.48-29,22.59-43.72,34H-.5V.27C20.74,34,48.63,63.89,78.48,89.7c31.58,27.31,65.9,51.53,102.73,71.19,36.13,19.27,74.53,34.1,110.37,53.91C380,263.68,450.27,342.16,497.24,431.62s71.51,189.56,80.43,290.2C581.76,767.88,582.39,815.79,564.86,858.58Z"/><path class="cls-2" d="M209.51,942.74a12.95,12.95,0,1,1-9.59-15.6A12.94,12.94,0,0,1,209.51,942.74Z"/><path class="cls-2" d="M209.43,957.92s-.11-9.26-7.29-9l6.72-5.68S215,949.15,209.43,957.92Z"/><path class="cls-2" d="M1778.43,155.18a12.95,12.95,0,1,1-16.9-7A12.93,12.93,0,0,1,1778.43,155.18Z"/><path class="cls-2" d="M1787.24,167.54s-5.5-7.44-11.16-3l2.14-8.54S1786.64,157.17,1787.24,167.54Z"/><path class="cls-3" d="M126.74,420.74s6.61-11.63,16.3-11.57a28.55,28.55,0,1,0-.78-17.68c-.22.81-.41,1.62-.56,2.43C137.36,395.7,125.6,402.25,126.74,420.74Z"/><path class="cls-4" d="M1482.87,1040.75a3,3,0,1,1-3-3A3,3,0,0,1,1482.87,1040.75Z"/><path class="cls-5" d="M1679.73,718.45a4.66,4.66,0,1,1-4.66-4.65A4.66,4.66,0,0,1,1679.73,718.45Z"/><path class="cls-5" d="M287.51,811.72a6,6,0,1,1,1.92-8.25A6,6,0,0,1,287.51,811.72Z"/><path class="cls-6" d="M1737.46,403.51a4.65,4.65,0,1,1,1.49-6.41A4.64,4.64,0,0,1,1737.46,403.51Z"/></svg>