<svg xmlns="http://www.w3.org/2000/svg" viewBox="0 0 85.36 85.35"><defs><style>.cls-1{fill:none;}.cls-2,.cls-3{fill:#282828;}.cls-2{stroke:#282828;stroke-miterlimit:10;}.cls-4{fill:#27a9e0;}.cls-5{fill:#1f739c;}</style></defs><title>Asset 73</title><g id="Layer_2" data-name="Layer 2"><g id="Layer_1-2" data-name="Layer 1"><path class="cls-1" d="M0,0V85.35H85.36V0ZM22.11,68.09a102.93,102.93,0,0,1-10.22,9c-1.39,1-2.5,1.8-4.15,1.2A4.49,4.49,0,0,1,5.26,75.9l0-.12c.18.09.35.17.52.27A.67.67,0,0,0,6.53,75a14.92,14.92,0,0,0-1.45-.71,3.54,3.54,0,0,1,.35-.8c1.05.24,2.08.52,3.11.86.81.27,1.27-1,.46-1.24s-1.75-.53-2.64-.75c.22-.22.46-.43.7-.64l3.12.92c.81.24,1.27-1,.45-1.24l-2.38-.7L9,70.06a19.42,19.42,0,0,1,3.27.69c.81.24,1.29-1,.46-1.24a21.89,21.89,0,0,0-2.42-.59c.38-.34.76-.68,1.15-1a25.29,25.29,0,0,1,3,.92.66.66,0,0,0,.46-1.23c-.75-.29-1.54-.52-2.32-.74l.65-.55,3,.87c.81.24,1.27-1,.46-1.23l-2.21-.66.65-.54a.48.48,0,0,0,.22,0,15.54,15.54,0,0,1,3.7.72c.81.26,1.28-1,.48-1.24a17.39,17.39,0,0,0-2.92-.67c.27-.21.57-.42.84-.62A15.27,15.27,0,0,1,21,64.17c.78.36,1.24-.88.48-1.24a17.09,17.09,0,0,0-2.59-1c.29-.18.56-.38.85-.56a16.18,16.18,0,0,1,2.69,1c.76.38,1.23-.86.46-1.23a15.85,15.85,0,0,0-1.54-.66,3,3,0,0,1,3.46.54C27.36,63.52,23.83,66.45,22.11,68.09ZM41,66.79A20,20,0,0,1,24.5,35.56a20.3,20.3,0,0,1,1.51-2,20,20,0,0,1,10.83-6.36,16.23,16.23,0,0,1,1.85-.31A20.31,20.31,0,0,1,41,26.8,20,20,0,0,1,60.8,43.67,17.3,17.3,0,0,1,61,45.45c0,.44,0,.89,0,1.34a20.07,20.07,0,0,1-2,8.66,21.32,21.32,0,0,1-1.6,2.74A20,20,0,0,1,41,66.79Z"/><path class="cls-2" d="M72.93,11.66C64.12,3.81,50.69,2.77,40.44,8.12c-10,5.23-16.83,16.07-15.94,27.44a20.3,20.3,0,0,1,1.51-2A26.25,26.25,0,0,1,31.2,18.48,27.83,27.83,0,0,0,38,22.8a28.17,28.17,0,0,0-1.2,4.45,16.23,16.23,0,0,1,1.85-.31,25.9,25.9,0,0,1,1-3.46A50.89,50.89,0,0,0,51.2,26.24a26.81,26.81,0,0,0,4.66.21q.38,3.82.62,7.64a19.86,19.86,0,0,1,2.1,3.1c4.16-.19,8.3-.46,12.42-.92a21.41,21.41,0,0,1-2.46,8.54,44.89,44.89,0,0,0-7.74-1.14A17.3,17.3,0,0,1,61,45.45a42.57,42.57,0,0,1,6.66.95,23.68,23.68,0,0,1-8.57,9.05,21.32,21.32,0,0,1-1.6,2.74,28.34,28.34,0,0,0,13-4.17A24.34,24.34,0,0,0,80.69,41.61C84.76,31.47,81,18.87,72.93,11.66Zm-4.64-1a22.32,22.32,0,0,1,7.1,6.46,33.41,33.41,0,0,1-5.09,3.44A26.6,26.6,0,0,0,58.6,6.84,32.41,32.41,0,0,1,68.29,10.63ZM38.69,21.14a24.83,24.83,0,0,1-6.41-4.06A27.75,27.75,0,0,1,49.47,7a33.53,33.53,0,0,0-9.41,11.29C39.55,19.24,39.09,20.19,38.69,21.14Zm11.2,3.11a53.88,53.88,0,0,1-9.57-2.44c.37-.87.79-1.75,1.26-2.63C44.22,14.31,47.89,9.64,52.83,7q1.85,8.79,2.83,17.68A27.2,27.2,0,0,1,49.89,24.25ZM54.62,6.94c6.9,2.56,11.56,7.93,14.11,14.4a33,33,0,0,1-11.31,3.19Q56.45,15.7,54.62,6.94Zm3.7,28.5c-.16-3-.4-6.08-.71-9.1A34.92,34.92,0,0,0,69.33,23,34.93,34.93,0,0,1,71,31.58q.11,1.5.09,2.91C66.84,35,62.6,35.25,58.32,35.44Zm3.62,20.25a27,27,0,0,0,7.49-8.83,28.51,28.51,0,0,1,4.75,1.85A25.32,25.32,0,0,1,61.94,55.69ZM80.16,37.26a23.1,23.1,0,0,1-4.78,10.1,28.34,28.34,0,0,0-5.11-2.07,23.48,23.48,0,0,0,2.51-9.23q3.87-.5,7.73-1.27A20.39,20.39,0,0,1,80.16,37.26Zm-7.32-3c0-1.1,0-2.22-.14-3.38a36.14,36.14,0,0,0-1.8-8.72,37.45,37.45,0,0,0,5.48-3.63A27.4,27.4,0,0,1,80.59,33C78,33.52,75.43,33.94,72.84,34.28Z"/><path class="cls-3" d="M26,18.93A36,36,0,0,1,34,8.81c.64-.56-.3-1.5-.93-.93A36.88,36.88,0,0,0,24.9,18.26C24.5,19,25.65,19.68,26,18.93Z"/><path class="cls-3" d="M26.16,14.15A15.3,15.3,0,0,1,29,10.33c.61-.6-.33-1.53-.93-.93a16.34,16.34,0,0,0-3,4.08C24.62,14.24,25.76,14.91,26.16,14.15Z"/><path class="cls-3" d="M77.15,51.53a21.68,21.68,0,0,1-9,6.3c-.79.3-.45,1.58.35,1.28a22.93,22.93,0,0,0,9.59-6.64C78.63,51.82,77.7,50.88,77.15,51.53Z"/><path class="cls-3" d="M76,55.92a7.83,7.83,0,0,1-2.54,2c-.77.36-.1,1.5.66,1.14A8.65,8.65,0,0,0,77,56.86C77.5,56.22,76.57,55.28,76,55.92Z"/><path class="cls-4" d="M41,31.22c-8.12,0-14,5.57-14,14.13s5.86,16.88,14,16.88,14.72-6.94,14.72-15.51S49.17,31.22,41,31.22Zm.35,27.26c-6,0-9.77-5.48-10.92-12-1.28-7.31,4.17-12.39,10.92-12a11.71,11.71,0,0,1,10.91,12C52.3,53.1,47.42,58.48,41.39,58.48Z"/><path class="cls-3" d="M56.61,45.31a17.29,17.29,0,0,0-.23-1.76,15.54,15.54,0,0,0-2.45-6.17,15,15,0,0,0-1.37-1.72,15.24,15.24,0,0,0-2-1.77,16,16,0,0,0-12.39-3.44,10.51,10.51,0,0,0-1.81.41,12.87,12.87,0,0,0-3.07,1.35,16.11,16.11,0,0,0-4.54,4.27A15.88,15.88,0,0,0,27,39.68a16.7,16.7,0,0,0-.85,2.68,15.11,15.11,0,0,0-.16,6,16.75,16.75,0,0,0,2,5.47c-1.3,1.2-2.62,2.39-3.81,3.69-.22.22-.42.44-.61.66-2.2-.45-4.71,1.69-6.39,2.82-3.68,2.47-6.87,5.59-10.24,8.44C5.43,70.82,2.88,72.68,3,75c.1,1.78,2.36,4.77,4.05,5.37,2.4.84,5.12-1.16,6.82-2.57A134.7,134.7,0,0,0,24,68.68c1.6-1.63,3.93-3.43,3.59-6q.3-.3.63-.57C29.49,61,30.86,60,32.1,58.79a17.18,17.18,0,0,0,7,3.64,12.87,12.87,0,0,0,13.17-4.32,17.52,17.52,0,0,0,1.82-2.55,18.22,18.22,0,0,0,1.13-2.2A17.71,17.71,0,0,0,56.61,45.31ZM52.3,55.22a13.25,13.25,0,0,1-2.16,2.63C45,62.71,37,61.63,31.92,56.21A15.45,15.45,0,0,1,27.61,45h0a13,13,0,0,1,.43-2.9,13.44,13.44,0,0,1,2.63-5.24l.08-.1a12.7,12.7,0,0,1,5.56-3.92,10.12,10.12,0,0,1,1.79-.5,13.79,13.79,0,0,1,11.45,3c.19.13.35.27.52.41a11.67,11.67,0,0,1,1.73,1.71,13,13,0,0,1,2.81,6.13,11.44,11.44,0,0,1,.22,1.76,16.72,16.72,0,0,1-2.35,9.57A3.14,3.14,0,0,1,52.3,55.22ZM22.11,68.09a102.93,102.93,0,0,1-10.22,9c-1.39,1-2.5,1.8-4.15,1.2A4.46,4.46,0,0,1,5.26,75.9l0-.12c.17.09.35.17.52.27a.69.69,0,0,0,.93-.16A.68.68,0,0,0,6.52,75a13.72,13.72,0,0,0-1.44-.71,2.83,2.83,0,0,1,.35-.8c1.05.24,2.08.52,3.11.86.81.27,1.27-1,.46-1.24s-1.75-.53-2.64-.75c.22-.22.46-.43.7-.64l3.12.92c.81.24,1.27-1,.45-1.24l-2.38-.7c.24-.2.49-.41.71-.61a19.32,19.32,0,0,1,3.28.69c.81.24,1.28-1,.46-1.24a22.07,22.07,0,0,0-2.43-.59l1.16-1a24.6,24.6,0,0,1,3,.92.66.66,0,0,0,.47-1.23c-.75-.29-1.54-.52-2.32-.74l.65-.55,3,.87c.81.24,1.27-1,.46-1.23l-2.21-.66.65-.54a.48.48,0,0,0,.22,0,15.54,15.54,0,0,1,3.7.72c.81.26,1.28-1,.47-1.24a17.05,17.05,0,0,0-2.91-.67c.27-.21.57-.42.84-.62A15.27,15.27,0,0,1,21,64.17c.77.36,1.24-.88.48-1.24a17.5,17.5,0,0,0-2.59-1c.29-.18.56-.38.85-.56a16.18,16.18,0,0,1,2.69,1c.76.38,1.22-.86.46-1.23a15.85,15.85,0,0,0-1.54-.66,3,3,0,0,1,3.46.54C27.36,63.52,23.83,66.45,22.11,68.09ZM26.94,61A6.84,6.84,0,0,0,25.21,59c1.16-1.29,2.46-2.47,3.73-3.64a18.85,18.85,0,0,0,1.86,2.22C29.55,58.75,28.19,59.78,26.94,61Z"/><path class="cls-5" d="M22.11,68.09a102.93,102.93,0,0,1-10.22,9c-1.39,1-2.5,1.8-4.15,1.2A4.46,4.46,0,0,1,5.26,75.9l0-.12c.17.09.35.17.52.27a.69.69,0,0,0,.93-.16A.68.68,0,0,0,6.52,75a13.72,13.72,0,0,0-1.44-.71,2.83,2.83,0,0,1,.35-.8c1.05.24,2.08.52,3.11.86.81.27,1.27-1,.46-1.24s-1.75-.53-2.64-.75c.22-.22.46-.43.7-.64l3.12.92c.81.24,1.27-1,.45-1.24l-2.38-.7c.24-.2.49-.41.71-.61a19.32,19.32,0,0,1,3.28.69c.81.24,1.28-1,.46-1.24a22.07,22.07,0,0,0-2.43-.59l1.16-1a24.6,24.6,0,0,1,3,.92.66.66,0,0,0,.47-1.23c-.75-.29-1.54-.52-2.32-.74l.65-.55,3,.87c.81.24,1.27-1,.46-1.23l-2.21-.66.65-.54a.48.48,0,0,0,.22,0,15.54,15.54,0,0,1,3.7.72c.81.26,1.28-1,.47-1.24a17.05,17.05,0,0,0-2.91-.67c.27-.21.57-.42.84-.62A15.27,15.27,0,0,1,21,64.17c.77.36,1.24-.88.48-1.24a17.5,17.5,0,0,0-2.59-1c.29-.18.56-.38.85-.56a16.18,16.18,0,0,1,2.69,1c.76.38,1.22-.86.46-1.23a15.85,15.85,0,0,0-1.54-.66,3,3,0,0,1,3.46.54C27.36,63.52,23.83,66.45,22.11,68.09Z"/><path class="cls-3" d="M50.41,38.11c-4.48-4.83-13.37-6.25-18.12-1-4.55,5-3.47,13.14.67,18,4.6,5.44,11.34,6.1,16.37.75C53.87,51.06,54.84,43.26,50.41,38.11ZM42,58.47c-3.22.22-6-1.81-8-4.15-3.53-4.19-4.74-11-1.3-15.64,4-5.34,12.52-4.24,16.7.26,3.6,4.2,3.23,10.29.08,14.71C47.79,56,45,58.25,42,58.47Z"/><path class="cls-3" d="M44,37.19a9.68,9.68,0,0,0-9.37.92c-.77.61-1.82,1.67-1.32,2.75a1.69,1.69,0,0,0,2.18.67c.73-.28,1.3-.86,2-1.16a7.4,7.4,0,0,1,3.23-.49c1.3.06,2.62.86,3.87.82a1.62,1.62,0,0,0,1.54-1.35C46.22,38.25,44.8,37.57,44,37.19Zm-1.3,1.63a10.47,10.47,0,0,0-4-.15,8,8,0,0,0-2.19.71c-.21.11-.41.28-.63.37-.63.23-1.8.51-.4-.61a8.21,8.21,0,0,1,6.5-1.22c.37.08,3,.9,2.32,1.36A9.57,9.57,0,0,1,42.67,38.82Z"/><path class="cls-3" d="M48.62,40.22h0l-.13-.07a1.92,1.92,0,0,0-2.62,1.4,1.87,1.87,0,0,0,2,2.15,1.94,1.94,0,0,0,1.56-1.32A1.71,1.71,0,0,0,48.62,40.22Zm-1,2.15a.54.54,0,0,1-.44-.35c-.15-.5.39-.8.81-.65.21.13.33.26.28.47a.94.94,0,0,1-.38.52h0A.89.89,0,0,1,47.6,42.37Zm.29,0Z"/></g></g></svg>