<svg xmlns="http://www.w3.org/2000/svg" viewBox="0 0 85.35 85.35"><defs><style>.cls-1{fill:#a8d3e2;}.cls-2{fill:#1f739c;}.cls-3{fill:#27a9e0;}.cls-4,.cls-6{fill:none;}.cls-4{stroke:#282828;stroke-miterlimit:10;stroke-width:3px;}.cls-5{fill:#282828;}</style></defs><title>Asset 70</title><g id="Layer_2" data-name="Layer 2"><g id="Layer_1-2" data-name="Layer 1"><path class="cls-1" d="M63.67,58.67H79.43a.1.1,0,0,1,.07.17L62.84,75.5a.1.1,0,0,1-.17-.07V59.67A1,1,0,0,1,63.67,58.67Z"/><rect class="cls-2" x="12.67" y="21.67" width="60" height="8" rx="1" ry="1"/><rect class="cls-3" x="12.67" y="36.67" width="32" height="32" rx="1" ry="1"/><path class="cls-4" d="M5.67,12.35V74.67a1,1,0,0,0,1,1H62.26a1,1,0,0,0,.71-.29L79.38,59a1,1,0,0,0,.29-.71V12.35a1,1,0,0,0-1.74-.66l-2.37,2.65a1,1,0,0,1-1.49,0L70.21,10a1,1,0,0,0-1.49,0l-3.87,4.33a1,1,0,0,1-1.49,0L59.49,10A1,1,0,0,0,58,10l-3.87,4.33a1,1,0,0,1-1.49,0L48.78,10a1,1,0,0,0-1.49,0l-3.87,4.33a1,1,0,0,1-1.49,0L38.06,10a1,1,0,0,0-1.49,0l-3.86,4.33a1,1,0,0,1-1.49,0L27.35,10a1,1,0,0,0-1.49,0L22,14.34a1,1,0,0,1-1.49,0L16.63,10a1,1,0,0,0-1.49,0l-3.86,4.33a1,1,0,0,1-1.49,0L7.42,11.69A1,1,0,0,0,5.67,12.35Z"/><path class="cls-4" d="M63.67,58.67H79.43a.1.1,0,0,1,.07.17L62.84,75.5a.1.1,0,0,1-.17-.07V59.67A1,1,0,0,1,63.67,58.67Z"/><rect class="cls-4" x="12.67" y="21.67" width="60" height="8" rx="1" ry="1"/><rect class="cls-4" x="12.67" y="36.67" width="32" height="32" rx="1" ry="1"/><rect class="cls-5" x="53.67" y="37.17" width="20.5" height="4" rx="2" ry="2"/><rect class="cls-5" x="48.17" y="37.17" width="4" height="4" rx="2" ry="2"/><rect class="cls-5" x="53.67" y="42.17" width="20.5" height="4" rx="2" ry="2"/><rect class="cls-5" x="48.17" y="42.17" width="4" height="4" rx="2" ry="2"/><rect class="cls-5" x="53.67" y="47.17" width="20.5" height="4" rx="2" ry="2"/><rect class="cls-5" x="48.17" y="47.17" width="4" height="4" rx="2" ry="2"/><path class="cls-5" d="M29,53.73v-.17a1,1,0,0,1,1-1h5.83a1,1,0,0,1,1,1v5.36a1,1,0,0,1-.39.81,13.78,13.78,0,0,1-3.33,1.85,10.91,10.91,0,0,1-3.94.73,10.51,10.51,0,0,1-4.95-1.17,7.76,7.76,0,0,1-3.36-3.37,10.63,10.63,0,0,1-1.13-4.94,11.48,11.48,0,0,1,1.12-5,7.52,7.52,0,0,1,3.25-3.47,10.18,10.18,0,0,1,4.89-1.14,9.72,9.72,0,0,1,3.62.65,6.08,6.08,0,0,1,2.54,1.81,6.86,6.86,0,0,1,1.08,2,1,1,0,0,1-.68,1.31l-.3.09A1,1,0,0,1,34,48.43a5.55,5.55,0,0,0-.75-1.38,4.29,4.29,0,0,0-1.76-1.3A6.58,6.58,0,0,0,29,45.27a7.48,7.48,0,0,0-2.9.51,5.45,5.45,0,0,0-2,1.34A6.62,6.62,0,0,0,22.9,49a9.66,9.66,0,0,0-.7,3.72,9,9,0,0,0,.85,4.14,5.44,5.44,0,0,0,2.48,2.47,7.65,7.65,0,0,0,3.46.81,8.15,8.15,0,0,0,3.1-.61,10.27,10.27,0,0,0,1.86-1,1,1,0,0,0,.44-.84v-2a1,1,0,0,0-1-1H30A1,1,0,0,1,29,53.73Z"/><rect class="cls-6" width="85.35" height="85.35"/></g></g></svg>