<svg xmlns="http://www.w3.org/2000/svg" viewBox="0 0 85.35 85.35"><defs><style>.cls-1{fill:#1f739c;}.cls-2,.cls-4,.cls-7{fill:none;}.cls-2,.cls-4,.cls-6{stroke:#282828;stroke-miterlimit:10;}.cls-2,.cls-6{stroke-width:3px;}.cls-3{fill:#27a9e0;}.cls-4{stroke-width:2.92px;}.cls-5{fill:#282828;}.cls-6{fill:#a8d3e2;}</style></defs><title>Asset 72</title><g id="Layer_2" data-name="Layer 2"><g id="Layer_1-2" data-name="Layer 1"><path class="cls-1" d="M70.17,8.92v25a1,1,0,0,1-1,1H61.59a1,1,0,0,0-.71.3l-3,3a1,1,0,0,1-1.41,0l-3-3a1,1,0,0,0-.71-.3H34.17a1,1,0,0,1-1-1v-25a1,1,0,0,1,1-1h35A1,1,0,0,1,70.17,8.92Z"/><path class="cls-2" d="M70.17,8.92v25a1,1,0,0,1-1,1H61.59a1,1,0,0,0-.71.3l-3,3a1,1,0,0,1-1.41,0l-3-3a1,1,0,0,0-.71-.3H34.17a1,1,0,0,1-1-1v-25a1,1,0,0,1,1-1h35A1,1,0,0,1,70.17,8.92Z"/><path class="cls-3" d="M15.17,4.92h-11a1,1,0,0,0-1,1v23a1,1,0,0,0,1,1h7.59a1,1,0,0,1,.71.3l3,3a1,1,0,0,0,1.41,0l3-3a1,1,0,0,1,.71-.3H39.17a1,1,0,0,0,1-1v-23a1,1,0,0,0-1-1h-24Z"/><path class="cls-2" d="M15.17,4.92h-11a1,1,0,0,0-1,1v23a1,1,0,0,0,1,1h7.59a1,1,0,0,1,.71.3l3,3a1,1,0,0,0,1.41,0l3-3a1,1,0,0,1,.71-.3H39.17a1,1,0,0,0,1-1v-23a1,1,0,0,0-1-1h-11"/><line class="cls-2" x1="20.17" y1="4.92" x2="22.17" y2="4.92"/><path class="cls-3" d="M73.22,47.27l-.09,0q-1.77.39-3.51.93a36.09,36.09,0,0,1-6.07,1.64,9.38,9.38,0,0,1-3.84-.27c.32-4.58,3.31-8.17,7-8.17C69.68,41.42,72.24,43.85,73.22,47.27Z"/><path class="cls-2" d="M73.67,50.42c0,5-3.13,9-7,9s-7-4-7-9a7.56,7.56,0,0,1,0-.83c.32-4.58,3.31-8.17,7-8.17,3,0,5.57,2.43,6.55,5.85A11.1,11.1,0,0,1,73.67,50.42Z"/><path class="cls-2" d="M73.22,47.27l-.09,0q-1.77.39-3.51.93a36.09,36.09,0,0,1-6.07,1.64,9.38,9.38,0,0,1-3.84-.27c.32-4.58,3.31-8.17,7-8.17C69.68,41.42,72.24,43.85,73.22,47.27Z"/><path class="cls-2" d="M64.38,58.92H62.46A11.3,11.3,0,0,0,51.17,70.21v8.71h31V70.21A11.3,11.3,0,0,0,70.88,58.92H69"/><path class="cls-4" d="M58.67,67.92h16a1,1,0,0,1,1,1v10a0,0,0,0,1,0,0h-18a0,0,0,0,1,0,0v-10A1,1,0,0,1,58.67,67.92Z"/><ellipse class="cls-5" cx="66.17" cy="73.17" rx="3" ry="1.25"/><path class="cls-6" d="M35.17,70.21v8.71h-6.5v-10a1,1,0,0,0-1-1h-16a1,1,0,0,0-1,1v10H4.17V70.21A11.3,11.3,0,0,1,15.46,58.92h8.42A11.3,11.3,0,0,1,35.17,70.21Z"/><path class="cls-1" d="M26.22,47.27l-.09,0q-1.77.39-3.51.93a36.09,36.09,0,0,1-6.07,1.64,9.38,9.38,0,0,1-3.84-.27c.32-4.58,3.31-8.17,7-8.17C22.68,41.42,25.24,43.85,26.22,47.27Z"/><path class="cls-2" d="M26.67,50.42c0,5-3.13,9-7,9s-7-4-7-9a7.56,7.56,0,0,1,0-.83c.32-4.58,3.31-8.17,7-8.17,3,0,5.57,2.43,6.55,5.85A11.1,11.1,0,0,1,26.67,50.42Z"/><path class="cls-2" d="M26.22,47.27l-.09,0q-1.77.39-3.51.93a36.09,36.09,0,0,1-6.07,1.64,9.38,9.38,0,0,1-3.84-.27c.32-4.58,3.31-8.17,7-8.17C22.68,41.42,25.24,43.85,26.22,47.27Z"/><path class="cls-2" d="M22,58.92h1.92A11.3,11.3,0,0,1,35.17,70.21v8.71h-31V70.21A11.3,11.3,0,0,1,15.46,58.92h1.92"/><ellipse class="cls-5" cx="19.17" cy="73.17" rx="1.25" ry="3"/><circle class="cls-5" cx="42.67" cy="78.42" r="2"/><rect class="cls-7" width="85.35" height="85.35"/></g></g></svg>