<svg xmlns="http://www.w3.org/2000/svg" viewBox="0 0 85.35 85.35"><defs><style>.cls-1{fill:none;}.cls-2{fill:#a8d3e2;}.cls-3{fill:#27a9e0;}.cls-4{fill:#1f739c;}.cls-5{fill:#282828;}</style></defs><title>Asset 61</title><g id="Layer_2" data-name="Layer 2"><g id="Layer_1-2" data-name="Layer 1"><rect class="cls-1" width="85.35" height="85.35"/><path class="cls-2" d="M48.89,11.54s16.7,25.79,17.43,47.58-.58,0-.58,0L47.8,54.66H33.55l-6.5,1.13L20.39,37.57l11.79-7.78Z"/><path class="cls-3" d="M22.9,56.29s5.8,9.64,7,9.8.8,5,.8,5l-5.75,4.25-3.05-1.06-6-12.94-1.26-2.17Z"/><path class="cls-4" d="M20.39,37.57l6.66,18.22-13.6,4S5.22,58,5.39,44.12C4.82,43.12,10.74,40.74,20.39,37.57Z"/><path class="cls-4" d="M48.89,11.54S60.6,27,67,59.12L70.1,56S65.55,28.29,53.22,10.62C53.22,10.62,49.72,9.27,48.89,11.54Z"/><path class="cls-5" d="M67.58,27a14.1,14.1,0,0,0-4.34.44c-1.47-3.61-3.09-7.16-4.83-10.62-1.1-2.18-2.39-5.64-4.52-7.08-3-2-6.27,1.31-8.12,3.33C37.9,21.67,30.72,30.77,20.18,36.35a1.24,1.24,0,0,0-.25.18c-3,.91-5.94,1.84-8.88,2.82C9.15,40,6.56,40.41,5,41.8c-2.69,2.4-.89,7.61.17,10.34,1,2.58,3.33,7.78,6.33,8.66a5.5,5.5,0,0,0,2.77-.13c1.78,3.7,3.41,7.5,5.47,11.06,1.32,2.29,2.66,5.34,5.76,4.32s7.3-4.37,6.31-8.18c-.49-1.93-2.25-3.37-3.35-4.93a36,36,0,0,1-3-5.51L26.84,57a60.44,60.44,0,0,1,18.29-1.11c5.47.61,10.81,2.05,16.18,3.19,2.65.57,7.7,2.66,9.52-.55s-.6-9.4-1.44-12.65c-.58-2.21-1.22-4.41-1.9-6.6,1.49-1,3.33-1.95,4.05-3.62s0-3.7-.74-5.33C70.16,28.92,69.26,27.2,67.58,27ZM9.75,55.89a20.14,20.14,0,0,1-2.19-4A19.9,19.9,0,0,1,6.23,47.6c-.58-3.21,1.22-4.62,4-5.56q5-1.7,10.1-3.23,2.57,8.1,5.43,16.11c-3,1-6,1.85-9.07,2.63C13.84,58.27,11.69,58.58,9.75,55.89Zm18,9c.31.4.79.92,1,1.31,1.5,2.35,1.53,3.79-.45,6a8.27,8.27,0,0,1-2.24,1.56,4.31,4.31,0,0,1-1.6.51,10,10,0,0,0,.78-1.73c.36-1-1.3-1.5-1.66-.46A7,7,0,0,1,23,73.48l-.22-.22a6,6,0,0,1-.46-.53.37.37,0,0,0,.05-.11,10.16,10.16,0,0,1,.53-1,9,9,0,0,0,.55-1.32c.36-1-1.3-1.49-1.66-.45a9.58,9.58,0,0,1-.58,1.26c-.23-.4-.44-.82-.65-1.24h0c.4-.86.79-1.72,1.18-2.58a.88.88,0,0,0-.3-1.18.86.86,0,0,0-1.18.31l-.66,1.44-.46-1-.24-.48a.79.79,0,0,0,.18-.22l1.15-2a.86.86,0,0,0-1.48-.87L18,64.53c-.22-.46-.44-.91-.65-1.37a1,1,0,0,0,.17-.18c.35-.45.68-.91,1-1.38a.86.86,0,0,0-.31-1.17.88.88,0,0,0-1.18.31l-.5.69-.6-1.25c.49-.16,1-.31,1.37-.42q3.26-.82,6.46-1.82A37.48,37.48,0,0,0,27.76,64.88Zm31.78-8.55a130.26,130.26,0,0,0-14.92-2.81,61.51,61.51,0,0,0-17.18,1q-3-8.19-5.56-16.51c9.47-5.17,16.84-13.25,23.79-21.36a30.85,30.85,0,0,1,3.5-3.94c4.09,6.14,6.77,13.78,9.46,20.55a129,129,0,0,1,7.11,24.5A42.27,42.27,0,0,1,59.54,56.33Zm9.51-.71a2.05,2.05,0,0,1-1.59,2,129.28,129.28,0,0,0-7.39-25.38c-2.73-6.78-5.35-14.35-9.46-20.48a2.37,2.37,0,0,1,2.24,0c1,.55,1.81,2.77,2.33,3.71a124.11,124.11,0,0,1,6.21,13.52A148.39,148.39,0,0,1,67,45.9C67.79,48.78,69.25,52.62,69.05,55.62Zm.54-20.09a8.79,8.79,0,0,1-2.64,2q-1.4-4.3-3.06-8.52c.68-.11,1.37-.22,2.06-.29,1.67-.18,2.32.3,3.1,1.85S70.67,34,69.59,35.53Z"/><path class="cls-5" d="M68,21.82c0-1.63,0-3.27,0-4.9a.86.86,0,0,0-1.72,0c0,1.63,0,3.27,0,4.9A.86.86,0,0,0,68,21.82Z"/><path class="cls-5" d="M75,25.13l2.69-2.94c.74-.82-.47-2-1.22-1.22-.89,1-1.79,2-2.68,3C73.08,24.73,74.29,26,75,25.13Z"/><path class="cls-5" d="M80.94,30.76c-1.28-.08-2.56-.07-3.84-.11a.86.86,0,0,0,0,1.72c1.28,0,2.56,0,3.84.11C82,32.55,82,30.83,80.94,30.76Z"/><path class="cls-5" d="M74.46,38.59c-.9-.65-1.76.85-.87,1.49a36.82,36.82,0,0,1,3.12,2.58c.81.75,2-.46,1.21-1.21A38.06,38.06,0,0,0,74.46,38.59Z"/><path class="cls-5" d="M12.88,46.7c1-.4.57-2.06-.46-1.66L9,46.38c-1,.4-.58,2.07.46,1.66Z"/><path class="cls-5" d="M13.35,47.86a24.84,24.84,0,0,1-3.66,1.39.86.86,0,0,0,.46,1.66,27.15,27.15,0,0,0,4.07-1.57C15.22,48.86,14.34,47.38,13.35,47.86Z"/></g></g></svg>