<svg xmlns="http://www.w3.org/2000/svg" viewBox="0 0 85.35 85.35"><defs><style>.cls-1{fill:#27a9e0;}.cls-2{fill:#1f739c;}.cls-3{fill:#a8d3e2;}.cls-4,.cls-6{fill:none;}.cls-4{stroke:#282828;stroke-miterlimit:10;stroke-width:3px;}.cls-5{fill:#282828;}</style></defs><title>Asset 69</title><g id="Layer_2" data-name="Layer 2"><g id="Layer_1-2" data-name="Layer 1"><path class="cls-1" d="M27.66,48.66S22.06,50.24,21,63.59a1,1,0,0,0,1.07,1.07C35.45,63.64,37,58,37,58"/><path class="cls-2" d="M58.51,49.42s2,22.29-11.28,30.49a1,1,0,0,1-1.52-1.07c1-4.17,2.68-13.69,1-22.37"/><path class="cls-2" d="M36.39,27.3S14.1,25.29,5.9,38.58A1,1,0,0,0,7,40.1c4.18-1,13.69-2.68,22.37-1"/><circle class="cls-2" cx="62.71" cy="23.59" r="7"/><path class="cls-3" d="M80.28,18.55l-13-13A80.28,80.28,0,0,1,82.41,2.28a1,1,0,0,1,1.12,1.11A79.6,79.6,0,0,1,80.28,18.55Z"/><path class="cls-4" d="M80.28,18.55l-13-13A80.28,80.28,0,0,1,82.41,2.28a1,1,0,0,1,1.12,1.11A79.6,79.6,0,0,1,80.28,18.55Z"/><path class="cls-4" d="M45.65,56.76q-3.12,1.45-6.38,2.67a1,1,0,0,1-1.07-.23L26.61,47.6a1,1,0,0,1-.24-1.07c7-18.54,19.29-34,40.89-41l13,13C74.14,37.62,61.33,49.47,45.65,56.76Z"/><path class="cls-4" d="M29.15,39.94a40.08,40.08,0,0,1,16.5,16.82"/><circle class="cls-4" cx="62.71" cy="23.59" r="7"/><path class="cls-4" d="M58.51,49.42s2,22.29-11.28,30.49a1,1,0,0,1-1.52-1.07c1-4.17,2.68-13.69,1-22.37"/><path class="cls-4" d="M36.39,27.3S14.1,25.29,5.9,38.58A1,1,0,0,0,7,40.1c4.18-1,13.69-2.68,22.37-1"/><path class="cls-4" d="M27.66,48.66S22.06,50.24,21,63.59a1,1,0,0,0,1.07,1.07C35.45,63.64,37,58,37,58"/><circle class="cls-5" cx="48.56" cy="23.59" r="2"/><rect class="cls-5" x="24.08" y="67.27" width="3" height="18" rx="1.5" ry="1.5" transform="translate(61.43 4.25) rotate(45)"/><rect class="cls-5" x="7.11" y="67.27" width="3" height="18" rx="1.5" ry="1.5" transform="translate(56.46 16.25) rotate(45)"/><rect class="cls-5" x="7.11" y="51.72" width="3" height="18" rx="1.5" ry="1.5" transform="translate(45.46 11.69) rotate(45)"/><path class="cls-5" d="M36,38.52h0a1.39,1.39,0,0,1-.24-2.1,103.58,103.58,0,0,1,7.49-9.35,1.39,1.39,0,0,1,2.11-.22h0A1.38,1.38,0,0,1,45.5,29c-2.46,2.87-5.13,6.24-7.4,9.25A1.39,1.39,0,0,1,36,38.52Z"/><rect class="cls-6" width="85.35" height="85.35"/></g></g></svg>