<svg xmlns="http://www.w3.org/2000/svg" xmlns:xlink="http://www.w3.org/1999/xlink" viewBox="0 0 500 500"><defs><style>.cls-1{isolation:isolate;}.cls-2{fill:#fff;}.cls-3{fill:#f8f7ff;}.cls-4{fill:#f0f5f9;}.cls-13,.cls-5{opacity:0.5;}.cls-6{fill:#c6dcf7;}.cls-30,.cls-31,.cls-32,.cls-33,.cls-38,.cls-39,.cls-40,.cls-7{fill:none;}.cls-39,.cls-7{stroke:#fff;}.cls-30,.cls-31,.cls-32,.cls-33,.cls-7{stroke-miterlimit:10;}.cls-7{stroke-width:0.92px;}.cls-8{fill:#0e2331;}.cls-9{fill:url(#Degradado_sin_nombre_17);}.cls-10{fill:#0070ff;opacity:0.2;}.cls-10,.cls-13,.cls-15,.cls-19{mix-blend-mode:multiply;}.cls-11{fill:#27a9e0;}.cls-12{fill:url(#Degradado_sin_nombre_16);}.cls-13,.cls-16{fill:#ccccdb;}.cls-14{fill:#afafc6;}.cls-15{opacity:0.6;}.cls-17{fill:#1f739c;}.cls-18,.cls-19{fill:#a2dfff;}.cls-20{fill:#156584;}.cls-21{fill:#e7afa7;}.cls-22{fill:#d3d3dd;}.cls-23{fill:#e6e6f0;}.cls-24{fill:#3c98bc;}.cls-25{fill:#14313d;}.cls-26{fill:#1a55b5;}.cls-27{fill:#b4e6fc;}.cls-28{fill:#001868;}.cls-29{fill:#c8987e;}.cls-30,.cls-31,.cls-32,.cls-33{stroke:#1f739c;}.cls-30{stroke-width:0.42px;}.cls-31,.cls-32,.cls-33{stroke-width:0.65px;}.cls-32{stroke-dasharray:2.79 3.72;}.cls-33{stroke-dasharray:2.77 3.69;}.cls-34{fill:#deeaff;}.cls-35{fill:#acc5ff;}.cls-36{fill:#7da8ff;}.cls-37{fill:#7aa9fe;}.cls-38,.cls-40{stroke:#1a55b5;}.cls-38,.cls-39,.cls-40{stroke-linecap:round;stroke-linejoin:round;}.cls-38{stroke-width:0.58px;}.cls-39{stroke-width:0.27px;}.cls-40{stroke-width:0.33px;}</style><linearGradient id="Degradado_sin_nombre_17" x1="194.26" y1="306.38" x2="268.94" y2="381.06" gradientUnits="userSpaceOnUse"><stop offset="0" stop-color="#d8e7fd"/><stop offset="1" stop-color="#539dff"/></linearGradient><linearGradient id="Degradado_sin_nombre_16" x1="177.11" y1="136.14" x2="286.08" y2="245.11" gradientUnits="userSpaceOnUse"><stop offset="0" stop-color="#e6e6f0"/><stop offset="1" stop-color="#d3d3dd"/></linearGradient></defs><title>services-pic1</title><g class="cls-1"><g id="BACKGROUND"><rect class="cls-2" width="500" height="500"/></g><g id="OBJECTS"><path class="cls-3" d="M116.06,44.43a12.68,12.68,0,0,0-5.31,5.25,11.33,11.33,0,0,0-.35,7.93A16.47,16.47,0,0,0,127.63,69c5.36-.66,10.14-4,15.52-4.54,2.16-.22,4.36,0,6.49-.4a10,10,0,0,0,6.84-4.92A8.33,8.33,0,0,0,154.85,49c-2.87-2.48-4.37-.84-7.42-.56-3.27.31-6.28-3.44-9.1-4.79a24.26,24.26,0,0,0-10.6-2.34A23.49,23.49,0,0,0,116.06,44.43Z"/><path class="cls-3" d="M168.93,84.26c1.31.06,2.79-.11,3.59-1.14a4.69,4.69,0,0,0,.72-2.56c.27-3.34,1.36-6.11-2.77-6.42a12.58,12.58,0,0,0-7.83,1.63C160.83,77,159.94,78.9,161,81,162.27,83.62,166.3,84.14,168.93,84.26Z"/><path class="cls-3" d="M422.08,122.26c1.63-.07,3.54-.35,4.29-1.79A3.74,3.74,0,0,0,426,117a5.59,5.59,0,0,0-2.53-2.4C418.26,112.38,416.78,122.47,422.08,122.26Z"/><path class="cls-3" d="M399,124.55c-3.38-.22-7.06.21-9.57,2.49a8.21,8.21,0,0,0-.13,11.51c3,2.83,7.53,2.93,11.64,2.85,5.2-.1,10.6-.25,15.26-2.55,2.4-1.18,5.05-3.64,4.27-6.59a7.25,7.25,0,0,0-4.83-4.65c-2-.54-4.14-.29-6.15-.73C405.94,126.09,402.7,124.8,399,124.55Z"/><path class="cls-3" d="M105.68,91.93c-11.92-6.53-22-16.09-33.78-22.78S45,58.92,33,65.37,15.79,86.4,16.5,99.84s6.41,26,12,38.25Q44.28,172.56,60.05,207c16.53,36.11,33.27,73,37.88,112.41,3,26.11,1.24,54.57,16.13,76.23,12,17.39,32.33,26.69,52,34.26C217.16,449.55,272,463.2,326.37,457.26s108.45-34.09,135.16-81.85c12.19-21.78,18.26-46.56,20.81-71.39,3.39-33,.31-68-17-96.33-20.42-33.47-58-53.19-96.05-62.53s-77.67-9.85-116.65-14.08c-26.56-2.89-53.3-7.66-78.11-17.88-9.94-4.09-22.22-15.06-32.54-16.35-5.54-.69-11.48,2.08-17.37,1.41A52.35,52.35,0,0,1,105.68,91.93Z"/><path class="cls-4" d="M401.89,390c-3.26-6.73-3.8-14.41-5.77-21.63s-6.13-14.65-13.25-16.95c-6.05-1.95-12.76.38-17.94,4.07-4.23,3-8.72,7.18-13.8,6.07-4.32-.94-6.87-5.38-8.43-9.52-6.32-16.72-5.86-36.53-17.24-50.31-9.39-11.37-25.79-15.91-40.09-12.3s-23,14.68-29,28.16S250.82,390,250.82,390Z"/><g class="cls-5"><path class="cls-6" d="M202.41,175.85l-29-3.54A10,10,0,0,0,162.28,181l-1.23,10.12a9.91,9.91,0,0,1-7.27,8.41c-.88.23-1.75.47-2.62.73a9.88,9.88,0,0,1-10.58-3.45l-6.28-8a10,10,0,0,0-14.08-1.72l-23,18a10,10,0,0,0-1.72,14.07l6.28,8a9.89,9.89,0,0,1,.8,11.1c-.46.78-.91,1.57-1.34,2.37a9.89,9.89,0,0,1-9.91,5l-10.13-1.24a10,10,0,0,0-11.16,8.74l-3.55,29a10,10,0,0,0,8.73,11.17l10.13,1.24a9.88,9.88,0,0,1,8.4,7.27c.23.87.48,1.75.74,2.62A9.9,9.9,0,0,1,91.05,315l-8,6.28a10,10,0,0,0-1.72,14.07l18,23a10,10,0,0,0,14.07,1.72l8-6.28a9.87,9.87,0,0,1,11.1-.8c.78.46,1.57.9,2.36,1.34a9.9,9.9,0,0,1,5,9.91l-1.24,10.12a10,10,0,0,0,8.73,11.17l29,3.55a10,10,0,0,0,11.17-8.74l1.24-10.12a9.9,9.9,0,0,1,7.26-8.41c.88-.23,1.75-.47,2.62-.73a9.9,9.9,0,0,1,10.58,3.45l6.29,8a10,10,0,0,0,14.07,1.72l23-18a10,10,0,0,0,1.72-14.07l-6.28-8a9.89,9.89,0,0,1-.8-11.1c.46-.78.91-1.57,1.34-2.37a9.92,9.92,0,0,1,9.92-5l10.12,1.24a10,10,0,0,0,11.17-8.73l3.54-29a10,10,0,0,0-8.73-11.17l-10.12-1.24a9.88,9.88,0,0,1-8.41-7.26c-.23-.88-.48-1.75-.73-2.62a9.9,9.9,0,0,1,3.45-10.59l8-6.28A10,10,0,0,0,268.48,226l-18-23a10,10,0,0,0-14.07-1.73l-8,6.29a9.91,9.91,0,0,1-11.11.79l-2.36-1.34a9.86,9.86,0,0,1-5-9.91L211.14,187A10,10,0,0,0,202.41,175.85Z"/><circle class="cls-2" cx="175.34" cy="281.64" r="36.99"/><circle class="cls-7" cx="175.34" cy="281.64" r="53.65" transform="translate(-149.72 347.98) rotate(-69.63)"/><circle class="cls-7" cx="175.34" cy="281.64" r="75.79" transform="translate(-147.8 206.47) rotate(-45)"/><path class="cls-6" d="M377,125.87l-14-9.63a5.84,5.84,0,0,0-8.12,1.49l-3.37,4.89a5.75,5.75,0,0,1-6,2.39c-.52-.12-1-.23-1.55-.33a5.77,5.77,0,0,1-4.53-4.64l-1.08-5.84a5.84,5.84,0,0,0-6.8-4.68l-16.7,3.08a5.84,5.84,0,0,0-4.68,6.8l1.08,5.84a5.76,5.76,0,0,1-2.58,5.94c-.45.28-.89.57-1.33.86a5.75,5.75,0,0,1-6.47-.08L296,128.6a5.82,5.82,0,0,0-8.11,1.5l-9.64,14a5.85,5.85,0,0,0,1.5,8.12l4.89,3.37a5.75,5.75,0,0,1,2.38,6c-.12.51-.23,1-.33,1.55a5.76,5.76,0,0,1-4.63,4.53l-5.84,1.08a5.82,5.82,0,0,0-4.68,6.79l3.08,16.71a5.85,5.85,0,0,0,6.8,4.68l5.84-1.08a5.75,5.75,0,0,1,5.94,2.58c.28.45.57.89.86,1.33a5.76,5.76,0,0,1-.08,6.47l-3.37,4.89a5.84,5.84,0,0,0,1.5,8.11l14,9.63a5.83,5.83,0,0,0,8.11-1.49l3.37-4.89a5.77,5.77,0,0,1,6-2.38c.51.12,1,.22,1.54.33a5.76,5.76,0,0,1,4.54,4.63l1.07,5.84a5.84,5.84,0,0,0,6.8,4.68l16.7-3.08a5.84,5.84,0,0,0,4.68-6.8l-1.08-5.84a5.77,5.77,0,0,1,2.59-5.94l1.32-.86a5.76,5.76,0,0,1,6.47.08l4.89,3.36A5.84,5.84,0,0,0,381.2,215l9.63-14a5.83,5.83,0,0,0-1.5-8.12l-4.89-3.36a5.77,5.77,0,0,1-2.38-6c.12-.51.23-1,.33-1.55a5.76,5.76,0,0,1,4.63-4.53l5.84-1.07a5.84,5.84,0,0,0,4.68-6.8l-3.08-16.7a5.82,5.82,0,0,0-6.79-4.68l-5.84,1.07a5.75,5.75,0,0,1-5.95-2.58c-.28-.44-.56-.89-.86-1.33a5.77,5.77,0,0,1,.08-6.46l3.37-4.89A5.83,5.83,0,0,0,377,125.87Z"/><circle class="cls-2" cx="334.5" cy="173.16" r="21.53" transform="translate(-30.67 265.51) rotate(-41.56)"/><circle class="cls-7" cx="334.5" cy="173.16" r="31.23" transform="translate(-24.47 287.24) rotate(-45)"/><circle class="cls-7" cx="334.5" cy="173.16" r="44.12" transform="translate(-24.47 287.24) rotate(-45)"/></g><path class="cls-8" d="M262.8,297.48H200.39a2.84,2.84,0,0,1-2.84-2.84h0a2.84,2.84,0,0,1,2.84-2.84H262.8a2.84,2.84,0,0,1,2.84,2.84h0A2.84,2.84,0,0,1,262.8,297.48Z"/><rect class="cls-9" x="203.16" y="297.48" width="56.88" height="92.48"/><rect class="cls-10" x="203.16" y="297.48" width="11.89" height="92.48"/><path class="cls-11" d="M266,237.87s19.76,14.64,24.51,26,0,68.07,0,68.07h0A9.51,9.51,0,0,1,281,322.4v-9.49a45.44,45.44,0,0,0-20.51-38L257.57,273Z"/><path class="cls-11" d="M197.21,237.87s-19.76,14.64-24.52,26,0,68.07,0,68.07h0a9.52,9.52,0,0,0,9.52-9.52v-9.49a45.44,45.44,0,0,1,20.51-38l2.91-1.91Z"/><path class="cls-12" d="M270.9,177.89c-3.1-29.35-12.33-67.38-32.39-89.3a9.39,9.39,0,0,0-13.83,0c-20.06,21.92-29.29,59.95-32.38,89.3a205.61,205.61,0,0,0,11.38,92.95,6.53,6.53,0,0,0,6.11,4.25h43.62a6.52,6.52,0,0,0,6.1-4.25A205.47,205.47,0,0,0,270.9,177.89Z"/><path class="cls-11" d="M262.8,136.07c-5.26-18-13.08-35.24-24.29-47.48-2.46-2.69-11.36-2.69-13.83,0-11.2,12.24-19,29.51-24.29,47.48Z"/><path class="cls-13" d="M270.9,177.89c-3.1-29.35-12.33-67.38-32.39-89.3a9.31,9.31,0,0,0-7.22-3A9.42,9.42,0,0,1,233,87.26c18.56,23.87,24.82,63.18,25.57,93.21.79,32.06-5.6,64.46-19.12,93.35a7.17,7.17,0,0,1-.8,1.27h14.76a6.52,6.52,0,0,0,6.1-4.25A205.47,205.47,0,0,0,270.9,177.89Z"/><polygon class="cls-14" points="251.99 291.75 211.2 291.75 209.16 275.09 254.03 275.09 251.99 291.75"/><g class="cls-15"><path class="cls-16" d="M216.24,291.75h-2.79l-1.12-12.33a1.48,1.48,0,0,1,1.47-1.61h0a1.48,1.48,0,0,1,1.48,1.37Z"/><path class="cls-16" d="M221,291.75h-2.8l-.82-12.36a1.47,1.47,0,0,1,1.47-1.58h0a1.48,1.48,0,0,1,1.48,1.4Z"/><path class="cls-16" d="M225.82,291.75H223l-.53-12.4a1.48,1.48,0,0,1,1.48-1.54h0a1.47,1.47,0,0,1,1.47,1.44Z"/><path class="cls-16" d="M230.6,291.75h-2.79l-.24-12.43a1.48,1.48,0,0,1,1.48-1.51h0a1.48,1.48,0,0,1,1.48,1.47Z"/><path class="cls-16" d="M235.39,291.75h-2.8l.07-12.47a1.47,1.47,0,0,1,1.47-1.47h0a1.48,1.48,0,0,1,1.48,1.51Z"/><path class="cls-16" d="M240.18,291.75h-2.8l.36-12.5a1.48,1.48,0,0,1,1.48-1.44h0a1.48,1.48,0,0,1,1.48,1.54Z"/><path class="cls-16" d="M245,291.75h-2.79l.66-12.54a1.48,1.48,0,0,1,1.48-1.4h0a1.48,1.48,0,0,1,1.48,1.58Z"/><path class="cls-16" d="M249.75,291.75H247l1-12.57a1.47,1.47,0,0,1,1.47-1.37h0a1.49,1.49,0,0,1,1.48,1.61Z"/></g><path class="cls-11" d="M231.6,331.92h0a7,7,0,0,1-7-6.88l-.88-46.1a85.08,85.08,0,0,1,1.45-17.52l4.43-23.55h4.05l4.43,23.55a84.39,84.39,0,0,1,1.45,17.52l-.88,46.1A7,7,0,0,1,231.6,331.92Z"/><circle class="cls-17" cx="231.6" cy="168.87" r="22.35" transform="translate(-51.58 213.23) rotate(-45)"/><path class="cls-11" d="M250.6,157.11a22.3,22.3,0,0,0-4.12-4.91L234.6,166.35Z"/><path class="cls-11" d="M251.29,158.29l-16,9.24,18.2-3.21A22.29,22.29,0,0,0,251.29,158.29Z"/><path class="cls-11" d="M233.55,165.48l11.88-14.16a22.2,22.2,0,0,0-5.55-3.21Z"/><path class="cls-11" d="M232.28,165l6.32-17.36a22.06,22.06,0,0,0-6.32-1.11Z"/><path class="cls-11" d="M228.6,166.35,216.72,152.2a22.63,22.63,0,0,0-4.13,4.91Z"/><path class="cls-11" d="M253.71,172.08a21.59,21.59,0,0,0,0-6.42l-18.2,3.21Z"/><path class="cls-11" d="M234.6,171.39l11.88,14.15a22.3,22.3,0,0,0,4.12-4.91Z"/><path class="cls-11" d="M212.59,180.63a22.63,22.63,0,0,0,4.13,4.91l11.88-14.15Z"/><path class="cls-11" d="M209.48,165.66a22.52,22.52,0,0,0,0,6.42l18.2-3.21Z"/><path class="cls-11" d="M230.92,146.54a22,22,0,0,0-6.32,1.11L230.92,165Z"/><path class="cls-11" d="M232.28,172.73V191.2a22.06,22.06,0,0,0,6.32-1.11Z"/><path class="cls-11" d="M233.55,172.26l6.33,17.37a22.2,22.2,0,0,0,5.55-3.21Z"/><path class="cls-11" d="M235.28,170.21l16,9.24a22.29,22.29,0,0,0,2.19-6Z"/><path class="cls-11" d="M230.92,172.73l-6.32,17.36a22,22,0,0,0,6.32,1.11Z"/><path class="cls-11" d="M227.92,170.21l-18.21,3.21a22,22,0,0,0,2.2,6Z"/><path class="cls-11" d="M227.92,167.53l-16-9.24a22,22,0,0,0-2.2,6Z"/><path class="cls-11" d="M229.64,165.48l-6.32-17.37a22.44,22.44,0,0,0-5.56,3.21Z"/><path class="cls-11" d="M229.64,172.26l-11.88,14.16a22.44,22.44,0,0,0,5.56,3.21Z"/><circle class="cls-18" cx="231.6" cy="168.87" r="15.8"/><path class="cls-19" d="M236.06,153.72a13.62,13.62,0,1,1-20.11,13,16.39,16.39,0,0,0-.16,2.12,15.81,15.81,0,1,0,20.27-15.15Z"/><path class="cls-17" d="M354.81,399.19h0a1.32,1.32,0,0,0,1.26-1.7L312.59,254.1a1.32,1.32,0,0,0-1.26-.94h0a1.32,1.32,0,0,0-1.26,1.7l2.37,7.82H283.71l-2.6-8.58a1.32,1.32,0,0,0-1.26-.94h0a1.32,1.32,0,0,0-1.26,1.7l43.48,143.39a1.32,1.32,0,0,0,1.26.94h0a1.32,1.32,0,0,0,1.26-1.7l-5.22-17.24h28.72l5.46,18A1.32,1.32,0,0,0,354.81,399.19Zm-42.45-42h28.73l2.87,9.48H315.24Zm7.08-71.37H290.72l-2.88-9.49h28.73Zm.63,2.06,2.88,9.49H294.22l-2.87-9.49Zm3.5,11.55,2.88,9.49H297.72l-2.87-9.49ZM327.08,311l2.87,9.48H301.23L298.35,311Zm3.5,11.55,2.87,9.48H304.73l-2.88-9.48Zm3.5,11.55,2.88,9.48H308.23l-2.87-9.48Zm3.5,11.55,2.88,9.48H311.73l-2.87-9.48Zm-24.52-80.86,2.88,9.49H287.22l-2.88-9.49Zm5.68,113.45-2.88-9.49h28.73l2.87,9.49Z"/><path class="cls-20" d="M365.67,291.79l-3.38,5.63,14.94,10.27a3.66,3.66,0,0,0,5.42-1.09h0c1.1-1.93-.1-5.88-2.63-8S365.67,291.79,365.67,291.79Z"/><path class="cls-11" d="M373.69,290.71c4.35-.57,3.63-5.34,3.74-6.09v-.09c.33-3.57,2.55-7.64,6.5-8a11,11,0,0,1,10.58,5.55c2.42,4.44,1,9.11-1.61,13.06a11.74,11.74,0,0,1-5,4Z"/><rect class="cls-21" x="382.25" y="291.89" width="4.56" height="9.55" transform="translate(742.65 624.72) rotate(-175.16)"/><path class="cls-17" d="M385.07,325l8.47-20.78a2.94,2.94,0,0,0-2.45-3.63l-12.16-2.76a2.94,2.94,0,0,0-3.33,2.85l-4.17,22.66Z"/><path class="cls-21" d="M383.71,280.64c-1.4,1.78-3.93,2.53-4.52,4.15l-.13.76v.08l-.39,2.28a5.3,5.3,0,0,0,10.45,1.76l.43-2.57C389.24,284.49,384.47,284.29,383.71,280.64Z"/><path class="cls-22" d="M377.42,324.06l6.1,15-5.83,70.27h-4.47l-4.1-55a105.25,105.25,0,0,1,2.31-31h0Z"/><path class="cls-23" d="M377.42,324.06h0a80,80,0,0,0,5.47,29.05l22,56.26h4.28l-12.78-59A63.91,63.91,0,0,0,385.07,325h0Z"/><polygon class="cls-21" points="376.65 413.04 373.86 413.04 373.86 409.37 377.2 409.37 376.65 413.04"/><polygon class="cls-21" points="409.85 413.04 407.06 413.04 405.21 409.37 408.56 409.37 409.85 413.04"/><path class="cls-20" d="M379.67,309.15a3.84,3.84,0,1,1-3.84-3.83A3.84,3.84,0,0,1,379.67,309.15Z"/><polygon class="cls-21" points="379.28 297.92 379.77 306.17 386.89 298.91 379.28 297.92"/><polygon class="cls-24" points="382.22 318.18 395.54 323.69 396.33 317.45 382.84 314.44 382.22 318.18"/><path class="cls-24" d="M394.56,318.21a3.29,3.29,0,1,0,4.64.23A3.28,3.28,0,0,0,394.56,318.21Z"/><path class="cls-24" d="M393.93,322.31l6-2.72-6.51-16.92a3.66,3.66,0,0,0-5.08-2.18h0c-2,1-3.24,4.91-2.37,8.1S393.93,322.31,393.93,322.31Z"/><polygon class="cls-11" points="368.49 326.75 380.8 326.75 374.61 309.08 362.29 309.08 368.49 326.75"/><path class="cls-21" d="M375.3,315h0a1.55,1.55,0,0,0,1.41,1.79l3.56.27,2,1.11.65-3.13-.82-.56a5.14,5.14,0,0,0-3.18-.9l-2.12.11A1.56,1.56,0,0,0,375.3,315Z"/><polygon class="cls-20" points="349.25 286.58 362.29 297.42 365.67 291.79 350.3 281.85 349.25 286.58"/><path class="cls-21" d="M341.81,278.7l3.58,1.15,1.52.49,0,0a5.79,5.79,0,0,1,3,2.23l.13.17-.72,3.26L347,284.61l-2.4,0a2.38,2.38,0,0,1-2.41-3.16,2.42,2.42,0,0,1,.75-1.12l-1.55-.49a.61.61,0,1,1,.38-1.16Z"/><path class="cls-21" d="M387.85,288.34a1.9,1.9,0,1,0,2.45-1.1A1.89,1.89,0,0,0,387.85,288.34Z"/><path class="cls-11" d="M388.82,290.73l3.3,3.59-4.23,4.8c-5.33-.6-5-6.47-5-6.47,4.38.42,5.62-1.22,5.9-1.92"/><path class="cls-11" d="M373.47,411.55l1.42.63,2.24-.63,1.19,3.87H366.4c0-1.93,4.14-1.93,4.14-1.93Z"/><path class="cls-11" d="M406.67,411.55l1.42.63,2.25-.63,1.18,3.87H399.61c0-1.93,4.13-1.93,4.13-1.93Z"/><polygon class="cls-18" points="119.7 294.65 126.62 312.45 119.51 313.11 115.44 295.2 119.7 294.65"/><path class="cls-18" d="M121.89,310.12a3.73,3.73,0,1,1-2.33,4.73A3.73,3.73,0,0,1,121.89,310.12Z"/><path class="cls-18" d="M122.64,310.86l1.65,6.32c-2.31,1-12.25,7.29-16.62,5.94a5.57,5.57,0,0,1-3.72-3c-1.27-3.2.32-5.57,3.08-6.79C110,312,122.64,310.86,122.64,310.86Z"/><path class="cls-21" d="M114.24,289.15h0a1.77,1.77,0,0,0-.44,2.55l2.47,3.21.54,2.49,3.13-1.83-.14-1.12a5.81,5.81,0,0,0-1.66-3.36l-1.69-1.7A1.77,1.77,0,0,0,114.24,289.15Z"/><polygon class="cls-21" points="109.34 430.82 113.62 430.82 113.99 426.35 109.72 426.35 109.34 430.82"/><polygon class="cls-21" points="78.73 430.82 83 430.82 84.67 426.35 80.4 426.35 78.73 430.82"/><polygon class="cls-21" points="104.02 314.66 96.09 316.19 97.55 306.48 102.22 306.69 104.02 314.66"/><path class="cls-18" d="M96.69,350.58l-10-31.16A3.44,3.44,0,0,1,89,315.21l20.87-2.57a2.94,2.94,0,0,1,3.63,2.46L117.59,349Z"/><polygon class="cls-8" points="96.69 350.58 104.69 361.3 108.06 427.8 116.04 427.8 117.59 349.04 96.69 350.58"/><path class="cls-25" d="M113.74,349.32l-1.91,10.34a5,5,0,0,1-4.91,4.09h0L86.32,427.8H78.53l18.16-77.22Z"/><path class="cls-26" d="M89.73,302.58a7.66,7.66,0,0,0,14.51-3.7c-.07-2.14,1-4.18.82-6.34-.21-2.44-2.5-3.46-4.71-2.82-1.2.35-2.28,1-3.46,1.41-1,.34-2.1.48-3.14.77a5.81,5.81,0,0,0-3,2A7.8,7.8,0,0,0,89,298.07,8,8,0,0,0,89.73,302.58Z"/><path class="cls-21" d="M94.78,301.84a1.46,1.46,0,0,1-2.89.45,1.46,1.46,0,0,1,2.89-.45Z"/><path class="cls-21" d="M100.17,294.57a4.54,4.54,0,0,1,3.11,1.21,4.47,4.47,0,0,1,1.36,2.56h0l.13.86v.12l0,0,.37,2.4c.51,3.32-1.52,6.55-4.65,7.08a5.91,5.91,0,0,1-6.71-5.11l-.46-2.94h0S92.49,294.94,100.17,294.57Z"/><path class="cls-26" d="M98.88,294.69a9.92,9.92,0,0,0-2.08.6,4.71,4.71,0,0,0-1.39.8c-1.33,1.16-.2,3.72.24,5.05.1.32.23.71,0,1a.68.68,0,0,1-1,0,3.37,3.37,0,0,1-.59-.92,1.08,1.08,0,0,0-.83-.59l-.21-6c0-.05,4.18-.12,4.46-.12A5.09,5.09,0,0,1,98.88,294.69Z"/><path class="cls-20" d="M104.52,299c.5,1.38.32,2.71-.4,3s-1.73-.64-2.23-2-.32-2.71.4-3S104,297.67,104.52,299Z"/><polygon class="cls-17" points="102.29 297.03 129.52 284.25 133.17 294.21 104.11 302.02 102.29 297.03"/><path class="cls-24" d="M134,288.27c1,2.75.65,5.41-.8,6s-3.45-1.28-4.45-4-.65-5.41.8-5.94S133,285.52,134,288.27Z"/><path class="cls-20" d="M133.17,288.56c.69,1.91.45,3.76-.56,4.13s-2.39-.88-3.09-2.79-.45-3.76.56-4.13S132.47,286.66,133.17,288.56Z"/><path class="cls-2" d="M132.25,288.9c-.57-1.56-1.82-2.55-2.88-2.36a5.58,5.58,0,0,0,2.2,6C132.51,292,132.82,290.46,132.25,288.9Z"/><path class="cls-21" d="M108.62,296.86h0a1.76,1.76,0,0,1,1.33,2.22L108.8,303l.39,2.52-3.57-.57-.27-1.1a5.76,5.76,0,0,1,.33-3.73l1-2.2A1.73,1.73,0,0,1,108.62,296.86Z"/><polygon class="cls-27" points="109.19 305.47 109.97 324.55 103.04 322.88 104.97 304.62 109.19 305.47"/><path class="cls-27" d="M104.56,321.3a3.73,3.73,0,1,1-1.63,5A3.73,3.73,0,0,1,104.56,321.3Z"/><path class="cls-27" d="M108.06,321.16l-1.8,7.22c-2.85-.28-16.23.59-19.86-3.15a6.36,6.36,0,0,1-2.09-5c.48-3.9,3.37-5.4,6.79-5.11C94.84,315.41,108.06,321.16,108.06,321.16Z"/><path class="cls-11" d="M113.91,428.79l-2.35,1-2.19-1-2,6.41H125.6c0-3.2-6.84-3.2-6.84-3.2Z"/><path class="cls-11" d="M83.67,428.79l-2.35,1-2.19-1-2,6.41H95.36c0-3.2-6.84-3.2-6.84-3.2Z"/><path class="cls-21" d="M296.53,210.36a2.76,2.76,0,1,0,2.83,2.67A2.75,2.75,0,0,0,296.53,210.36Z"/><path class="cls-21" d="M295.29,210.66l2,5.15,18.28-6.27a3.55,3.55,0,0,0,2.52-4.73h0c-.77-2-4.7-3.55-6.58-2.5Z"/><path class="cls-8" d="M297.07,207.86l-5-3.16a2,2,0,0,0-2.81.64l-1.11,1.76a2,2,0,0,1-2.06.92l-.54-.1a2,2,0,0,1-1.65-1.55l-.46-2a2,2,0,0,0-2.44-1.53l-5.78,1.32a2,2,0,0,0-1.54,2.44l.46,2a2,2,0,0,1-.81,2.11l-.45.32a2,2,0,0,1-2.26.07l-1.75-1.1a2,2,0,0,0-2.81.64l-3.16,5a2,2,0,0,0,.65,2.81l1.75,1.1a2,2,0,0,1,.92,2.06l-.09.55a2,2,0,0,1-1.55,1.65l-2,.46a2,2,0,0,0-1.54,2.44l1.32,5.78a2,2,0,0,0,2.44,1.53l2-.46a2,2,0,0,1,2.11.81l.32.45a2,2,0,0,1,.06,2.26l-1.1,1.76a2,2,0,0,0,.64,2.81l5,3.15a2,2,0,0,0,2.81-.64l1.1-1.76a2,2,0,0,1,2.07-.92l.54.1a2,2,0,0,1,1.65,1.55l.46,2a2,2,0,0,0,2.44,1.53l5.78-1.32a2,2,0,0,0,1.54-2.44l-.47-2a2,2,0,0,1,.82-2.11l.45-.32a2,2,0,0,1,2.26-.07l1.75,1.1a2,2,0,0,0,2.81-.64l3.15-5a2,2,0,0,0-.64-2.81l-1.75-1.1a2,2,0,0,1-.92-2.06l.09-.55a2,2,0,0,1,1.55-1.65l2-.46a2,2,0,0,0,1.53-2.44L303.56,217a2,2,0,0,0-2.44-1.53l-2,.46a2,2,0,0,1-2.11-.81l-.32-.45a2,2,0,0,1-.06-2.26l1.1-1.76A2,2,0,0,0,297.07,207.86Z"/><path class="cls-28" d="M329.71,188.55a8.6,8.6,0,1,1-7.72-9.39A8.59,8.59,0,0,1,329.71,188.55Z"/><polygon class="cls-21" points="319.39 203.62 327.51 205.08 324.49 195.04 318.31 195.79 319.39 203.62"/><path class="cls-21" d="M324,190.12a1.4,1.4,0,1,0,1.29-1.51A1.41,1.41,0,0,0,324,190.12Z"/><path class="cls-21" d="M317.4,184.52a4.43,4.43,0,0,0-2.64,1.81,4.25,4.25,0,0,0-.7,2.69h0l.06.84,0,.11,0,0,.19,2.32a5.83,5.83,0,0,0,5.89,5.59,5.69,5.69,0,0,0,5.15-6.25l-.23-2.85h0S324.65,183.18,317.4,184.52Z"/><path class="cls-28" d="M318.54,184.3a10.68,10.68,0,0,1,2.19,0,4.79,4.79,0,0,1,1.57.45c1.58.81,1,3.54.91,4.92,0,.34-.07.74.19,1a.71.71,0,0,0,1-.24,3.26,3.26,0,0,0,.38-1,1.16,1.16,0,0,1,.65-.83s-1.65-5.71-1.65-5.72-3.66.79-3.94.85A4.49,4.49,0,0,0,318.54,184.3Z"/><polygon class="cls-29" points="304.63 281.31 302.21 281.31 300.37 273.9 303.9 273.9 304.63 281.31"/><path class="cls-11" d="M301.62,280.52l1.93.85,1.8-.85,1.61,5.26H292c0-2.63,5.62-2.63,5.62-2.63Z"/><path class="cls-8" d="M294.82,249.11l11.3,2.35,14.79-3.27-3.39-11.05-16.62,4.68A7.41,7.41,0,0,0,294.82,249.11Z"/><polygon class="cls-8" points="300.83 279.97 306.47 280.67 306.12 251.46 294.82 249.11 300.83 279.97"/><path class="cls-17" d="M334.57,238.4l-1.68-37.33-19-.09-1.43,5.1c-1,9.27,6.59,26.56,5,31.06Z"/><path class="cls-20" d="M300.39,207.68l3.25,7,12-4.8a4.55,4.55,0,0,0,2.76-6.48h0a4.56,4.56,0,0,0-6-2Z"/><path class="cls-21" d="M321,219.76a3.73,3.73,0,1,0,5.28,0A3.73,3.73,0,0,0,321,219.76Z"/><path class="cls-21" d="M321,219.76l5.87,4.51,9.7-16.56a3.54,3.54,0,0,0-1.42-5.17h0c-1.94-.93-5.86.64-6.5,2.7Z"/><polygon class="cls-21" points="306.38 226.26 323.63 226.13 320.99 219.75 305.59 222.73 306.38 226.26"/><path class="cls-24" d="M322.7,215.64l7.76,3.7,6.59-11.09a4.56,4.56,0,0,0-1.76-6.83h0a4.56,4.56,0,0,0-6,2.08Z"/><path class="cls-21" d="M317.78,201l.11.51a4.79,4.79,0,0,0,4.23,3.83h0a4.79,4.79,0,0,0,5.17-3.85l.09-.42Z"/><polygon class="cls-21" points="342.39 315.87 338.11 315.87 336.44 311.4 340.72 311.4 342.39 315.87"/><path class="cls-25" d="M317.52,237.14l1.91,10.34a5,5,0,0,0,4.91,4.09h0l10.45,61.28h7.8l-8-74.45Z"/><path class="cls-11" d="M337.44,313.85l2.36,1,2.18-1,2,6.4H325.76c0-3.2,6.83-3.2,6.83-3.2Z"/><path class="cls-21" d="M297.75,226.23h0a1.76,1.76,0,0,0,2.3,1.18l3.8-1.38,2.53.23-.79-3.53-1.12-.2a5.79,5.79,0,0,0-3.7.56l-2.13,1.1A1.76,1.76,0,0,0,297.75,226.23Z"/><circle class="cls-2" cx="282.94" cy="224.98" r="4.91"/><circle class="cls-30" cx="282.94" cy="224.98" r="10.9"/><circle class="cls-30" cx="282.94" cy="224.98" r="15.4" transform="translate(-1.37 448.22) rotate(-76.63)"/><path class="cls-31" d="M128.44,137.18l-1.12.8"/><path class="cls-32" d="M124.33,140.2c-16,12.25-32.07,30.6-39.52,48.75-3.82,9.32-4.39,20.57,1,29.06,11,17.25,37.1,19.1,52.59,8.27,9.3-6.5,17.46-17,15.56-28.23-.56-3.32-2.16-6.66-5.06-8.37-5-3-11.5,0-15.54,4.14-9.42,9.66-11,25.75-4.36,37.48,6.13,10.78,18.53,17.4,30.93,17.38"/><path class="cls-31" d="M161.84,248.63c.46,0,.92-.06,1.38-.11"/><path class="cls-33" d="M397.85,250.25a46.75,46.75,0,0,0,19.07,29.28c10.31,7.14,24.56,11.3,28.51,23.2,2.89,8.68-1.48,18.24-9.28,22.5-4.88,2.67-10.42,4-15.21,6.83-9.6,5.66-17.94,20.81-12.45,31.79"/><polygon class="cls-34" points="403.21 235.46 371 232.01 387.18 253.6 403.21 235.46"/><polygon class="cls-35" points="371 232.01 396.47 243.09 398.22 252.76 394.05 245.82 371 232.01"/><polygon class="cls-36" points="398.22 252.76 391.1 249.16 394.05 245.82 398.22 252.76"/><polygon class="cls-34" points="116.92 131.31 149.13 127.85 132.95 149.44 116.92 131.31"/><polygon class="cls-35" points="149.13 127.85 123.66 138.94 121.91 148.61 126.08 141.67 149.13 127.85"/><polygon class="cls-36" points="121.91 148.61 129.03 145.01 126.08 141.67 121.91 148.61"/><path class="cls-37" d="M52.23,330.75a3.63,3.63,0,0,1,2.26.81l.18.14c2.54,1.94,3.85,5.51,3.88,10.6a49.12,49.12,0,0,1-1.47,11.95,21.29,21.29,0,0,0-1.19-4.78,58.5,58.5,0,0,0-3-6.4c-.84-1.6-1.7-3.25-2.42-4.93a8.73,8.73,0,0,1-.92-4.5A3.26,3.26,0,0,1,52.23,330.75Z"/><path class="cls-37" d="M34.34,345.38a3.62,3.62,0,0,1,2.39-.23l.22.05c3.13.67,5.83,3.33,8,7.92a48.41,48.41,0,0,1,3.79,11.43,21.82,21.82,0,0,0-3.12-3.81,56.31,56.31,0,0,0-5.46-4.49c-1.44-1.09-2.93-2.22-4.29-3.43a8.58,8.58,0,0,1-2.76-3.67A3.28,3.28,0,0,1,34.34,345.38Z"/><path class="cls-37" d="M32,360.55a2.48,2.48,0,0,1,1.08-1.23l.13-.08c1.87-1.13,4.47-1.08,7.71.17a33.28,33.28,0,0,1,7.24,3.91,14.65,14.65,0,0,0-3.33-.43,38.38,38.38,0,0,0-4.82.32c-1.23.13-2.5.27-3.74.31a6,6,0,0,1-3.1-.53A2.25,2.25,0,0,1,32,360.55Z"/><path class="cls-38" d="M50,380.43s12.75-16.8,3.21-46.67"/><path class="cls-38" d="M50,380.43s4-18.26-13-31.29"/><path class="cls-38" d="M48.22,363.63s-3.11-2.77-14-2.85"/><path class="cls-37" d="M73.94,352.68a6.25,6.25,0,0,1-2.2,2.42c-1,.76-2.18,1.46-3.27,2.13a42.37,42.37,0,0,0-4.17,2.82,15.32,15.32,0,0,0-2.47,2.5,35.05,35.05,0,0,1,3.45-7.85c1.87-3.11,4-4.81,6.23-5.08l.16,0a2.56,2.56,0,0,1,1.68.33A2.31,2.31,0,0,1,73.94,352.68Z"/><path class="cls-37" d="M78.33,368.13a6.16,6.16,0,0,1-3,1.25c-1.28.24-2.6.39-3.87.53a40.79,40.79,0,0,0-5,.76,15.22,15.22,0,0,0-3.29,1.2,34.66,34.66,0,0,1,6.47-5.62c3-2,5.64-2.65,7.8-1.92l.15.05a2.62,2.62,0,0,1,1.38,1A2.32,2.32,0,0,1,78.33,368.13Z"/><path class="cls-37" d="M73.28,376.59a4.22,4.22,0,0,1-2.08-.8c-.75-.48-1.48-1-2.18-1.55a26.75,26.75,0,0,0-2.83-1.95,10.16,10.16,0,0,0-2.2-1,23.46,23.46,0,0,1,5.85.24c2.44.42,4,1.33,4.78,2.7a.31.31,0,0,1,0,.1,1.68,1.68,0,0,1,.21,1.15A1.58,1.58,0,0,1,73.28,376.59Z"/><path class="cls-38" d="M56.61,381.13s-1.69-14.92,15-29.73"/><path class="cls-38" d="M56.61,381.13A23.1,23.1,0,0,1,75.94,366.7"/><path class="cls-38" d="M63.84,371.51s2.91-.56,9.58,3.33"/><path class="cls-8" d="M61.52,399.57H50.22a2.39,2.39,0,0,1-2.29-1.74l-5.67-20.31H69.49l-5.68,20.31A2.39,2.39,0,0,1,61.52,399.57Z"/><path class="cls-11" d="M429.52,407.12c1.84-2.13,4.18-4,4.92-6.66.54-2,.12-4-.09-6.08s-.14-4.27,1.17-5.83a7.8,7.8,0,0,1,4.43-2.2,16.09,16.09,0,0,0,4.81-1.41c2.37-1.35,1.9-3.66,3.17-5.69,1.43-2.27,4.74-5.17,7.59-3.66,3,1.6,2.53,6.45.53,8.59-1.33,1.42-3,2.79-3.23,4.72-.29,2.92,3.05,5.54,2.13,8.32-.68,2-3.27,2.76-4.55,4.5s-1,4.15-.26,6.15,1.91,3.87,2.38,5.95c1,4.28-2.41,7.23-6.23,8.19-3.51.87-11.09.46-11.09.46a14.47,14.47,0,0,1-7.18-5.92,7.53,7.53,0,0,1-.41-6.53A10.8,10.8,0,0,1,429.52,407.12Z"/><path class="cls-39" d="M452.15,380.2s-12.93,20-14.34,42.16"/><path class="cls-37" d="M439.44,408.63c1.69,3.69,1.05,12-2.64,13.72s-9-3.9-10.73-7.59-7.24-23.71-3.54-25.4S437.75,404.93,439.44,408.63Z"/><line class="cls-40" x1="423.57" y1="391.79" x2="436.94" y2="421.91"/><path class="cls-8" d="M443.12,437.06h-7.3a1.54,1.54,0,0,1-1.48-1.12l-3.66-13.11h17.58l-3.66,13.11A1.54,1.54,0,0,1,443.12,437.06Z"/></g></g></svg>