<svg xmlns="http://www.w3.org/2000/svg" viewBox="0 0 85.35 85.35"><defs><style>.cls-1{fill:none;}.cls-2{fill:#1f739c;}.cls-3{fill:#27a9e0;}.cls-4{fill:#282828;}</style></defs><title>Asset 59</title><g id="Layer_2" data-name="Layer 2"><g id="Layer_1-2" data-name="Layer 1"><rect class="cls-1" width="85.35" height="85.35"/><path class="cls-2" d="M26.78,74.89C21.25,77,16,76.4,12.37,71.37,9.56,67.5,8.44,63.1,10,58.47c1.73-5.15,5.71-9.42,9.18-13.48a36.07,36.07,0,0,1,11.91-9.61c0,.13,0,.25,0,.38-.49.2-1,.41-1.45.64a.86.86,0,1,0,.87,1.49c.21-.11.42-.19.63-.28,0,0,0,.08,0,.12-.36.21-.72.42-1.08.65-.93.59-.07,2.08.87,1.48l.55-.33c0,.06,0,.12.05.18l-.65.46a.89.89,0,0,0-.3,1.18.86.86,0,0,0,1.17.31l.36-.26.06.15,0,0C26.31,46.11,17.58,53,16.88,61c-.23,2.61.57,5.89,3.27,6.64a11.9,11.9,0,0,0,8.41-1.2c6-3.2,9.7-10.18,14-15.22C45.26,48,49.19,39.36,41.68,39l-.06-.15h.09a.86.86,0,0,0,0-1.72h-.3c0-.05,0-.1,0-.15.38,0,.76,0,1.15.1a.87.87,0,0,0,.86-.86.89.89,0,0,0-.86-.86l-.76-.07c0-.12.08-.24.13-.36l.68.08a.86.86,0,0,0,.06-1.71c.05-.1.1-.2.16-.3,5-1.23,8.36,2.21,9.6,6.79s-.29,9.13-2.58,13C44.61,61.68,36.69,71.09,26.78,74.89Z"/><path class="cls-3" d="M53.47,49.19c0-.09.06-.19.1-.29a.91.91,0,0,0,.41-.1l1.39-.73c1-.52.11-2-.87-1.49l-.32.17c0-.16.07-.32.1-.49.55-.22,1.1-.45,1.65-.7a.86.86,0,0,0-.87-1.49l-.52.22c0-.13,0-.27,0-.41l1-.39a.88.88,0,0,0,.6-1.05.86.86,0,0,0-1.06-.6l-.61.22c0-.18,0-.37-.05-.56,3.7-2,6.1-4.8,8.77-8,2.09-2.52,4.16-4.88,5.22-8,2-5.92-1.71-11.93-8.37-10.71-7.87,1.44-13.58,9.51-17.83,15.63-3,4.38-4.47,11,2.25,12.5a2,2,0,0,1,0,.35A3.09,3.09,0,0,0,43.35,43a.86.86,0,0,0,0,1.72,1.86,1.86,0,0,1,.77.12c0,.15-.11.3-.17.45l-1-.27a.86.86,0,0,0-.46,1.66c.22.07.45.12.67.18-.09.17-.19.34-.29.51-.35-.13-.7-.25-1.06-.35a.86.86,0,0,0-.45,1.66c.19.05.38.13.57.19l-.27.39a15.41,15.41,0,0,1-8.29-9.9c-1.21-4.21.17-7.14,2.45-10.65,5.26-8.08,13.84-18.21,24-19.61,5.89-.82,12.35,2.12,15.08,7.56,2.32,4.61.56,9.92-1.74,14.13C68.9,38.6,62.62,47.29,53.47,49.19Z"/><path class="cls-4" d="M75.14,13.87c-6-8.13-16.78-8-24.67-2.86A52.8,52.8,0,0,0,39.31,21.27c-2.82,3.32-6.15,7.22-7.64,11.36-.08.23-.16.47-.22.7a34.19,34.19,0,0,0-11.62,8.34C16.17,45.6,12.21,50,9.72,54.82,6,61.91,7.42,70.5,13.91,75.59c7.4,5.82,17.72-.43,23.68-5.4A63.7,63.7,0,0,0,48.81,57.5a43.85,43.85,0,0,0,3.89-6.45c8.71-1.39,14.86-8.1,19.47-15.24C76.34,29.35,80.4,20.94,75.14,13.87ZM44,31c.73-1.11,1.49-2.11,2.08-2.86,3.56-4.57,7.47-10,13.39-11.55,4.16-1.1,8.19,1.29,7.87,5.84a13.92,13.92,0,0,1-3,7c-2.85,3.87-6.08,7.82-10.26,10.27C53,34.74,49.37,30.58,44,31ZM40.67,50.7c-1.44,1.93-2.84,3.58-3.38,4.29-2.71,3.61-5.48,7.82-9.59,9.95-2.16,1.13-6.49,2.34-8.29.12-2.47-3.05.28-7.93,2.1-10.49A56,56,0,0,1,32.92,43.12,18.71,18.71,0,0,0,40.67,50.7ZM26.78,74.89C21.25,77,16,76.4,12.37,71.37,9.56,67.5,8.44,63.1,10,58.47c1.73-5.15,5.71-9.42,9.18-13.48a36.07,36.07,0,0,1,11.91-9.61c0,.13,0,.25,0,.38-.49.2-1,.41-1.45.64a.86.86,0,1,0,.87,1.49c.21-.11.42-.19.63-.28,0,0,0,.08,0,.12-.36.21-.72.42-1.08.65-.93.59-.07,2.08.87,1.48l.55-.33c0,.06,0,.12.05.18l-.65.46a.89.89,0,0,0-.3,1.18.86.86,0,0,0,1.17.31l.36-.26.06.15,0,0C26.31,46.11,17.58,53,16.88,61c-.23,2.61.57,5.89,3.27,6.64a11.9,11.9,0,0,0,8.41-1.2c6-3.2,9.7-10.18,14-15.22C45.26,48,49.19,39.36,41.68,39l-.06-.15h.09a.86.86,0,0,0,0-1.72h-.3c0-.05,0-.1,0-.15.38,0,.76,0,1.15.1a.87.87,0,0,0,.86-.86.89.89,0,0,0-.86-.86l-.76-.07c0-.12.08-.24.13-.36l.68.08a.86.86,0,0,0,.06-1.71c.05-.1.1-.2.16-.3,5-1.23,8.36,2.21,9.6,6.79s-.29,9.13-2.58,13C44.61,61.68,36.69,71.09,26.78,74.89Zm26.69-25.7c0-.09.06-.19.1-.29a.91.91,0,0,0,.41-.1l1.39-.73c1-.52.11-2-.87-1.49l-.32.17c0-.16.07-.32.1-.49.55-.22,1.1-.45,1.65-.7a.86.86,0,0,0-.87-1.49l-.52.22c0-.13,0-.27,0-.41l1-.39a.88.88,0,0,0,.6-1.05.86.86,0,0,0-1.06-.6l-.61.22c0-.18,0-.37-.05-.56,3.7-2,6.1-4.8,8.77-8,2.09-2.52,4.16-4.88,5.22-8,2-5.92-1.71-11.93-8.37-10.71-7.87,1.44-13.58,9.51-17.83,15.63-3,4.38-4.47,11,2.25,12.5a2,2,0,0,1,0,.35A3.09,3.09,0,0,0,43.35,43a.86.86,0,0,0,0,1.72,1.86,1.86,0,0,1,.77.12c0,.15-.11.3-.17.45l-1-.27a.86.86,0,0,0-.46,1.66c.22.07.45.12.67.18-.09.17-.19.34-.29.51-.35-.13-.7-.25-1.06-.35a.86.86,0,0,0-.45,1.66c.19.05.38.13.57.19l-.27.39a15.41,15.41,0,0,1-8.29-9.9c-1.21-4.21.17-7.14,2.45-10.65,5.26-8.08,13.84-18.21,24-19.61,5.89-.82,12.35,2.12,15.08,7.56,2.32,4.61.56,9.92-1.74,14.13C68.9,38.6,62.62,47.29,53.47,49.19Z"/><path class="cls-4" d="M56.65,10.65a31.07,31.07,0,0,0-8,4.84c-.85.72.38,1.93,1.22,1.22a29.35,29.35,0,0,1,7.67-4.57C58.54,11.71,57.66,10.23,56.65,10.65Z"/><path class="cls-4" d="M60.16,9.91a.86.86,0,0,0,0,1.72A.86.86,0,0,0,60.16,9.91Z"/><path class="cls-4" d="M27.26,71.7a15.22,15.22,0,0,1-8.91,1.39c-1.08-.16-1.55,1.5-.46,1.66a17.31,17.31,0,0,0,10.24-1.56C29.12,72.71,28.25,71.22,27.26,71.7Z"/><path class="cls-4" d="M30.49,70.12a.86.86,0,0,0,0,1.72A.86.86,0,0,0,30.49,70.12Z"/></g></g></svg>