<svg xmlns="http://www.w3.org/2000/svg" viewBox="0 0 85.35 85.35"><defs><style>.cls-1{fill:#1f739c;}.cls-2{fill:#27a9e0;}.cls-3,.cls-5{fill:none;}.cls-3{stroke:#282828;stroke-miterlimit:10;stroke-width:3px;}.cls-4{fill:#282828;}</style></defs><title>Asset 71</title><g id="Layer_2" data-name="Layer 2"><g id="Layer_1-2" data-name="Layer 1"><path class="cls-1" d="M81.17,2.42h-77a1,1,0,0,0-1,1v50a1,1,0,0,1,1-1h77a1,1,0,0,1,1,1v-50A1,1,0,0,0,81.17,2.42Zm-64.5,32.5v-15a1,1,0,0,1,1-1h12a1,1,0,0,1,1,1v15a1,1,0,0,1-1,1h-12A1,1,0,0,1,16.67,34.92Zm19,0v-15a1,1,0,0,1,1-1h12a1,1,0,0,1,1,1v15a1,1,0,0,1-1,1h-12A1,1,0,0,1,35.67,34.92Zm33,0a1,1,0,0,1-1,1h-12a1,1,0,0,1-1-1v-15a1,1,0,0,1,1-1h12a1,1,0,0,1,1,1Z"/><path class="cls-2" d="M74.17,8.92h-63a1,1,0,0,0-1,1v41a1,1,0,0,0,1,1h63a1,1,0,0,0,1-1v-41A1,1,0,0,0,74.17,8.92Zm-43.5,26a1,1,0,0,1-1,1h-12a1,1,0,0,1-1-1v-15a1,1,0,0,1,1-1h12a1,1,0,0,1,1,1Zm19,0a1,1,0,0,1-1,1h-12a1,1,0,0,1-1-1v-15a1,1,0,0,1,1-1h12a1,1,0,0,1,1,1Zm19,0a1,1,0,0,1-1,1h-12a1,1,0,0,1-1-1v-15a1,1,0,0,1,1-1h12a1,1,0,0,1,1,1Z"/><rect class="cls-3" x="3.17" y="2.42" width="79" height="63" rx="1" ry="1"/><rect class="cls-3" x="3.17" y="52.42" width="79" height="13" rx="1" ry="1"/><rect class="cls-3" x="10.17" y="8.92" width="65" height="43" rx="1" ry="1"/><rect class="cls-3" x="54.67" y="18.92" width="14" height="17" rx="1" ry="1"/><rect class="cls-3" x="35.67" y="18.92" width="14" height="17" rx="1" ry="1"/><rect class="cls-3" x="16.67" y="18.92" width="14" height="17" rx="1" ry="1"/><rect class="cls-4" x="54.17" y="39.92" width="15" height="4" rx="2" ry="2"/><rect class="cls-4" x="35.17" y="39.92" width="15" height="4" rx="2" ry="2"/><rect class="cls-4" x="34.67" y="56.92" width="10" height="4" rx="2" ry="2"/><rect class="cls-4" x="46.67" y="56.92" width="4" height="4" rx="2" ry="2"/><rect class="cls-4" x="16.17" y="39.92" width="15" height="4" rx="2" ry="2"/><path class="cls-3" d="M30.17,74.42h25a7.5,7.5,0,0,1,7.5,7.5v0a1,1,0,0,1-1,1h-38a1,1,0,0,1-1-1v0A7.5,7.5,0,0,1,30.17,74.42Z"/><path class="cls-3" d="M52,74.42c-3.37-1-2.62-9-2.62-9H36s.75,8-2.63,9Z"/><rect class="cls-5" width="85.35" height="85.35"/></g></g></svg>