<svg xmlns="http://www.w3.org/2000/svg" viewBox="0 0 85.35 85.35"><defs><style>.cls-1{fill:#27a9e0;}.cls-2{fill:#1f739c;}.cls-3,.cls-5{fill:none;}.cls-3{stroke:#282828;stroke-miterlimit:10;stroke-width:3px;}.cls-4{fill:#282828;}</style></defs><title>Asset 75</title><g id="Layer_2" data-name="Layer 2"><g id="Layer_1-2" data-name="Layer 1"><rect class="cls-1" x="3.17" y="3.17" width="79" height="13" rx="1" ry="1"/><rect class="cls-2" x="43.17" y="45.67" width="28" height="27" rx="1" ry="1"/><rect class="cls-2" x="14.17" y="45.67" width="20" height="27" rx="1" ry="1"/><rect class="cls-2" x="14.17" y="25.82" width="57" height="10.7" rx="1" ry="1"/><rect class="cls-3" x="3.17" y="3.17" width="79" height="79" rx="1" ry="1"/><rect class="cls-3" x="3.17" y="3.17" width="79" height="13" rx="1" ry="1"/><rect class="cls-3" x="14.17" y="25.82" width="57" height="10.7" rx="1" ry="1"/><rect class="cls-3" x="43.17" y="45.67" width="28" height="27" rx="1" ry="1"/><rect class="cls-3" x="14.17" y="45.67" width="20" height="27" rx="1" ry="1"/><rect class="cls-4" x="67.17" y="8.17" width="10" height="3" rx="1.5" ry="1.5"/><rect class="cls-4" x="54.67" y="8.17" width="10" height="3" rx="1.5" ry="1.5"/><circle class="cls-4" cx="50.17" cy="9.67" r="1.5"/><rect class="cls-5" width="85.35" height="85.35"/></g></g></svg>