<svg xmlns="http://www.w3.org/2000/svg" viewBox="0 0 85.35 85.35"><defs><style>.cls-1{fill:none;}.cls-2{fill:#1f739c;}.cls-3{fill:#27a9e0;}.cls-4{fill:#282828;}</style></defs><title>Asset 60</title><g id="Layer_2" data-name="Layer 2"><g id="Layer_1-2" data-name="Layer 1"><rect class="cls-1" width="85.35" height="85.35"/><polygon class="cls-2" points="54.11 68.58 54.81 71.23 54.28 75 53.31 77.38 40.47 78.33 32.56 77.38 32.56 74.14 30.95 72.47 32.02 70.47 31.45 68.83 33.21 67.5 54.11 68.58"/><path class="cls-3" d="M52.12,68.07a3.57,3.57,0,0,0,2.78-3.34c0-1.87.87-4.59,4.3-7.57,6.36-5.5,5.36-21.46,5.36-21.46l-4.8-10.78L53,20.33l-7.71-2.5-7.39,1.32-7.7,2.75-6,4.85-3.26,9-1.37,5.4V45l2.16,4.69L24.19,54l6,6.83,1.63,5.33,2.73,1.4,5.67,1.27h8.66Z"/><path class="cls-4" d="M29.77,20.9c-8.42,5.27-13.46,16.92-9.92,26.49a38.8,38.8,0,0,0,4.51,8.84,45,45,0,0,0,3.27,3.9,12.15,12.15,0,0,1,2.82,5.71,5.29,5.29,0,0,0,1,2.09,2.47,2.47,0,0,0-.41,3c-1.49,1.93-.83,3.11.77,3.83-2.46,3.68,2.71,4.45,7.42,4.48a6.92,6.92,0,0,0,.49,2.13c.47,1,1.74,1,2.68,1a7.45,7.45,0,0,0,3.47-.67c.88-.53,1.08-1.74,1.16-2.76,2.71.07,6.82.27,8.18-1.45a1.91,1.91,0,0,0-.32-2.78c1.3-.71,1.81-1.81.75-3.53.59-.92.24-2.07-.72-3.06a4.08,4.08,0,0,0,.51-.8c.61-1.29.25-2.69.57-4.05.48-2,1.83-3.09,2.94-4.73,1.63-2.43,3.9-4.78,5.17-7.4,4.2-8.56,2.47-20.49-4.2-27.27C51.77,15.63,39.47,14.82,29.77,20.9ZM40.93,38.11a2.63,2.63,0,0,1,2.32-2.41,2.64,2.64,0,0,1,1,2.86A4.67,4.67,0,0,1,42.72,42,5,5,0,0,1,40.93,38.11Zm1.65,6.14a12.88,12.88,0,0,0,4,2.25c-1.91,6.56-1.46,14.51-1.08,21-.82,0-1.6-.06-2.25,0-1,0-2.13,0-3.23,0-.07-2.82.2-13.68-1.53-21.21A15.37,15.37,0,0,0,42.58,44.25Zm.69,25.49c2.76,0,5.56-.16,8.31-.39a9.21,9.21,0,0,0,1.82-.27c1.69,1.7-3.23,2.06-4.42,2.11-1.87.07-3.74,0-5.61,0-1.72-.06-3.45-.11-5.17-.21-1.16-.08-7.27-.81-5.22-2.12l.7.15A56,56,0,0,0,43.27,69.74Zm9.72,4L51,74c-.85.07-1.72.1-2.58.12-1.92,0-3.84,0-5.76,0-1.55,0-3.1,0-4.65-.12-.44,0-6.27-.2-5.58-1.93,2.48,1.18,7,.69,9.19.78,3.66.13,8.43.83,12-.36Zm-8.41,6.6a7.51,7.51,0,0,1-2.21.3,2.2,2.2,0,0,1-1-.07c-.25-.12-.06,0-.22-.24a3.19,3.19,0,0,1-.27-1.15c2-.05,3.64-.19,4.36-.24C45.22,79.53,45.07,80.15,44.58,80.34ZM53,75.42a2.32,2.32,0,0,1-2.64,1.51l-2.65.16c-1.51.08-3,.17-4.52.24-1.18,0-11.49.4-9.78-2a.75.75,0,0,0,.07-.12,46.52,46.52,0,0,0,9.14.56c1.39,0,6.76.38,10.32-.43ZM63.39,45a16.32,16.32,0,0,1-3.27,7.61c-1.61,2.11-3.25,4.27-4.69,6.49a11.33,11.33,0,0,0-1.67,3.53c-.44,1.79.26,3.46-2.18,4.4a12.21,12.21,0,0,1-4.33.49c-.39-6.56-.74-14.22,1.09-20.71,3.3.28,8.13-1.18,7.28-5.07-1.21-5.58-6.4-1.63-7.85,1.52-.22.48-.42,1-.61,1.47A11.25,11.25,0,0,1,45.33,44,11.06,11.06,0,0,1,44,43.13c2.47-2.24,3.46-5.13,1-8.05-2-2.37-5-.76-5.69,2.2-.46,2.09.54,4.16,2.1,5.84a11.66,11.66,0,0,1-3.28,1.47c-1.29-4.43-3.46-7.18-7.09-5.35-2.11,1.07-1.85,4-.48,5.6,1.58,1.83,4,2.15,6.38,1.74A60.2,60.2,0,0,1,37.7,56c.21,3.77.41,7.55.61,11.32a26.4,26.4,0,0,1-3.16-.46c-1.61-.36-1.94-.32-2.6-2-.43-1.14-.37-2.37-.95-3.5-1.4-2.7-4.25-4.64-5.93-7.22a29.66,29.66,0,0,1-4.39-9.58c-1.12-5.26.57-10.85,3.43-15.2,4.16-6.34,10.56-9.51,18-10.09A19.72,19.72,0,0,1,60.3,28,22.36,22.36,0,0,1,63.39,45Zm-14.51.14.09-.29a9,9,0,0,1,2-3.37q4.53-1.57,1.71,2.86A4.54,4.54,0,0,1,48.88,45.17ZM36.45,44.9a6.91,6.91,0,0,1-1.43,0c-1.17-.09-5-1.34-3.79-3.52,1.7-2.94,4.57,1.57,5,2.88C36.34,44.49,36.39,44.7,36.45,44.9Z"/><path class="cls-4" d="M74.53,22a41.28,41.28,0,0,0-7.23,3.75c-1.18.85,0,2.84,1.16,2A41.28,41.28,0,0,1,75.69,24C77,23.38,75.86,21.4,74.53,22Z"/><path class="cls-4" d="M57.9,16.65A54.21,54.21,0,0,0,62.24,9.7c.72-1.29-1.26-2.45-2-1.16a49.43,49.43,0,0,1-4,6.48C55.38,16.18,57,17.81,57.9,16.65Z"/><path class="cls-4" d="M43.38,11.84q.27-3.87.25-7.75a1.15,1.15,0,0,0-2.3,0c0,2.59-.07,5.17-.25,7.75C41,13.31,43.28,13.3,43.38,11.84Z"/><path class="cls-4" d="M27.23,16.62c.82,1.22,2.81.07,2-1.16-1.54-2.31-3.3-4.6-4.29-7.22-.52-1.37-2.74-.78-2.21.61A39.47,39.47,0,0,0,27.23,16.62Z"/><path class="cls-4" d="M17.75,25.55a32.79,32.79,0,0,0-7.31-4c-1.37-.54-2,1.67-.61,2.22a30.06,30.06,0,0,1,6.77,3.8C17.79,28.4,18.93,26.41,17.75,25.55Z"/><path class="cls-4" d="M35.12,23.81c-5.35,1.56-10.18,7.31-10.92,12.8-.15,1.09,1.51,1.55,1.66.46.66-4.91,4.9-10.2,9.72-11.6A.86.86,0,0,0,35.12,23.81Z"/><path class="cls-4" d="M36.19,26.76A6.79,6.79,0,0,0,32,29.42c-.67.86.53,2.09,1.21,1.21a5.52,5.52,0,0,1,3.42-2.21C37.74,28.27,37.28,26.61,36.19,26.76Z"/></g></g></svg>